Reading from stdin...
<svg xmlns="http://www.w3.org/2000/svg" width="800" height="600" viewBox="0 0 800 600">
<line x1="50.00" y1="278.92" x2="50.00" y2="475.15" stroke="#10B981" stroke-width="1.00"/>
<rect x="46.00" y="344.33" width="8.00" height="65.41" fill="#10B981" stroke="#10B981" stroke-width="1.00" opacity="0.90"/>
<rect x="46.00" y="533.33" width="8.00" height="66.67" fill="#6B7280" opacity="0.50"/>
<line x1="50.00" y1="213.52" x2="50.00" y2="409.74" stroke="#10B981" stroke-width="1.00"/>
<rect x="46.00" y="252.76" width="8.00" height="91.57" fill="#10B981" stroke="#10B981" stroke-width="1.00" opacity="0.90"/>
<rect x="46.00" y="520.00" width="8.00" height="80.00" fill="#6B7280" opacity="0.50"/>
<line x1="50.00" y1="174.27" x2="50.00" y2="305.09" stroke="#EF4444" stroke-width="1.00"/>
<rect x="46.00" y="252.76" width="8.00" height="26.16" fill="#EF4444" stroke="#EF4444" stroke-width="1.00" opacity="0.90"/>
<rect x="46.00" y="540.00" width="8.00" height="60.00" fill="#6B7280" opacity="0.50"/>
<line x1="50.00" y1="148.11" x2="50.00" y2="344.33" stroke="#10B981" stroke-width="1.00"/>
<rect x="46.00" y="174.27" width="8.00" height="104.65" fill="#10B981" stroke="#10B981" stroke-width="1.00" opacity="0.90"/>
<rect x="46.00" y="500.00" width="8.00" height="100.00" fill="#6B7280" opacity="0.50"/>
<line x1="50.00" y1="82.70" x2="50.00" y2="213.52" stroke="#10B981" stroke-width="1.00"/>
<rect x="46.00" y="121.95" width="8.00" height="52.33" fill="#10B981" stroke="#10B981" stroke-width="1.00" opacity="0.90"/>
<rect x="46.00" y="513.33" width="8.00" height="86.67" fill="#6B7280" opacity="0.50"/>

</svg>