Reading from stdin...
<svg xmlns="http://www.w3.org/2000/svg" width="800" height="600" viewBox="0 0 800 600">
<path d="M 80.00 160.00 L 80.00,86.30 83.05,83.65 86.11,81.05 89.16,78.51 92.21,76.04 95.26,73.65 98.32,71.33 101.37,69.10 104.42,66.95 107.47,64.90 110.53,62.94 113.58,61.08 116.63,59.31 119.69,57.65 122.74,56.08 125.79,54.61 128.84,53.23 131.90,51.95 134.95,50.76 138.00,49.66 141.05,48.65 144.11,47.71 147.16,46.86 150.21,46.08 153.27,45.37 156.32,44.72 159.37,44.14 162.42,43.62 165.48,43.15 168.53,42.73 171.58,42.35 174.64,42.02 177.69,41.72 180.74,41.46 183.79,41.23 186.85,41.03 189.90,40.86 192.95,40.71 196.00,40.57 199.06,40.46 202.11,40.37 205.16,40.28 208.22,40.21 211.27,40.16 214.32,40.11 217.37,40.07 220.43,40.04 223.48,40.02 226.53,40.01 229.58,40.00 232.64,40.00 235.69,40.01 238.74,40.02 241.80,40.04 244.85,40.07 247.90,40.11 250.95,40.16 254.01,40.21 257.06,40.28 260.11,40.37 263.16,40.46 266.22,40.57 269.27,40.71 272.32,40.86 275.38,41.03 278.43,41.23 281.48,41.46 284.53,41.72 287.59,42.02 290.64,42.35 293.69,42.73 296.75,43.15 299.80,43.62 302.85,44.14 305.90,44.72 308.96,45.37 312.01,46.08 315.06,46.86 318.11,47.71 321.17,48.65 324.22,49.66 327.27,50.76 330.33,51.95 333.38,53.23 336.43,54.61 339.48,56.08 342.54,57.65 345.59,59.31 348.64,61.08 351.69,62.94 354.75,64.90 357.80,66.95 360.85,69.10 363.91,71.33 366.96,73.65 370.01,76.04 373.06,78.51 376.12,81.05 379.17,83.65 382.22,86.30 L 382.22 160.00 Z" fill="#4285f4" stroke="none" opacity="0.70"/>
<path d="M 80.00,86.30 83.05,83.65 86.11,81.05 89.16,78.51 92.21,76.04 95.26,73.65 98.32,71.33 101.37,69.10 104.42,66.95 107.47,64.90 110.53,62.94 113.58,61.08 116.63,59.31 119.69,57.65 122.74,56.08 125.79,54.61 128.84,53.23 131.90,51.95 134.95,50.76 138.00,49.66 141.05,48.65 144.11,47.71 147.16,46.86 150.21,46.08 153.27,45.37 156.32,44.72 159.37,44.14 162.42,43.62 165.48,43.15 168.53,42.73 171.58,42.35 174.64,42.02 177.69,41.72 180.74,41.46 183.79,41.23 186.85,41.03 189.90,40.86 192.95,40.71 196.00,40.57 199.06,40.46 202.11,40.37 205.16,40.28 208.22,40.21 211.27,40.16 214.32,40.11 217.37,40.07 220.43,40.04 223.48,40.02 226.53,40.01 229.58,40.00 232.64,40.00 235.69,40.01 238.74,40.02 241.80,40.04 244.85,40.07 247.90,40.11 250.95,40.16 254.01,40.21 257.06,40.28 260.11,40.37 263.16,40.46 266.22,40.57 269.27,40.71 272.32,40.86 275.38,41.03 278.43,41.23 281.48,41.46 284.53,41.72 287.59,42.02 290.64,42.35 293.69,42.73 296.75,43.15 299.80,43.62 302.85,44.14 305.90,44.72 308.96,45.37 312.01,46.08 315.06,46.86 318.11,47.71 321.17,48.65 324.22,49.66 327.27,50.76 330.33,51.95 333.38,53.23 336.43,54.61 339.48,56.08 342.54,57.65 345.59,59.31 348.64,61.08 351.69,62.94 354.75,64.90 357.80,66.95 360.85,69.10 363.91,71.33 366.96,73.65 370.01,76.04 373.06,78.51 376.12,81.05 379.17,83.65 382.22,86.30" fill="none" stroke="#4285f4" stroke-width="1.50"/>
<text x="70.00" y="100.00" text-anchor="end" dominant-baseline="middle" font-family="sans-serif" font-size="12.00px">2020</text>
<path d="M 155.56 220.00 L 155.56,146.30 160.13,143.65 164.71,141.05 169.29,138.51 173.87,136.04 178.45,133.65 183.03,131.33 187.61,129.10 192.19,126.95 196.77,124.90 201.35,122.94 205.93,121.08 210.51,119.31 215.08,117.65 219.66,116.08 224.24,114.61 228.82,113.23 233.40,111.95 237.98,110.76 242.56,109.66 247.14,108.65 251.72,107.71 256.30,106.86 260.88,106.08 265.45,105.37 270.03,104.72 274.61,104.14 279.19,103.62 283.77,103.15 288.35,102.73 292.93,102.35 297.51,102.02 302.09,101.72 306.67,101.46 311.25,101.23 315.82,101.03 320.40,100.86 324.98,100.71 329.56,100.57 334.14,100.46 338.72,100.37 343.30,100.28 347.88,100.21 352.46,100.16 357.04,100.11 361.62,100.07 366.20,100.04 370.77,100.02 375.35,100.01 379.93,100.00 384.51,100.00 389.09,100.01 393.67,100.02 398.25,100.04 402.83,100.07 407.41,100.11 411.99,100.16 416.57,100.21 421.14,100.28 425.72,100.37 430.30,100.46 434.88,100.57 439.46,100.71 444.04,100.86 448.62,101.03 453.20,101.23 457.78,101.46 462.36,101.72 466.94,102.02 471.52,102.35 476.09,102.73 480.67,103.15 485.25,103.62 489.83,104.14 494.41,104.72 498.99,105.37 503.57,106.08 508.15,106.86 512.73,107.71 517.31,108.65 521.89,109.66 526.46,110.76 531.04,111.95 535.62,113.23 540.20,114.61 544.78,116.08 549.36,117.65 553.94,119.31 558.52,121.08 563.10,122.94 567.68,124.90 572.26,126.95 576.84,129.10 581.41,131.33 585.99,133.65 590.57,136.04 595.15,138.51 599.73,141.05 604.31,143.65 608.89,146.30 L 608.89 220.00 Z" fill="#ea4335" stroke="none" opacity="0.70"/>
<path d="M 155.56,146.30 160.13,143.65 164.71,141.05 169.29,138.51 173.87,136.04 178.45,133.65 183.03,131.33 187.61,129.10 192.19,126.95 196.77,124.90 201.35,122.94 205.93,121.08 210.51,119.31 215.08,117.65 219.66,116.08 224.24,114.61 228.82,113.23 233.40,111.95 237.98,110.76 242.56,109.66 247.14,108.65 251.72,107.71 256.30,106.86 260.88,106.08 265.45,105.37 270.03,104.72 274.61,104.14 279.19,103.62 283.77,103.15 288.35,102.73 292.93,102.35 297.51,102.02 302.09,101.72 306.67,101.46 311.25,101.23 315.82,101.03 320.40,100.86 324.98,100.71 329.56,100.57 334.14,100.46 338.72,100.37 343.30,100.28 347.88,100.21 352.46,100.16 357.04,100.11 361.62,100.07 366.20,100.04 370.77,100.02 375.35,100.01 379.93,100.00 384.51,100.00 389.09,100.01 393.67,100.02 398.25,100.04 402.83,100.07 407.41,100.11 411.99,100.16 416.57,100.21 421.14,100.28 425.72,100.37 430.30,100.46 434.88,100.57 439.46,100.71 444.04,100.86 448.62,101.03 453.20,101.23 457.78,101.46 462.36,101.72 466.94,102.02 471.52,102.35 476.09,102.73 480.67,103.15 485.25,103.62 489.83,104.14 494.41,104.72 498.99,105.37 503.57,106.08 508.15,106.86 512.73,107.71 517.31,108.65 521.89,109.66 526.46,110.76 531.04,111.95 535.62,113.23 540.20,114.61 544.78,116.08 549.36,117.65 553.94,119.31 558.52,121.08 563.10,122.94 567.68,124.90 572.26,126.95 576.84,129.10 581.41,131.33 585.99,133.65 590.57,136.04 595.15,138.51 599.73,141.05 604.31,143.65 608.89,146.30" fill="none" stroke="#ea4335" stroke-width="1.50"/>
<text x="70.00" y="160.00" text-anchor="end" dominant-baseline="middle" font-family="sans-serif" font-size="12.00px">2021</text>
<path d="M 231.11 280.00 L 231.11,206.30 235.69,203.65 240.27,201.05 244.85,198.51 249.43,196.04 254.01,193.65 258.59,191.33 263.16,189.10 267.74,186.95 272.32,184.90 276.90,182.94 281.48,181.08 286.06,179.31 290.64,177.65 295.22,176.08 299.80,174.61 304.38,173.23 308.96,171.95 313.54,170.76 318.11,169.66 322.69,168.65 327.27,167.71 331.85,166.86 336.43,166.08 341.01,165.37 345.59,164.72 350.17,164.14 354.75,163.62 359.33,163.15 363.91,162.73 368.48,162.35 373.06,162.02 377.64,161.72 382.22,161.46 386.80,161.23 391.38,161.03 395.96,160.86 400.54,160.71 405.12,160.57 409.70,160.46 414.28,160.37 418.86,160.28 423.43,160.21 428.01,160.16 432.59,160.11 437.17,160.07 441.75,160.04 446.33,160.02 450.91,160.01 455.49,160.00 460.07,160.00 464.65,160.01 469.23,160.02 473.80,160.04 478.38,160.07 482.96,160.11 487.54,160.16 492.12,160.21 496.70,160.28 501.28,160.37 505.86,160.46 510.44,160.57 515.02,160.71 519.60,160.86 524.18,161.03 528.75,161.23 533.33,161.46 537.91,161.72 542.49,162.02 547.07,162.35 551.65,162.73 556.23,163.15 560.81,163.62 565.39,164.14 569.97,164.72 574.55,165.37 579.12,166.08 583.70,166.86 588.28,167.71 592.86,168.65 597.44,169.66 602.02,170.76 606.60,171.95 611.18,173.23 615.76,174.61 620.34,176.08 624.92,177.65 629.49,179.31 634.07,181.08 638.65,182.94 643.23,184.90 647.81,186.95 652.39,189.10 656.97,191.33 661.55,193.65 666.13,196.04 670.71,198.51 675.29,201.05 679.87,203.65 684.44,206.30 L 684.44 280.00 Z" fill="#fbbc04" stroke="none" opacity="0.70"/>
<path d="M 231.11,206.30 235.69,203.65 240.27,201.05 244.85,198.51 249.43,196.04 254.01,193.65 258.59,191.33 263.16,189.10 267.74,186.95 272.32,184.90 276.90,182.94 281.48,181.08 286.06,179.31 290.64,177.65 295.22,176.08 299.80,174.61 304.38,173.23 308.96,171.95 313.54,170.76 318.11,169.66 322.69,168.65 327.27,167.71 331.85,166.86 336.43,166.08 341.01,165.37 345.59,164.72 350.17,164.14 354.75,163.62 359.33,163.15 363.91,162.73 368.48,162.35 373.06,162.02 377.64,161.72 382.22,161.46 386.80,161.23 391.38,161.03 395.96,160.86 400.54,160.71 405.12,160.57 409.70,160.46 414.28,160.37 418.86,160.28 423.43,160.21 428.01,160.16 432.59,160.11 437.17,160.07 441.75,160.04 446.33,160.02 450.91,160.01 455.49,160.00 460.07,160.00 464.65,160.01 469.23,160.02 473.80,160.04 478.38,160.07 482.96,160.11 487.54,160.16 492.12,160.21 496.70,160.28 501.28,160.37 505.86,160.46 510.44,160.57 515.02,160.71 519.60,160.86 524.18,161.03 528.75,161.23 533.33,161.46 537.91,161.72 542.49,162.02 547.07,162.35 551.65,162.73 556.23,163.15 560.81,163.62 565.39,164.14 569.97,164.72 574.55,165.37 579.12,166.08 583.70,166.86 588.28,167.71 592.86,168.65 597.44,169.66 602.02,170.76 606.60,171.95 611.18,173.23 615.76,174.61 620.34,176.08 624.92,177.65 629.49,179.31 634.07,181.08 638.65,182.94 643.23,184.90 647.81,186.95 652.39,189.10 656.97,191.33 661.55,193.65 666.13,196.04 670.71,198.51 675.29,201.05 679.87,203.65 684.44,206.30" fill="none" stroke="#fbbc04" stroke-width="1.50"/>
<text x="70.00" y="220.00" text-anchor="end" dominant-baseline="middle" font-family="sans-serif" font-size="12.00px">2022</text>
<path d="M 306.67 340.00 L 306.67,266.30 311.25,263.65 315.82,261.05 320.40,258.51 324.98,256.04 329.56,253.65 334.14,251.33 338.72,249.10 343.30,246.95 347.88,244.90 352.46,242.94 357.04,241.08 361.62,239.31 366.20,237.65 370.77,236.08 375.35,234.61 379.93,233.23 384.51,231.95 389.09,230.76 393.67,229.66 398.25,228.65 402.83,227.71 407.41,226.86 411.99,226.08 416.57,225.37 421.14,224.72 425.72,224.14 430.30,223.62 434.88,223.15 439.46,222.73 444.04,222.35 448.62,222.02 453.20,221.72 457.78,221.46 462.36,221.23 466.94,221.03 471.52,220.86 476.09,220.71 480.67,220.57 485.25,220.46 489.83,220.37 494.41,220.28 498.99,220.21 503.57,220.16 508.15,220.11 512.73,220.07 517.31,220.04 521.89,220.02 526.46,220.01 531.04,220.00 535.62,220.00 540.20,220.01 544.78,220.02 549.36,220.04 553.94,220.07 558.52,220.11 563.10,220.16 567.68,220.21 572.26,220.28 576.84,220.37 581.41,220.46 585.99,220.57 590.57,220.71 595.15,220.86 599.73,221.03 604.31,221.23 608.89,221.46 613.47,221.72 618.05,222.02 622.63,222.35 627.21,222.73 631.78,223.15 636.36,223.62 640.94,224.14 645.52,224.72 650.10,225.37 654.68,226.08 659.26,226.86 663.84,227.71 668.42,228.65 673.00,229.66 677.58,230.76 682.15,231.95 686.73,233.23 691.31,234.61 695.89,236.08 700.47,237.65 705.05,239.31 709.63,241.08 714.21,242.94 718.79,244.90 723.37,246.95 727.95,249.10 732.53,251.33 737.10,253.65 741.68,256.04 746.26,258.51 750.84,261.05 755.42,263.65 760.00,266.30 L 760.00 340.00 Z" fill="#34a853" stroke="none" opacity="0.70"/>
<path d="M 306.67,266.30 311.25,263.65 315.82,261.05 320.40,258.51 324.98,256.04 329.56,253.65 334.14,251.33 338.72,249.10 343.30,246.95 347.88,244.90 352.46,242.94 357.04,241.08 361.62,239.31 366.20,237.65 370.77,236.08 375.35,234.61 379.93,233.23 384.51,231.95 389.09,230.76 393.67,229.66 398.25,228.65 402.83,227.71 407.41,226.86 411.99,226.08 416.57,225.37 421.14,224.72 425.72,224.14 430.30,223.62 434.88,223.15 439.46,222.73 444.04,222.35 448.62,222.02 453.20,221.72 457.78,221.46 462.36,221.23 466.94,221.03 471.52,220.86 476.09,220.71 480.67,220.57 485.25,220.46 489.83,220.37 494.41,220.28 498.99,220.21 503.57,220.16 508.15,220.11 512.73,220.07 517.31,220.04 521.89,220.02 526.46,220.01 531.04,220.00 535.62,220.00 540.20,220.01 544.78,220.02 549.36,220.04 553.94,220.07 558.52,220.11 563.10,220.16 567.68,220.21 572.26,220.28 576.84,220.37 581.41,220.46 585.99,220.57 590.57,220.71 595.15,220.86 599.73,221.03 604.31,221.23 608.89,221.46 613.47,221.72 618.05,222.02 622.63,222.35 627.21,222.73 631.78,223.15 636.36,223.62 640.94,224.14 645.52,224.72 650.10,225.37 654.68,226.08 659.26,226.86 663.84,227.71 668.42,228.65 673.00,229.66 677.58,230.76 682.15,231.95 686.73,233.23 691.31,234.61 695.89,236.08 700.47,237.65 705.05,239.31 709.63,241.08 714.21,242.94 718.79,244.90 723.37,246.95 727.95,249.10 732.53,251.33 737.10,253.65 741.68,256.04 746.26,258.51 750.84,261.05 755.42,263.65 760.00,266.30" fill="none" stroke="#34a853" stroke-width="1.50"/>
<text x="70.00" y="280.00" text-anchor="end" dominant-baseline="middle" font-family="sans-serif" font-size="12.00px">2023</text>

</svg>