Reading from stdin...
<svg xmlns="http://www.w3.org/2000/svg" width="800" height="600" viewBox="0 0 800 600">
<path d="M 501.14 127.34 Q 400.00 300.00 595.72 341.62 L 597.94 329.32 Q 400.00 300.00 490.16 121.37 Z" fill="#3b82f6" stroke="none" fill-opacity="0.50"/>
<path d="M 498.94 126.15 Q 400.00 300.00 368.70 497.57 L 376.13 498.61 Q 400.00 300.00 492.36 122.56 Z" fill="#3b82f6" stroke="none" fill-opacity="0.50"/>
<path d="M 596.21 338.89 Q 400.00 300.00 368.97 497.61 L 375.86 498.57 Q 400.00 300.00 597.45 332.04 Z" fill="#3b82f6" stroke="none" fill-opacity="0.50"/>
<path d="M 596.44 337.61 Q 400.00 300.00 200.21 290.60 L 200.05 294.94 Q 400.00 300.00 597.22 333.33 Z" fill="#3b82f6" stroke="none" fill-opacity="0.50"/>
<path d="M 369.64 497.70 Q 400.00 300.00 200.23 289.97 L 200.03 295.57 Q 400.00 300.00 375.19 498.47 Z" fill="#3b82f6" stroke="none" fill-opacity="0.50"/>
<path d="M 370.83 497.87 Q 400.00 300.00 316.25 118.37 L 313.35 119.74 Q 400.00 300.00 374.00 498.31 Z" fill="#3b82f6" stroke="none" fill-opacity="0.50"/>
<path d="M 200.29 288.49 Q 400.00 300.00 318.68 117.23 L 310.92 120.88 Q 400.00 300.00 199.98 297.05 Z" fill="#3b82f6" stroke="none" fill-opacity="0.50"/>
<path d="M 400.00 100.00 L 400.00 80.00 A 220.00 220.00 0 0 1 584.81 180.64 L 568.01 191.49 A 200.00 200.00 0 0 0 400.00 100.00 Z" fill="#3b82f6" stroke="#ffffff" stroke-width="1.00"/>
<text x="512.39" y="93.62" text-anchor="start" dominant-baseline="middle" font-family="sans-serif" font-size="11.00px">Department A</text>
<path d="M 571.69 197.42 L 588.86 187.16 A 220.00 220.00 0 0 1 537.60 471.66 L 525.09 456.05 A 200.00 200.00 0 0 0 571.69 197.42 Z" fill="#10b981" stroke="#ffffff" stroke-width="1.00"/>
<text x="631.28" y="341.67" text-anchor="start" dominant-baseline="middle" font-family="sans-serif" font-size="11.00px">Department B</text>
<path d="M 519.57 460.33 L 531.52 476.36 A 220.00 220.00 0 0 1 225.30 433.71 L 241.18 421.55 A 200.00 200.00 0 0 0 519.57 460.33 Z" fill="#f59e0b" stroke="#ffffff" stroke-width="1.00"/>
<text x="367.58" y="532.75" text-anchor="end" dominant-baseline="middle" font-family="sans-serif" font-size="11.00px">Department C</text>
<path d="M 237.03 415.94 L 220.74 427.53 A 220.00 220.00 0 0 1 230.42 159.85 L 245.83 172.59 A 200.00 200.00 0 0 0 237.03 415.94 Z" fill="#ef4444" stroke="#ffffff" stroke-width="1.00"/>
<text x="165.15" y="291.51" text-anchor="end" dominant-baseline="middle" font-family="sans-serif" font-size="11.00px">Department D</text>
<path d="M 250.37 167.29 L 235.41 154.02 A 220.00 220.00 0 0 1 392.32 80.13 L 393.02 100.12 A 200.00 200.00 0 0 0 250.37 167.29 Z" fill="#8b5cf6" stroke="#ffffff" stroke-width="1.00"/>
<text x="299.89" y="87.39" text-anchor="end" dominant-baseline="middle" font-family="sans-serif" font-size="11.00px">Department E</text>

</svg>