<svg xmlns="http://www.w3.org/2000/svg" width="800" height="600" viewBox="0 0 800 600">
<path d="M 400.00 320.00 L 400.00 120.00 A 200.00 200.00 0 1 1 249.98 452.26 Z" fill="#ff6b6b" stroke="#FFFFFF" stroke-width="2.00"/><text x="527.60" y="377.61" fill="#FFFFFF" text-anchor="middle" dominant-baseline="middle" font-family="Arial, sans-serif" font-size="12.00px" font-weight="bold">63.5%</text><path d="M 400.00 320.00 L 249.98 452.26 A 200.00 200.00 0 0 1 223.54 225.86 Z" fill="#4ecdc4" stroke="#FFFFFF" stroke-width="2.00"/><text x="260.94" y="336.24" fill="#FFFFFF" text-anchor="middle" dominant-baseline="middle" font-family="Arial, sans-serif" font-size="12.00px" font-weight="bold">19.3%</text><path d="M 400.00 320.00 L 223.54 225.86 A 200.00 200.00 0 0 1 303.65 144.74 Z" fill="#45b7d1" stroke="#FFFFFF" stroke-width="2.00"/><text x="300.39" y="221.63" fill="#FFFFFF" text-anchor="middle" dominant-baseline="middle" font-family="Arial, sans-serif" font-size="12.00px" font-weight="bold">9.2%</text><path d="M 400.00 320.00 L 303.65 144.74 A 200.00 200.00 0 0 1 363.76 123.31 Z" fill="#ffa07a" stroke="#FFFFFF" stroke-width="2.00"/><text x="352.99" y="188.13" fill="#FFFFFF" text-anchor="middle" dominant-baseline="middle" font-family="Arial, sans-serif" font-size="12.00px" font-weight="bold">5.1%</text><path d="M 400.00 320.00 L 363.76 123.31 A 200.00 200.00 0 0 1 400.00 120.00 Z" fill="#98d8c8" stroke="#FFFFFF" stroke-width="2.00"/><g class="legend" transform="translate(10.0,478.0)">
  <rect x="0" y="0" width="138.8" height="112.0" fill="none" stroke="#e5e7eb" stroke-width="1.0"/>
  <g transform="translate(10.0,10.0)"><rect width="12.0" height="12.0" fill="#ff6b6b" stroke="#000" stroke-width="0.5" stroke-opacity="0.2"/></g>
  <text x="28.0" y="20.2" font-family="Arial, sans-serif" font-size="12.0" fill="#374151">Chrome (63.5%)</text>
  <g transform="translate(10.0,30.0)"><rect width="12.0" height="12.0" fill="#4ecdc4" stroke="#000" stroke-width="0.5" stroke-opacity="0.2"/></g>
  <text x="28.0" y="40.2" font-family="Arial, sans-serif" font-size="12.0" fill="#374151">Safari (19.3%)</text>
  <g transform="translate(10.0,50.0)"><rect width="12.0" height="12.0" fill="#45b7d1" stroke="#000" stroke-width="0.5" stroke-opacity="0.2"/></g>
  <text x="28.0" y="60.2" font-family="Arial, sans-serif" font-size="12.0" fill="#374151">Firefox (9.2%)</text>
  <g transform="translate(10.0,70.0)"><rect width="12.0" height="12.0" fill="#ffa07a" stroke="#000" stroke-width="0.5" stroke-opacity="0.2"/></g>
  <text x="28.0" y="80.2" font-family="Arial, sans-serif" font-size="12.0" fill="#374151">Edge (5.1%)</text>
  <g transform="translate(10.0,90.0)"><rect width="12.0" height="12.0" fill="#98d8c8" stroke="#000" stroke-width="0.5" stroke-opacity="0.2"/></g>
  <text x="28.0" y="100.2" font-family="Arial, sans-serif" font-size="12.0" fill="#374151">Other (2.9%)</text>
</g>

</svg>