<svg xmlns="http://www.w3.org/2000/svg" width="1600" height="400" viewBox="0 0 1600 400"><rect x="0.00" y="0.00" width="1600.00" height="400.00" fill="#ffffff"/>
<text x="800.00" y="30.00" fill="#000000" text-anchor="middle" font-family="sans-serif" font-size="20.00px" font-weight="bold">Area Chart Gallery</text>
<g transform="translate(0, 60)"><text x="400.00" y="0.00" fill="#666" text-anchor="middle" font-family="sans-serif" font-size="14.00px" font-weight="bold">Simple Area</text><g transform="translate(0, 30)"><g transform="translate(0, 0)"><g class="axis axis-right">
  <line x1="745.00" y1="330.00" x2="745.00" y2="0.00" stroke="rgba(255,255,255,0.1)" stroke-width="1.00"/>
  <line x1="745.00" y1="330.00" x2="751.00" y2="330.00" stroke="rgba(255,255,255,0.1)" stroke-width="1.00"/>
  <line x1="745.00" y1="330.00" x2="-5.00" y2="330.00" stroke="rgba(255,255,255,0.1)" stroke-width="1.00"/>
  <text x="754.00" y="330.00" fill="#E5E7EB" text-anchor="start" dominant-baseline="middle" font-family="monospace" font-size="10.00px">100</text>
  <line x1="745.00" y1="220.00" x2="751.00" y2="220.00" stroke="rgba(255,255,255,0.1)" stroke-width="1.00"/>
  <line x1="745.00" y1="220.00" x2="-5.00" y2="220.00" stroke="rgba(255,255,255,0.1)" stroke-width="1.00"/>
  <text x="754.00" y="220.00" fill="#E5E7EB" text-anchor="start" dominant-baseline="middle" font-family="monospace" font-size="10.00px">120</text>
  <line x1="745.00" y1="110.00" x2="751.00" y2="110.00" stroke="rgba(255,255,255,0.1)" stroke-width="1.00"/>
  <line x1="745.00" y1="110.00" x2="-5.00" y2="110.00" stroke="rgba(255,255,255,0.1)" stroke-width="1.00"/>
  <text x="754.00" y="110.00" fill="#E5E7EB" text-anchor="start" dominant-baseline="middle" font-family="monospace" font-size="10.00px">140</text>
  <line x1="745.00" y1="0.00" x2="751.00" y2="0.00" stroke="rgba(255,255,255,0.1)" stroke-width="1.00"/>
  <line x1="745.00" y1="0.00" x2="-5.00" y2="0.00" stroke="rgba(255,255,255,0.1)" stroke-width="1.00"/>
  <text x="754.00" y="0.00" fill="#E5E7EB" text-anchor="start" dominant-baseline="middle" font-family="monospace" font-size="10.00px">160</text>
</g>
<path d="M 0.00 880.00 L 0.00 330.00 L 144.80 220.00 L 280.26 275.00 L 425.07 110.00 L 565.20 165.00 L 710.00 55.00 L 710.00 880.00 Z" fill="#3b82f6" fill-opacity="0.40"/>
<path d="M 0.00 330.00 L 144.80 220.00 L 280.26 275.00 L 425.07 110.00 L 565.20 165.00 L 710.00 55.00" fill="none" stroke="#3b82f6" stroke-width="2.00" stroke-linecap="round" stroke-linejoin="round"/>
</g><g class="legend" transform="translate(666.0,10.0)">
  <rect x="0" y="0" width="74.0" height="32.0" fill="none" stroke="#e5e7eb" stroke-width="1.0"/>
  <g transform="translate(10.0,10.0)"><rect width="12.0" height="12.0" fill="#3b82f6" stroke="#000" stroke-width="0.5" stroke-opacity="0.2"/></g>
  <text x="28.0" y="20.2" font-family="Arial, sans-serif" font-size="12.0" fill="#374151">Sales</text>
</g>
</g></g>
<g transform="translate(800, 60)"><text x="400.00" y="0.00" fill="#666" text-anchor="middle" font-family="sans-serif" font-size="14.00px" font-weight="bold">Different Color</text><g transform="translate(0, 30)"><g transform="translate(0, 0)"><g class="axis axis-right">
  <line x1="745.00" y1="330.00" x2="745.00" y2="0.00" stroke="rgba(255,255,255,0.1)" stroke-width="1.00"/>
  <line x1="745.00" y1="330.00" x2="751.00" y2="330.00" stroke="rgba(255,255,255,0.1)" stroke-width="1.00"/>
  <line x1="745.00" y1="330.00" x2="-5.00" y2="330.00" stroke="rgba(255,255,255,0.1)" stroke-width="1.00"/>
  <text x="754.00" y="330.00" fill="#E5E7EB" text-anchor="start" dominant-baseline="middle" font-family="monospace" font-size="10.00px">100</text>
  <line x1="745.00" y1="220.00" x2="751.00" y2="220.00" stroke="rgba(255,255,255,0.1)" stroke-width="1.00"/>
  <line x1="745.00" y1="220.00" x2="-5.00" y2="220.00" stroke="rgba(255,255,255,0.1)" stroke-width="1.00"/>
  <text x="754.00" y="220.00" fill="#E5E7EB" text-anchor="start" dominant-baseline="middle" font-family="monospace" font-size="10.00px">120</text>
  <line x1="745.00" y1="110.00" x2="751.00" y2="110.00" stroke="rgba(255,255,255,0.1)" stroke-width="1.00"/>
  <line x1="745.00" y1="110.00" x2="-5.00" y2="110.00" stroke="rgba(255,255,255,0.1)" stroke-width="1.00"/>
  <text x="754.00" y="110.00" fill="#E5E7EB" text-anchor="start" dominant-baseline="middle" font-family="monospace" font-size="10.00px">140</text>
  <line x1="745.00" y1="0.00" x2="751.00" y2="0.00" stroke="rgba(255,255,255,0.1)" stroke-width="1.00"/>
  <line x1="745.00" y1="0.00" x2="-5.00" y2="0.00" stroke="rgba(255,255,255,0.1)" stroke-width="1.00"/>
  <text x="754.00" y="0.00" fill="#E5E7EB" text-anchor="start" dominant-baseline="middle" font-family="monospace" font-size="10.00px">160</text>
</g>
<path d="M 0.00 880.00 L 0.00 330.00 L 144.80 220.00 L 280.26 275.00 L 425.07 110.00 L 565.20 165.00 L 710.00 55.00 L 710.00 880.00 Z" fill="#10b981" fill-opacity="0.40"/>
<path d="M 0.00 330.00 L 144.80 220.00 L 280.26 275.00 L 425.07 110.00 L 565.20 165.00 L 710.00 55.00" fill="none" stroke="#10b981" stroke-width="2.00" stroke-linecap="round" stroke-linejoin="round"/>
</g><g class="legend" transform="translate(666.0,10.0)">
  <rect x="0" y="0" width="74.0" height="32.0" fill="none" stroke="#e5e7eb" stroke-width="1.0"/>
  <g transform="translate(10.0,10.0)"><rect width="12.0" height="12.0" fill="#10b981" stroke="#000" stroke-width="0.5" stroke-opacity="0.2"/></g>
  <text x="28.0" y="20.2" font-family="Arial, sans-serif" font-size="12.0" fill="#374151">Sales</text>
</g>
</g></g>
</svg>