<svg xmlns="http://www.w3.org/2000/svg" width="1700" height="530" viewBox="0 0 1700 530"><rect x="0.00" y="0.00" width="1700.00" height="530.00" fill="#ffffff"/>
<text x="850.00" y="30.00" fill="#000000" text-anchor="middle" font-family="sans-serif" font-size="20.00px" font-weight="bold">Bar Chart Gallery</text>
<g transform="translate(50.00, 60.00)"><text x="425.00" y="0.00" fill="#666" text-anchor="middle" font-family="sans-serif" font-size="14.00px" font-weight="bold">Simple Bars</text><g transform="translate(0, 30.00)"><g transform="translate(0, 0)"><rect x="38.10" y="142.19" width="152.38" height="182.81" fill="#3b82f6"/>
<rect x="228.57" y="81.25" width="152.38" height="243.75" fill="#3b82f6"/>
<rect x="419.05" y="101.56" width="152.38" height="223.44" fill="#3b82f6"/>
<rect x="609.52" y="40.62" width="152.38" height="284.38" fill="#3b82f6"/>
</g><g class="legend" transform="translate(716.0,10.0)">
  <rect x="0" y="0" width="74.0" height="32.0" fill="none" stroke="#e5e7eb" stroke-width="1.0"/>
  <g transform="translate(10.0,10.0)"><rect width="12.0" height="12.0" fill="#3b82f6" stroke="#000" stroke-width="0.5" stroke-opacity="0.2"/></g>
  <text x="28.0" y="20.2" font-family="Arial, sans-serif" font-size="12.0" fill="#374151">Sales</text>
</g>
</g></g>
<g transform="translate(900.00, 60.00)"><text x="425.00" y="0.00" fill="#666" text-anchor="middle" font-family="sans-serif" font-size="14.00px" font-weight="bold">Stacked Bars (Open/Closed)</text><g transform="translate(0, 30.00)"><g transform="translate(0, 0)"><rect x="38.10" y="203.12" width="152.38" height="121.88" fill="#45d69c"/>
<rect x="38.10" y="121.88" width="152.38" height="81.25" fill="#10b981"/>
<rect x="228.57" y="142.19" width="152.38" height="182.81" fill="#45d69c"/>
<rect x="228.57" y="40.62" width="152.38" height="101.56" fill="#10b981"/>
<rect x="419.05" y="162.50" width="152.38" height="162.50" fill="#45d69c"/>
<rect x="419.05" y="40.62" width="152.38" height="121.88" fill="#10b981"/>
<rect x="609.52" y="121.88" width="152.38" height="203.12" fill="#45d69c"/>
<rect x="609.52" y="60.94" width="152.38" height="60.94" fill="#10b981"/>
</g><g class="legend" transform="translate(636.8,10.0)">
  <rect x="0" y="0" width="153.2" height="52.0" fill="none" stroke="#e5e7eb" stroke-width="1.0"/>
  <g transform="translate(10.0,10.0)"><rect width="12.0" height="12.0" fill="#10b981" stroke="#000" stroke-width="0.5" stroke-opacity="0.2"/></g>
  <text x="28.0" y="20.2" font-family="Arial, sans-serif" font-size="12.0" fill="#374151">Tickets (closed)</text>
  <g transform="translate(10.0,30.0)"><rect width="12.0" height="12.0" fill="#45d69c" stroke="#000" stroke-width="0.5" stroke-opacity="0.2"/></g>
  <text x="28.0" y="40.2" font-family="Arial, sans-serif" font-size="12.0" fill="#374151">Tickets (opened)</text>
</g>
</g></g>
</svg>