<svg xmlns="http://www.w3.org/2000/svg" width="1200" height="480" viewBox="0 0 1200 480"><rect x="0.00" y="0.00" width="1200.00" height="480.00" fill="#ffffff"/>
<text x="600.00" y="30.00" fill="#000000" text-anchor="middle" font-family="sans-serif" font-size="20.00px" font-weight="bold">Box Plot Gallery</text>
<g transform="translate(25.00, 60.00)"><text x="300.00" y="0.00" fill="#666" text-anchor="middle" font-family="sans-serif" font-size="14.00px" font-weight="bold">Vertical Box Plot</text><g transform="translate(0, 30.00)"><line x1="110.00" y1="246.40" x2="110.00" y2="157.17" stroke="#333" stroke-width="1.00"/>
<line x1="110.00" y1="104.50" x2="110.00" y2="214.15" stroke="#333" stroke-width="1.00"/>
<line x1="97.40" y1="246.40" x2="122.60" y2="246.40" stroke="#333" stroke-width="1.00"/>
<line x1="97.40" y1="104.50" x2="122.60" y2="104.50" stroke="#333" stroke-width="1.00"/>
<rect x="68.00" y="157.17" width="84.00" height="56.98" fill="#4285f4" stroke="#333" stroke-width="1.50" opacity="0.70"/>
<line x1="68.00" y1="184.05" x2="152.00" y2="184.05" stroke="#333" stroke-width="2.00"/>
<circle cx="110.00" cy="182.62" r="3.00" fill="#333" stroke="#333"/>
<text x="110.00" y="275.00" text-anchor="middle" font-family="sans-serif" font-size="12.00px">Group A</text>
<line x1="250.00" y1="212.00" x2="250.00" y2="117.40" stroke="#333" stroke-width="1.00"/>
<line x1="250.00" y1="83.00" x2="250.00" y2="177.60" stroke="#333" stroke-width="1.00"/>
<line x1="237.40" y1="212.00" x2="262.60" y2="212.00" stroke="#333" stroke-width="1.00"/>
<line x1="237.40" y1="83.00" x2="262.60" y2="83.00" stroke="#333" stroke-width="1.00"/>
<rect x="208.00" y="117.40" width="84.00" height="60.20" fill="#4285f4" stroke="#333" stroke-width="1.50" opacity="0.70"/>
<line x1="208.00" y1="147.50" x2="292.00" y2="147.50" stroke="#333" stroke-width="2.00"/>
<circle cx="250.00" cy="147.50" r="3.00" fill="#333" stroke="#333"/>
<text x="250.00" y="275.00" text-anchor="middle" font-family="sans-serif" font-size="12.00px">Group B</text>
<line x1="390.00" y1="255.00" x2="390.00" y2="136.75" stroke="#333" stroke-width="1.00"/>
<line x1="390.00" y1="40.00" x2="390.00" y2="227.05" stroke="#333" stroke-width="1.00"/>
<line x1="377.40" y1="255.00" x2="402.60" y2="255.00" stroke="#333" stroke-width="1.00"/>
<line x1="377.40" y1="40.00" x2="402.60" y2="40.00" stroke="#333" stroke-width="1.00"/>
<rect x="348.00" y="136.75" width="84.00" height="90.30" fill="#4285f4" stroke="#333" stroke-width="1.50" opacity="0.70"/>
<line x1="348.00" y1="190.50" x2="432.00" y2="190.50" stroke="#333" stroke-width="2.00"/>
<circle cx="390.00" cy="174.86" r="3.00" fill="#333" stroke="#333"/>
<text x="390.00" y="275.00" text-anchor="middle" font-family="sans-serif" font-size="12.00px">Group C</text>
</g></g>
<g transform="translate(625.00, 60.00)"><text x="300.00" y="0.00" fill="#666" text-anchor="middle" font-family="sans-serif" font-size="14.00px" font-weight="bold">With Confidence Notches</text><g transform="translate(0, 30.00)"><line x1="110.00" y1="246.40" x2="110.00" y2="157.17" stroke="#333" stroke-width="1.00"/>
<line x1="110.00" y1="104.50" x2="110.00" y2="214.15" stroke="#333" stroke-width="1.00"/>
<line x1="97.40" y1="246.40" x2="122.60" y2="246.40" stroke="#333" stroke-width="1.00"/>
<line x1="97.40" y1="104.50" x2="122.60" y2="104.50" stroke="#333" stroke-width="1.00"/>
<rect x="68.00" y="157.17" width="84.00" height="56.98" fill="#4285f4" stroke="#333" stroke-width="1.50" opacity="0.70"/>
<line x1="68.00" y1="184.05" x2="152.00" y2="184.05" stroke="#333" stroke-width="2.00"/>
<text x="110.00" y="275.00" text-anchor="middle" font-family="sans-serif" font-size="12.00px">Group A</text>
<line x1="250.00" y1="212.00" x2="250.00" y2="117.40" stroke="#333" stroke-width="1.00"/>
<line x1="250.00" y1="83.00" x2="250.00" y2="177.60" stroke="#333" stroke-width="1.00"/>
<line x1="237.40" y1="212.00" x2="262.60" y2="212.00" stroke="#333" stroke-width="1.00"/>
<line x1="237.40" y1="83.00" x2="262.60" y2="83.00" stroke="#333" stroke-width="1.00"/>
<rect x="208.00" y="117.40" width="84.00" height="60.20" fill="#4285f4" stroke="#333" stroke-width="1.50" opacity="0.70"/>
<line x1="208.00" y1="147.50" x2="292.00" y2="147.50" stroke="#333" stroke-width="2.00"/>
<text x="250.00" y="275.00" text-anchor="middle" font-family="sans-serif" font-size="12.00px">Group B</text>
<line x1="390.00" y1="255.00" x2="390.00" y2="136.75" stroke="#333" stroke-width="1.00"/>
<line x1="390.00" y1="40.00" x2="390.00" y2="227.05" stroke="#333" stroke-width="1.00"/>
<line x1="377.40" y1="255.00" x2="402.60" y2="255.00" stroke="#333" stroke-width="1.00"/>
<line x1="377.40" y1="40.00" x2="402.60" y2="40.00" stroke="#333" stroke-width="1.00"/>
<rect x="348.00" y="136.75" width="84.00" height="90.30" fill="#4285f4" stroke="#333" stroke-width="1.50" opacity="0.70"/>
<line x1="348.00" y1="190.50" x2="432.00" y2="190.50" stroke="#333" stroke-width="2.00"/>
<text x="390.00" y="275.00" text-anchor="middle" font-family="sans-serif" font-size="12.00px">Group C</text>
</g></g>
</svg>