<svg xmlns="http://www.w3.org/2000/svg" width="1200" height="400" viewBox="0 0 1200 400"><rect x="0.00" y="0.00" width="1200.00" height="400.00" fill="#ffffff"/>
<text x="600.00" y="30.00" fill="#000000" text-anchor="middle" font-family="sans-serif" font-size="20.00px" font-weight="bold">Candlestick Gallery</text>
<g transform="translate(25, 60)"><text x="300.00" y="0.00" fill="#666" text-anchor="middle" font-family="sans-serif" font-size="14.00px" font-weight="bold">Candlestick Chart</text><g transform="translate(0, 30)"><line x1="0.00" y1="137.14" x2="0.00" y2="274.29" stroke="#10b981" stroke-width="1.00"/>
<rect x="-4.00" y="182.86" width="8.00" height="45.71" fill="#10b981" stroke="#10b981" stroke-width="1.00" opacity="0.90"/>
<line x1="110.00" y1="91.43" x2="110.00" y2="201.14" stroke="#10b981" stroke-width="1.00"/>
<rect x="106.00" y="118.86" width="8.00" height="64.00" fill="#10b981" stroke="#10b981" stroke-width="1.00" opacity="0.90"/>
<line x1="220.00" y1="45.71" x2="220.00" y2="155.43" stroke="#ef4444" stroke-width="1.00"/>
<rect x="216.00" y="118.86" width="8.00" height="18.29" fill="#ef4444" stroke="#ef4444" stroke-width="1.00" opacity="0.90"/>
<line x1="330.00" y1="118.86" x2="330.00" y2="228.57" stroke="#ef4444" stroke-width="1.00"/>
<rect x="326.00" y="137.14" width="8.00" height="73.14" fill="#ef4444" stroke="#ef4444" stroke-width="1.00" opacity="0.90"/>
<line x1="440.00" y1="155.43" x2="440.00" y2="246.86" stroke="#10b981" stroke-width="1.00"/>
<rect x="436.00" y="173.71" width="8.00" height="36.57" fill="#10b981" stroke="#10b981" stroke-width="1.00" opacity="0.90"/>
<line x1="550.00" y1="64.00" x2="550.00" y2="192.00" stroke="#10b981" stroke-width="1.00"/>
<rect x="546.00" y="91.43" width="8.00" height="82.29" fill="#10b981" stroke="#10b981" stroke-width="1.00" opacity="0.90"/>
</g></g>
<g transform="translate(625, 60)"><text x="300.00" y="0.00" fill="#666" text-anchor="middle" font-family="sans-serif" font-size="14.00px" font-weight="bold">OHLC Chart</text><g transform="translate(0, 30)"><line x1="0.00" y1="137.14" x2="0.00" y2="274.29" stroke="#10b981" stroke-width="2.00"/>
<line x1="-3.00" y1="228.57" x2="0.00" y2="228.57" stroke="#10b981" stroke-width="2.00"/>
<line x1="0.00" y1="182.86" x2="3.00" y2="182.86" stroke="#10b981" stroke-width="2.00"/>
<line x1="110.00" y1="91.43" x2="110.00" y2="201.14" stroke="#10b981" stroke-width="2.00"/>
<line x1="107.00" y1="182.86" x2="110.00" y2="182.86" stroke="#10b981" stroke-width="2.00"/>
<line x1="110.00" y1="118.86" x2="113.00" y2="118.86" stroke="#10b981" stroke-width="2.00"/>
<line x1="220.00" y1="45.71" x2="220.00" y2="155.43" stroke="#ef4444" stroke-width="2.00"/>
<line x1="217.00" y1="118.86" x2="220.00" y2="118.86" stroke="#ef4444" stroke-width="2.00"/>
<line x1="220.00" y1="137.14" x2="223.00" y2="137.14" stroke="#ef4444" stroke-width="2.00"/>
<line x1="330.00" y1="118.86" x2="330.00" y2="228.57" stroke="#ef4444" stroke-width="2.00"/>
<line x1="327.00" y1="137.14" x2="330.00" y2="137.14" stroke="#ef4444" stroke-width="2.00"/>
<line x1="330.00" y1="210.29" x2="333.00" y2="210.29" stroke="#ef4444" stroke-width="2.00"/>
<line x1="440.00" y1="155.43" x2="440.00" y2="246.86" stroke="#10b981" stroke-width="2.00"/>
<line x1="437.00" y1="210.29" x2="440.00" y2="210.29" stroke="#10b981" stroke-width="2.00"/>
<line x1="440.00" y1="173.71" x2="443.00" y2="173.71" stroke="#10b981" stroke-width="2.00"/>
<line x1="550.00" y1="64.00" x2="550.00" y2="192.00" stroke="#10b981" stroke-width="2.00"/>
<line x1="547.00" y1="173.71" x2="550.00" y2="173.71" stroke="#10b981" stroke-width="2.00"/>
<line x1="550.00" y1="91.43" x2="553.00" y2="91.43" stroke="#10b981" stroke-width="2.00"/>
</g></g>
</svg>