<svg xmlns="http://www.w3.org/2000/svg" width="1200" height="480" viewBox="0 0 1200 480"><rect x="0.00" y="0.00" width="1200.00" height="480.00" fill="#ffffff"/>
<text x="600.00" y="30.00" fill="#000000" text-anchor="middle" font-family="sans-serif" font-size="20.00px" font-weight="bold">Candlestick Gallery</text>
<g transform="translate(25.00, 60.00)"><text x="300.00" y="0.00" fill="#666" text-anchor="middle" font-family="sans-serif" font-size="14.00px" font-weight="bold">Candlestick Chart</text><g transform="translate(0.00, 30.00)"><line x1="0.00" y1="126.43" x2="0.00" y2="252.86" stroke="#10b981" stroke-width="1.00"/>
<rect x="-4.00" y="168.57" width="8.00" height="42.14" fill="#10b981" stroke="#10b981" stroke-width="1.00" opacity="0.90"/>
<line x1="100.00" y1="84.29" x2="100.00" y2="185.43" stroke="#10b981" stroke-width="1.00"/>
<rect x="96.00" y="109.57" width="8.00" height="59.00" fill="#10b981" stroke="#10b981" stroke-width="1.00" opacity="0.90"/>
<line x1="200.00" y1="42.14" x2="200.00" y2="143.29" stroke="#ef4444" stroke-width="1.00"/>
<rect x="196.00" y="109.57" width="8.00" height="16.86" fill="#ef4444" stroke="#ef4444" stroke-width="1.00" opacity="0.90"/>
<line x1="300.00" y1="109.57" x2="300.00" y2="210.71" stroke="#ef4444" stroke-width="1.00"/>
<rect x="296.00" y="126.43" width="8.00" height="67.43" fill="#ef4444" stroke="#ef4444" stroke-width="1.00" opacity="0.90"/>
<line x1="400.00" y1="143.29" x2="400.00" y2="227.57" stroke="#10b981" stroke-width="1.00"/>
<rect x="396.00" y="160.14" width="8.00" height="33.71" fill="#10b981" stroke="#10b981" stroke-width="1.00" opacity="0.90"/>
<line x1="500.00" y1="59.00" x2="500.00" y2="177.00" stroke="#10b981" stroke-width="1.00"/>
<rect x="496.00" y="84.29" width="8.00" height="75.86" fill="#10b981" stroke="#10b981" stroke-width="1.00" opacity="0.90"/>
</g></g>
<g transform="translate(625.00, 60.00)"><text x="300.00" y="0.00" fill="#666" text-anchor="middle" font-family="sans-serif" font-size="14.00px" font-weight="bold">OHLC Chart</text><g transform="translate(0.00, 30.00)"><line x1="0.00" y1="126.43" x2="0.00" y2="252.86" stroke="#10b981" stroke-width="2.00"/>
<line x1="-3.00" y1="210.71" x2="0.00" y2="210.71" stroke="#10b981" stroke-width="2.00"/>
<line x1="0.00" y1="168.57" x2="3.00" y2="168.57" stroke="#10b981" stroke-width="2.00"/>
<line x1="100.00" y1="84.29" x2="100.00" y2="185.43" stroke="#10b981" stroke-width="2.00"/>
<line x1="97.00" y1="168.57" x2="100.00" y2="168.57" stroke="#10b981" stroke-width="2.00"/>
<line x1="100.00" y1="109.57" x2="103.00" y2="109.57" stroke="#10b981" stroke-width="2.00"/>
<line x1="200.00" y1="42.14" x2="200.00" y2="143.29" stroke="#ef4444" stroke-width="2.00"/>
<line x1="197.00" y1="109.57" x2="200.00" y2="109.57" stroke="#ef4444" stroke-width="2.00"/>
<line x1="200.00" y1="126.43" x2="203.00" y2="126.43" stroke="#ef4444" stroke-width="2.00"/>
<line x1="300.00" y1="109.57" x2="300.00" y2="210.71" stroke="#ef4444" stroke-width="2.00"/>
<line x1="297.00" y1="126.43" x2="300.00" y2="126.43" stroke="#ef4444" stroke-width="2.00"/>
<line x1="300.00" y1="193.86" x2="303.00" y2="193.86" stroke="#ef4444" stroke-width="2.00"/>
<line x1="400.00" y1="143.29" x2="400.00" y2="227.57" stroke="#10b981" stroke-width="2.00"/>
<line x1="397.00" y1="193.86" x2="400.00" y2="193.86" stroke="#10b981" stroke-width="2.00"/>
<line x1="400.00" y1="160.14" x2="403.00" y2="160.14" stroke="#10b981" stroke-width="2.00"/>
<line x1="500.00" y1="59.00" x2="500.00" y2="177.00" stroke="#10b981" stroke-width="2.00"/>
<line x1="497.00" y1="160.14" x2="500.00" y2="160.14" stroke="#10b981" stroke-width="2.00"/>
<line x1="500.00" y1="84.29" x2="503.00" y2="84.29" stroke="#10b981" stroke-width="2.00"/>
</g></g>
</svg>