<svg xmlns="http://www.w3.org/2000/svg" width="800" height="540" viewBox="0 0 800 540"><rect x="0.00" y="0.00" width="800.00" height="540.00" fill="#ffffff"/>
<text x="400.00" y="30.00" fill="#000000" text-anchor="middle" font-family="sans-serif" font-size="20.00px" font-weight="bold">Heatmap Gallery</text>
<g transform="translate(25, 60)"><text x="400.00" y="0.00" fill="#666" text-anchor="middle" font-family="sans-serif" font-size="14.00px" font-weight="bold">Linear Heatmap</text><g transform="translate(0, 25)"><g transform="translate(0, 0)"><rect x="0.00" y="8.00" width="24.03" height="24.03" rx="2.00" ry="2.00" fill="#98e5fe"/>
<rect x="25.03" y="8.00" width="24.03" height="24.03" rx="2.00" ry="2.00" fill="#84dafd"/>
<rect x="50.07" y="8.00" width="24.03" height="24.03" rx="2.00" ry="2.00" fill="#70cffc"/>
<rect x="75.10" y="8.00" width="24.03" height="24.03" rx="2.00" ry="2.00" fill="#5ec3fc"/>
<rect x="100.13" y="8.00" width="24.03" height="24.03" rx="2.00" ry="2.00" fill="#4fb6fb"/>
<rect x="125.17" y="8.00" width="24.03" height="24.03" rx="2.00" ry="2.00" fill="#3fa4fa"/>
<rect x="150.20" y="8.00" width="24.03" height="24.03" rx="2.00" ry="2.00" fill="#3a96f8"/>
<rect x="175.23" y="8.00" width="24.03" height="24.03" rx="2.00" ry="2.00" fill="#91e1fe"/>
<rect x="200.27" y="8.00" width="24.03" height="24.03" rx="2.00" ry="2.00" fill="#7dd6fd"/>
<rect x="225.30" y="8.00" width="24.03" height="24.03" rx="2.00" ry="2.00" fill="#6acbfc"/>
<rect x="250.33" y="8.00" width="24.03" height="24.03" rx="2.00" ry="2.00" fill="#54bafb"/>
<rect x="275.37" y="8.00" width="24.03" height="24.03" rx="2.00" ry="2.00" fill="#46adfb"/>
<rect x="300.40" y="8.00" width="24.03" height="24.03" rx="2.00" ry="2.00" fill="#3da0f9"/>
<rect x="325.43" y="8.00" width="24.03" height="24.03" rx="2.00" ry="2.00" fill="#3991f8"/>
<rect x="350.47" y="8.00" width="24.03" height="24.03" rx="2.00" ry="2.00" fill="#8bdefe"/>
<rect x="375.50" y="8.00" width="24.03" height="24.03" rx="2.00" ry="2.00" fill="#70cffc"/>
<rect x="400.53" y="8.00" width="24.03" height="24.03" rx="2.00" ry="2.00" fill="#5ec3fc"/>
<rect x="425.57" y="8.00" width="24.03" height="24.03" rx="2.00" ry="2.00" fill="#4fb6fb"/>
<rect x="450.60" y="8.00" width="24.03" height="24.03" rx="2.00" ry="2.00" fill="#43a9fa"/>
<rect x="475.63" y="8.00" width="24.03" height="24.03" rx="2.00" ry="2.00" fill="#3b9bf9"/>
<rect x="500.67" y="8.00" width="24.03" height="24.03" rx="2.00" ry="2.00" fill="#3a87f6"/>
<rect x="525.70" y="8.00" width="24.03" height="24.03" rx="2.00" ry="2.00" fill="#7dd6fd"/>
<rect x="550.73" y="8.00" width="24.03" height="24.03" rx="2.00" ry="2.00" fill="#6acbfc"/>
<rect x="575.77" y="8.00" width="24.03" height="24.03" rx="2.00" ry="2.00" fill="#59bffc"/>
<rect x="600.80" y="8.00" width="24.03" height="24.03" rx="2.00" ry="2.00" fill="#4ab2fb"/>
<rect x="625.83" y="8.00" width="24.03" height="24.03" rx="2.00" ry="2.00" fill="#3da0f9"/>
<rect x="650.87" y="8.00" width="24.03" height="24.03" rx="2.00" ry="2.00" fill="#3991f8"/>
<rect x="675.90" y="8.00" width="24.03" height="24.03" rx="2.00" ry="2.00" fill="#3b82f5"/>
<rect x="700.93" y="8.00" width="24.03" height="24.03" rx="2.00" ry="2.00" fill="#77d3fd"/>
<rect x="725.97" y="8.00" width="24.03" height="24.03" rx="2.00" ry="2.00" fill="#64c7fc"/>
</g></g></g>
<g transform="translate(25, 270)"><text x="400.00" y="0.00" fill="#666" text-anchor="middle" font-family="sans-serif" font-size="14.00px" font-weight="bold">Weeks Heatmap (GitHub Style)</text><g transform="translate(0, 25)"><g transform="translate(0, 0)"><g transform="translate(30.0, 41.0)"><rect x="0.00" y="0.00" width="12.58" height="12.58" rx="2.00" ry="2.00" fill="#7ffecd"/>
<rect x="0.00" y="12.58" width="12.58" height="12.58" rx="2.00" ry="2.00" fill="#7ffecd"/>
<rect x="0.00" y="25.17" width="12.58" height="12.58" rx="2.00" ry="2.00" fill="#74f5c2"/>
<rect x="0.00" y="37.75" width="12.58" height="12.58" rx="2.00" ry="2.00" fill="#69ecb8"/>
<rect x="0.00" y="50.34" width="12.58" height="12.58" rx="2.00" ry="2.00" fill="#5de3ae"/>
<rect x="0.00" y="62.92" width="12.58" height="12.58" rx="2.00" ry="2.00" fill="#50daa4"/>
<rect x="0.00" y="75.51" width="12.58" height="12.58" rx="2.00" ry="2.00" fill="#3ecd97"/>
<rect x="13.58" y="0.00" width="12.58" height="12.58" rx="2.00" ry="2.00" fill="#2ec48d"/>
<rect x="13.58" y="12.58" width="12.58" height="12.58" rx="2.00" ry="2.00" fill="#7cfbc9"/>
<rect x="13.58" y="25.17" width="12.58" height="12.58" rx="2.00" ry="2.00" fill="#70f2bf"/>
<rect x="13.58" y="37.75" width="12.58" height="12.58" rx="2.00" ry="2.00" fill="#65e9b5"/>
<rect x="13.58" y="50.34" width="12.58" height="12.58" rx="2.00" ry="2.00" fill="#54dda8"/>
<rect x="13.58" y="62.92" width="12.58" height="12.58" rx="2.00" ry="2.00" fill="#47d49e"/>
<rect x="13.58" y="75.51" width="12.58" height="12.58" rx="2.00" ry="2.00" fill="#39ca94"/>
<rect x="27.17" y="0.00" width="12.58" height="12.58" rx="2.00" ry="2.00" fill="#28c18a"/>
<rect x="27.17" y="12.58" width="12.58" height="12.58" rx="2.00" ry="2.00" fill="#78f8c6"/>
<rect x="27.17" y="25.17" width="12.58" height="12.58" rx="2.00" ry="2.00" fill="#69ecb8"/>
<rect x="27.17" y="37.75" width="12.58" height="12.58" rx="2.00" ry="2.00" fill="#5de3ae"/>
<rect x="27.17" y="50.34" width="12.58" height="12.58" rx="2.00" ry="2.00" fill="#50daa4"/>
<rect x="27.17" y="62.92" width="12.58" height="12.58" rx="2.00" ry="2.00" fill="#43d09a"/>
<rect x="27.17" y="75.51" width="12.58" height="12.58" rx="2.00" ry="2.00" fill="#34c791"/>
<rect x="40.75" y="0.00" width="12.58" height="12.58" rx="2.00" ry="2.00" fill="#1abb84"/>
<rect x="40.75" y="12.58" width="12.58" height="12.58" rx="2.00" ry="2.00" fill="#70f2bf"/>
<rect x="40.75" y="25.17" width="12.58" height="12.58" rx="2.00" ry="2.00" fill="#65e9b5"/>
<rect x="40.75" y="37.75" width="12.58" height="12.58" rx="2.00" ry="2.00" fill="#59e0ab"/>
<rect x="40.75" y="50.34" width="12.58" height="12.58" rx="2.00" ry="2.00" fill="#4cd7a1"/>
<rect x="40.75" y="62.92" width="12.58" height="12.58" rx="2.00" ry="2.00" fill="#39ca94"/>
<rect x="40.75" y="75.51" width="12.58" height="12.58" rx="2.00" ry="2.00" fill="#28c18a"/>
<rect x="54.34" y="0.00" width="12.58" height="12.58" rx="2.00" ry="2.00" fill="#10b880"/>
<rect x="54.34" y="12.58" width="12.58" height="12.58" rx="2.00" ry="2.00" fill="#6cefbc"/>
<rect x="54.34" y="25.17" width="12.58" height="12.58" rx="2.00" ry="2.00" fill="#61e6b2"/>
<rect x="54.34" y="37.75" width="12.58" height="12.58" rx="2.00" ry="2.00" fill="#69ecb8"/>
<rect x="54.34" y="50.34" width="12.58" height="12.58" rx="2.00" ry="2.00" fill="#5de3ae"/>
<rect x="54.34" y="62.92" width="12.58" height="12.58" rx="2.00" ry="2.00" fill="#50daa4"/>
<rect x="54.34" y="75.51" width="12.58" height="12.58" rx="2.00" ry="2.00" fill="#43d09a"/>
<rect x="67.92" y="0.00" width="12.58" height="12.58" rx="2.00" ry="2.00" fill="#34c791"/>
<rect x="67.92" y="12.58" width="12.58" height="12.58" rx="2.00" ry="2.00" fill="#7cfbc9"/>
<rect x="67.92" y="25.17" width="12.58" height="12.58" rx="2.00" ry="2.00" fill="#70f2bf"/>
<rect x="67.92" y="37.75" width="12.58" height="12.58" rx="2.00" ry="2.00" fill="#65e9b5"/>
<rect x="67.92" y="50.34" width="12.58" height="12.58" rx="2.00" ry="2.00" fill="#59e0ab"/>
<rect x="67.92" y="62.92" width="12.58" height="12.58" rx="2.00" ry="2.00" fill="#4cd7a1"/>
<rect x="67.92" y="75.51" width="12.58" height="12.58" rx="2.00" ry="2.00" fill="#39ca94"/>
<rect x="81.51" y="0.00" width="12.58" height="12.58" rx="2.00" ry="2.00" fill="#28c18a"/>
<rect x="81.51" y="12.58" width="12.58" height="12.58" rx="2.00" ry="2.00" fill="#78f8c6"/>
<rect x="81.51" y="25.17" width="12.58" height="12.58" rx="2.00" ry="2.00" fill="#6cefbc"/>
<rect x="81.51" y="37.75" width="12.58" height="12.58" rx="2.00" ry="2.00" fill="#61e6b2"/>
<rect x="81.51" y="50.34" width="12.58" height="12.58" rx="2.00" ry="2.00" fill="#50daa4"/>
<rect x="81.51" y="62.92" width="12.58" height="12.58" rx="2.00" ry="2.00" fill="#43d09a"/>
<rect x="81.51" y="75.51" width="12.58" height="12.58" rx="2.00" ry="2.00" fill="#34c791"/>
<rect x="95.09" y="0.00" width="12.58" height="12.58" rx="2.00" ry="2.00" fill="#22be87"/>
<rect x="95.09" y="12.58" width="12.58" height="12.58" rx="2.00" ry="2.00" fill="#74f5c2"/>
<rect x="95.09" y="25.17" width="12.58" height="12.58" rx="2.00" ry="2.00" fill="#65e9b5"/>
<rect x="95.09" y="37.75" width="12.58" height="12.58" rx="2.00" ry="2.00" fill="#59e0ab"/>
<rect x="95.09" y="50.34" width="12.58" height="12.58" rx="2.00" ry="2.00" fill="#4cd7a1"/>
<rect x="95.09" y="62.92" width="12.58" height="12.58" rx="2.00" ry="2.00" fill="#3ecd97"/>
<rect x="95.09" y="75.51" width="12.58" height="12.58" rx="2.00" ry="2.00" fill="#2ec48d"/>
<rect x="108.68" y="0.00" width="12.58" height="12.58" rx="2.00" ry="2.00" fill="#10b880"/>
<rect x="108.68" y="12.58" width="12.58" height="12.58" rx="2.00" ry="2.00" fill="#6cefbc"/>
<rect x="108.68" y="25.17" width="12.58" height="12.58" rx="2.00" ry="2.00" fill="#61e6b2"/>
<rect x="108.68" y="37.75" width="12.58" height="12.58" rx="2.00" ry="2.00" fill="#54dda8"/>
<rect x="108.68" y="50.34" width="12.58" height="12.58" rx="2.00" ry="2.00" fill="#47d49e"/>
<rect x="108.68" y="62.92" width="12.58" height="12.58" rx="2.00" ry="2.00" fill="#50daa4"/>
<rect x="108.68" y="75.51" width="12.58" height="12.58" rx="2.00" ry="2.00" fill="#43d09a"/>
<rect x="122.26" y="0.00" width="12.58" height="12.58" rx="2.00" ry="2.00" fill="#34c791"/>
<rect x="122.26" y="12.58" width="12.58" height="12.58" rx="2.00" ry="2.00" fill="#7ffecd"/>
<rect x="122.26" y="25.17" width="12.58" height="12.58" rx="2.00" ry="2.00" fill="#74f5c2"/>
<rect x="122.26" y="37.75" width="12.58" height="12.58" rx="2.00" ry="2.00" fill="#65e9b5"/>
<rect x="122.26" y="50.34" width="12.58" height="12.58" rx="2.00" ry="2.00" fill="#59e0ab"/>
<rect x="122.26" y="62.92" width="12.58" height="12.58" rx="2.00" ry="2.00" fill="#4cd7a1"/>
<rect x="122.26" y="75.51" width="12.58" height="12.58" rx="2.00" ry="2.00" fill="#3ecd97"/>
<rect x="135.85" y="0.00" width="12.58" height="12.58" rx="2.00" ry="2.00" fill="#2ec48d"/>
<rect x="135.85" y="12.58" width="12.58" height="12.58" rx="2.00" ry="2.00" fill="#78f8c6"/>
<rect x="135.85" y="25.17" width="12.58" height="12.58" rx="2.00" ry="2.00" fill="#6cefbc"/>
<rect x="135.85" y="37.75" width="12.58" height="12.58" rx="2.00" ry="2.00" fill="#61e6b2"/>
<rect x="135.85" y="50.34" width="12.58" height="12.58" rx="2.00" ry="2.00" fill="#54dda8"/>
<rect x="135.85" y="62.92" width="12.58" height="12.58" rx="2.00" ry="2.00" fill="#47d49e"/>
<rect x="135.85" y="75.51" width="12.58" height="12.58" rx="2.00" ry="2.00" fill="#34c791"/>
<rect x="149.43" y="0.00" width="12.58" height="12.58" rx="2.00" ry="2.00" fill="#22be87"/>
<rect x="149.43" y="12.58" width="12.58" height="12.58" rx="2.00" ry="2.00" fill="#74f5c2"/>
<rect x="149.43" y="25.17" width="12.58" height="12.58" rx="2.00" ry="2.00" fill="#69ecb8"/>
<rect x="149.43" y="37.75" width="12.58" height="12.58" rx="2.00" ry="2.00" fill="#5de3ae"/>
<rect x="149.43" y="50.34" width="12.58" height="12.58" rx="2.00" ry="2.00" fill="#4cd7a1"/>
<rect x="149.43" y="62.92" width="12.58" height="12.58" rx="2.00" ry="2.00" fill="#3ecd97"/>
<rect x="149.43" y="75.51" width="12.58" height="12.58" rx="2.00" ry="2.00" fill="#2ec48d"/>
<rect x="163.02" y="0.00" width="12.58" height="12.58" rx="2.00" ry="2.00" fill="#1abb84"/>
<rect x="163.02" y="12.58" width="12.58" height="12.58" rx="2.00" ry="2.00" fill="#70f2bf"/>
<rect x="163.02" y="25.17" width="12.58" height="12.58" rx="2.00" ry="2.00" fill="#61e6b2"/>
<rect x="163.02" y="37.75" width="12.58" height="12.58" rx="2.00" ry="2.00" fill="#54dda8"/>
<rect x="163.02" y="50.34" width="12.58" height="12.58" rx="2.00" ry="2.00" fill="#47d49e"/>
<rect x="163.02" y="62.92" width="12.58" height="12.58" rx="2.00" ry="2.00" fill="#39ca94"/>
<rect x="163.02" y="75.51" width="12.58" height="12.58" rx="2.00" ry="2.00" fill="#28c18a"/>
<rect x="176.60" y="0.00" width="12.58" height="12.58" rx="2.00" ry="2.00" fill="#34c791"/>
<rect x="176.60" y="12.58" width="12.58" height="12.58" rx="2.00" ry="2.00" fill="#7ffecd"/>
<rect x="176.60" y="25.17" width="12.58" height="12.58" rx="2.00" ry="2.00" fill="#74f5c2"/>
<rect x="176.60" y="37.75" width="12.58" height="12.58" rx="2.00" ry="2.00" fill="#69ecb8"/>
<rect x="176.60" y="50.34" width="12.58" height="12.58" rx="2.00" ry="2.00" fill="#5de3ae"/>
<rect x="176.60" y="62.92" width="12.58" height="12.58" rx="2.00" ry="2.00" fill="#4cd7a1"/>
<rect x="176.60" y="75.51" width="12.58" height="12.58" rx="2.00" ry="2.00" fill="#3ecd97"/>
<rect x="190.19" y="0.00" width="12.58" height="12.58" rx="2.00" ry="2.00" fill="#2ec48d"/>
<rect x="190.19" y="12.58" width="12.58" height="12.58" rx="2.00" ry="2.00" fill="#7cfbc9"/>
<rect x="190.19" y="25.17" width="12.58" height="12.58" rx="2.00" ry="2.00" fill="#70f2bf"/>
<rect x="190.19" y="37.75" width="12.58" height="12.58" rx="2.00" ry="2.00" fill="#61e6b2"/>
<rect x="190.19" y="50.34" width="12.58" height="12.58" rx="2.00" ry="2.00" fill="#54dda8"/>
<rect x="190.19" y="62.92" width="12.58" height="12.58" rx="2.00" ry="2.00" fill="#47d49e"/>
<rect x="190.19" y="75.51" width="12.58" height="12.58" rx="2.00" ry="2.00" fill="#39ca94"/>
<rect x="203.77" y="0.00" width="12.58" height="12.58" rx="2.00" ry="2.00" fill="#28c18a"/>
<rect x="203.77" y="12.58" width="12.58" height="12.58" rx="2.00" ry="2.00" fill="#74f5c2"/>
<rect x="203.77" y="25.17" width="12.58" height="12.58" rx="2.00" ry="2.00" fill="#69ecb8"/>
<rect x="203.77" y="37.75" width="12.58" height="12.58" rx="2.00" ry="2.00" fill="#5de3ae"/>
<rect x="203.77" y="50.34" width="12.58" height="12.58" rx="2.00" ry="2.00" fill="#50daa4"/>
<rect x="203.77" y="62.92" width="12.58" height="12.58" rx="2.00" ry="2.00" fill="#43d09a"/>
<rect x="203.77" y="75.51" width="12.58" height="12.58" rx="2.00" ry="2.00" fill="#2ec48d"/>
<rect x="217.36" y="0.00" width="12.58" height="12.58" rx="2.00" ry="2.00" fill="#1abb84"/>
<rect x="217.36" y="12.58" width="12.58" height="12.58" rx="2.00" ry="2.00" fill="#70f2bf"/>
<rect x="217.36" y="25.17" width="12.58" height="12.58" rx="2.00" ry="2.00" fill="#65e9b5"/>
<rect x="217.36" y="37.75" width="12.58" height="12.58" rx="2.00" ry="2.00" fill="#59e0ab"/>
<rect x="217.36" y="50.34" width="12.58" height="12.58" rx="2.00" ry="2.00" fill="#47d49e"/>
<rect x="217.36" y="62.92" width="12.58" height="12.58" rx="2.00" ry="2.00" fill="#39ca94"/>
<rect x="217.36" y="75.51" width="12.58" height="12.58" rx="2.00" ry="2.00" fill="#28c18a"/>
<rect x="230.94" y="0.00" width="12.58" height="12.58" rx="2.00" ry="2.00" fill="#10b880"/>
<rect x="230.94" y="12.58" width="12.58" height="12.58" rx="2.00" ry="2.00" fill="#6cefbc"/>
<rect x="230.94" y="25.17" width="12.58" height="12.58" rx="2.00" ry="2.00" fill="#74f5c2"/>
<rect x="230.94" y="37.75" width="12.58" height="12.58" rx="2.00" ry="2.00" fill="#69ecb8"/>
<rect x="230.94" y="50.34" width="12.58" height="12.58" rx="2.00" ry="2.00" fill="#5de3ae"/>
<rect x="230.94" y="62.92" width="12.58" height="12.58" rx="2.00" ry="2.00" fill="#50daa4"/>
<rect x="230.94" y="75.51" width="12.58" height="12.58" rx="2.00" ry="2.00" fill="#43d09a"/>
<rect x="244.53" y="0.00" width="12.58" height="12.58" rx="2.00" ry="2.00" fill="#2ec48d"/>
<rect x="244.53" y="12.58" width="12.58" height="12.58" rx="2.00" ry="2.00" fill="#7cfbc9"/>
<rect x="244.53" y="25.17" width="12.58" height="12.58" rx="2.00" ry="2.00" fill="#70f2bf"/>
<rect x="244.53" y="37.75" width="12.58" height="12.58" rx="2.00" ry="2.00" fill="#65e9b5"/>
<rect x="244.53" y="50.34" width="12.58" height="12.58" rx="2.00" ry="2.00" fill="#59e0ab"/>
<rect x="244.53" y="62.92" width="12.58" height="12.58" rx="2.00" ry="2.00" fill="#47d49e"/>
<rect x="244.53" y="75.51" width="12.58" height="12.58" rx="2.00" ry="2.00" fill="#39ca94"/>
<rect x="258.11" y="0.00" width="12.58" height="12.58" rx="2.00" ry="2.00" fill="#28c18a"/>
<rect x="258.11" y="12.58" width="12.58" height="12.58" rx="2.00" ry="2.00" fill="#78f8c6"/>
<rect x="258.11" y="25.17" width="12.58" height="12.58" rx="2.00" ry="2.00" fill="#6cefbc"/>
<rect x="258.11" y="37.75" width="12.58" height="12.58" rx="2.00" ry="2.00" fill="#5de3ae"/>
<rect x="258.11" y="50.34" width="12.58" height="12.58" rx="2.00" ry="2.00" fill="#50daa4"/>
<rect x="258.11" y="62.92" width="12.58" height="12.58" rx="2.00" ry="2.00" fill="#43d09a"/>
<rect x="258.11" y="75.51" width="12.58" height="12.58" rx="2.00" ry="2.00" fill="#34c791"/>
<rect x="271.70" y="0.00" width="12.58" height="12.58" rx="2.00" ry="2.00" fill="#22be87"/>
<rect x="271.70" y="12.58" width="12.58" height="12.58" rx="2.00" ry="2.00" fill="#70f2bf"/>
<rect x="271.70" y="25.17" width="12.58" height="12.58" rx="2.00" ry="2.00" fill="#65e9b5"/>
<rect x="271.70" y="37.75" width="12.58" height="12.58" rx="2.00" ry="2.00" fill="#59e0ab"/>
<rect x="271.70" y="50.34" width="12.58" height="12.58" rx="2.00" ry="2.00" fill="#4cd7a1"/>
<rect x="271.70" y="62.92" width="12.58" height="12.58" rx="2.00" ry="2.00" fill="#3ecd97"/>
<rect x="271.70" y="75.51" width="12.58" height="12.58" rx="2.00" ry="2.00" fill="#28c18a"/>
<rect x="285.28" y="0.00" width="12.58" height="12.58" rx="2.00" ry="2.00" fill="#10b880"/>
<rect x="285.28" y="12.58" width="12.58" height="12.58" rx="2.00" ry="2.00" fill="#6cefbc"/>
<rect x="285.28" y="25.17" width="12.58" height="12.58" rx="2.00" ry="2.00" fill="#61e6b2"/>
<rect x="285.28" y="37.75" width="12.58" height="12.58" rx="2.00" ry="2.00" fill="#54dda8"/>
<rect x="285.28" y="50.34" width="12.58" height="12.58" rx="2.00" ry="2.00" fill="#5de3ae"/>
<rect x="285.28" y="62.92" width="12.58" height="12.58" rx="2.00" ry="2.00" fill="#50daa4"/>
<rect x="285.28" y="75.51" width="12.58" height="12.58" rx="2.00" ry="2.00" fill="#43d09a"/>
<rect x="298.87" y="0.00" width="12.58" height="12.58" rx="2.00" ry="2.00" fill="#34c791"/>
<rect x="298.87" y="12.58" width="12.58" height="12.58" rx="2.00" ry="2.00" fill="#7ffecd"/>
<rect x="298.87" y="25.17" width="12.58" height="12.58" rx="2.00" ry="2.00" fill="#70f2bf"/>
<rect x="298.87" y="37.75" width="12.58" height="12.58" rx="2.00" ry="2.00" fill="#65e9b5"/>
<rect x="298.87" y="50.34" width="12.58" height="12.58" rx="2.00" ry="2.00" fill="#59e0ab"/>
<rect x="298.87" y="62.92" width="12.58" height="12.58" rx="2.00" ry="2.00" fill="#4cd7a1"/>
<rect x="298.87" y="75.51" width="12.58" height="12.58" rx="2.00" ry="2.00" fill="#3ecd97"/>
<rect x="312.45" y="0.00" width="12.58" height="12.58" rx="2.00" ry="2.00" fill="#28c18a"/>
<rect x="312.45" y="12.58" width="12.58" height="12.58" rx="2.00" ry="2.00" fill="#78f8c6"/>
<rect x="312.45" y="25.17" width="12.58" height="12.58" rx="2.00" ry="2.00" fill="#6cefbc"/>
<rect x="312.45" y="37.75" width="12.58" height="12.58" rx="2.00" ry="2.00" fill="#61e6b2"/>
<rect x="312.45" y="50.34" width="12.58" height="12.58" rx="2.00" ry="2.00" fill="#54dda8"/>
<rect x="312.45" y="62.92" width="12.58" height="12.58" rx="2.00" ry="2.00" fill="#43d09a"/>
<rect x="312.45" y="75.51" width="12.58" height="12.58" rx="2.00" ry="2.00" fill="#34c791"/>
<rect x="326.04" y="0.00" width="12.58" height="12.58" rx="2.00" ry="2.00" fill="#22be87"/>
<rect x="326.04" y="12.58" width="12.58" height="12.58" rx="2.00" ry="2.00" fill="#74f5c2"/>
<rect x="326.04" y="25.17" width="12.58" height="12.58" rx="2.00" ry="2.00" fill="#69ecb8"/>
<rect x="326.04" y="37.75" width="12.58" height="12.58" rx="2.00" ry="2.00" fill="#59e0ab"/>
<rect x="326.04" y="50.34" width="12.58" height="12.58" rx="2.00" ry="2.00" fill="#4cd7a1"/>
<rect x="326.04" y="62.92" width="12.58" height="12.58" rx="2.00" ry="2.00" fill="#3ecd97"/>
<rect x="326.04" y="75.51" width="12.58" height="12.58" rx="2.00" ry="2.00" fill="#2ec48d"/>
<rect x="339.62" y="0.00" width="12.58" height="12.58" rx="2.00" ry="2.00" fill="#1abb84"/>
<rect x="339.62" y="12.58" width="12.58" height="12.58" rx="2.00" ry="2.00" fill="#6cefbc"/>
<rect x="339.62" y="25.17" width="12.58" height="12.58" rx="2.00" ry="2.00" fill="#61e6b2"/>
<rect x="339.62" y="37.75" width="12.58" height="12.58" rx="2.00" ry="2.00" fill="#54dda8"/>
<rect x="339.62" y="50.34" width="12.58" height="12.58" rx="2.00" ry="2.00" fill="#47d49e"/>
<rect x="339.62" y="62.92" width="12.58" height="12.58" rx="2.00" ry="2.00" fill="#39ca94"/>
<rect x="339.62" y="75.51" width="12.58" height="12.58" rx="2.00" ry="2.00" fill="#43d09a"/>
<rect x="353.21" y="0.00" width="12.58" height="12.58" rx="2.00" ry="2.00" fill="#34c791"/>
<rect x="353.21" y="12.58" width="12.58" height="12.58" rx="2.00" ry="2.00" fill="#7ffecd"/>
<rect x="353.21" y="25.17" width="12.58" height="12.58" rx="2.00" ry="2.00" fill="#74f5c2"/>
<rect x="353.21" y="37.75" width="12.58" height="12.58" rx="2.00" ry="2.00" fill="#69ecb8"/>
<rect x="353.21" y="50.34" width="12.58" height="12.58" rx="2.00" ry="2.00" fill="#59e0ab"/>
<rect x="353.21" y="62.92" width="12.58" height="12.58" rx="2.00" ry="2.00" fill="#4cd7a1"/>
<rect x="353.21" y="75.51" width="12.58" height="12.58" rx="2.00" ry="2.00" fill="#3ecd97"/>
<rect x="366.79" y="0.00" width="12.58" height="12.58" rx="2.00" ry="2.00" fill="#2ec48d"/>
<rect x="366.79" y="12.58" width="12.58" height="12.58" rx="2.00" ry="2.00" fill="#7cfbc9"/>
<rect x="366.79" y="25.17" width="12.58" height="12.58" rx="2.00" ry="2.00" fill="#6cefbc"/>
<rect x="366.79" y="37.75" width="12.58" height="12.58" rx="2.00" ry="2.00" fill="#61e6b2"/>
<rect x="366.79" y="50.34" width="12.58" height="12.58" rx="2.00" ry="2.00" fill="#54dda8"/>
<rect x="366.79" y="62.92" width="12.58" height="12.58" rx="2.00" ry="2.00" fill="#47d49e"/>
<rect x="366.79" y="75.51" width="12.58" height="12.58" rx="2.00" ry="2.00" fill="#39ca94"/>
<rect x="380.38" y="0.00" width="12.58" height="12.58" rx="2.00" ry="2.00" fill="#22be87"/>
<rect x="380.38" y="12.58" width="12.58" height="12.58" rx="2.00" ry="2.00" fill="#74f5c2"/>
<rect x="380.38" y="25.17" width="12.58" height="12.58" rx="2.00" ry="2.00" fill="#69ecb8"/>
<rect x="380.38" y="37.75" width="12.58" height="12.58" rx="2.00" ry="2.00" fill="#5de3ae"/>
<rect x="380.38" y="50.34" width="12.58" height="12.58" rx="2.00" ry="2.00" fill="#50daa4"/>
<rect x="380.38" y="62.92" width="12.58" height="12.58" rx="2.00" ry="2.00" fill="#3ecd97"/>
<rect x="380.38" y="75.51" width="12.58" height="12.58" rx="2.00" ry="2.00" fill="#2ec48d"/>
<rect x="393.96" y="0.00" width="12.58" height="12.58" rx="2.00" ry="2.00" fill="#1abb84"/>
<rect x="393.96" y="12.58" width="12.58" height="12.58" rx="2.00" ry="2.00" fill="#70f2bf"/>
<rect x="393.96" y="25.17" width="12.58" height="12.58" rx="2.00" ry="2.00" fill="#65e9b5"/>
<rect x="393.96" y="37.75" width="12.58" height="12.58" rx="2.00" ry="2.00" fill="#54dda8"/>
<rect x="393.96" y="50.34" width="12.58" height="12.58" rx="2.00" ry="2.00" fill="#47d49e"/>
<rect x="393.96" y="62.92" width="12.58" height="12.58" rx="2.00" ry="2.00" fill="#39ca94"/>
<rect x="393.96" y="75.51" width="12.58" height="12.58" rx="2.00" ry="2.00" fill="#28c18a"/>
<rect x="407.55" y="0.00" width="12.58" height="12.58" rx="2.00" ry="2.00" fill="#10b880"/>
<rect x="407.55" y="12.58" width="12.58" height="12.58" rx="2.00" ry="2.00" fill="#7ffecd"/>
<rect x="407.55" y="25.17" width="12.58" height="12.58" rx="2.00" ry="2.00" fill="#74f5c2"/>
<rect x="407.55" y="37.75" width="12.58" height="12.58" rx="2.00" ry="2.00" fill="#69ecb8"/>
<rect x="407.55" y="50.34" width="12.58" height="12.58" rx="2.00" ry="2.00" fill="#5de3ae"/>
<rect x="407.55" y="62.92" width="12.58" height="12.58" rx="2.00" ry="2.00" fill="#50daa4"/>
<rect x="407.55" y="75.51" width="12.58" height="12.58" rx="2.00" ry="2.00" fill="#3ecd97"/>
<rect x="421.13" y="0.00" width="12.58" height="12.58" rx="2.00" ry="2.00" fill="#2ec48d"/>
<rect x="421.13" y="12.58" width="12.58" height="12.58" rx="2.00" ry="2.00" fill="#7cfbc9"/>
<rect x="421.13" y="25.17" width="12.58" height="12.58" rx="2.00" ry="2.00" fill="#70f2bf"/>
<rect x="421.13" y="37.75" width="12.58" height="12.58" rx="2.00" ry="2.00" fill="#65e9b5"/>
<rect x="421.13" y="50.34" width="12.58" height="12.58" rx="2.00" ry="2.00" fill="#54dda8"/>
<rect x="421.13" y="62.92" width="12.58" height="12.58" rx="2.00" ry="2.00" fill="#47d49e"/>
<rect x="421.13" y="75.51" width="12.58" height="12.58" rx="2.00" ry="2.00" fill="#39ca94"/>
<rect x="434.72" y="0.00" width="12.58" height="12.58" rx="2.00" ry="2.00" fill="#28c18a"/>
<rect x="434.72" y="12.58" width="12.58" height="12.58" rx="2.00" ry="2.00" fill="#78f8c6"/>
<rect x="434.72" y="25.17" width="12.58" height="12.58" rx="2.00" ry="2.00" fill="#69ecb8"/>
<rect x="434.72" y="37.75" width="12.58" height="12.58" rx="2.00" ry="2.00" fill="#5de3ae"/>
<rect x="434.72" y="50.34" width="12.58" height="12.58" rx="2.00" ry="2.00" fill="#50daa4"/>
<rect x="434.72" y="62.92" width="12.58" height="12.58" rx="2.00" ry="2.00" fill="#43d09a"/>
<rect x="434.72" y="75.51" width="12.58" height="12.58" rx="2.00" ry="2.00" fill="#34c791"/>
<rect x="448.30" y="0.00" width="12.58" height="12.58" rx="2.00" ry="2.00" fill="#1abb84"/>
<rect x="448.30" y="12.58" width="12.58" height="12.58" rx="2.00" ry="2.00" fill="#70f2bf"/>
<rect x="448.30" y="25.17" width="12.58" height="12.58" rx="2.00" ry="2.00" fill="#65e9b5"/>
<rect x="448.30" y="37.75" width="12.58" height="12.58" rx="2.00" ry="2.00" fill="#59e0ab"/>
<rect x="448.30" y="50.34" width="12.58" height="12.58" rx="2.00" ry="2.00" fill="#4cd7a1"/>
<rect x="448.30" y="62.92" width="12.58" height="12.58" rx="2.00" ry="2.00" fill="#39ca94"/>
<rect x="448.30" y="75.51" width="12.58" height="12.58" rx="2.00" ry="2.00" fill="#28c18a"/>
<rect x="461.89" y="0.00" width="12.58" height="12.58" rx="2.00" ry="2.00" fill="#10b880"/>
<rect x="461.89" y="12.58" width="12.58" height="12.58" rx="2.00" ry="2.00" fill="#6cefbc"/>
<rect x="461.89" y="25.17" width="12.58" height="12.58" rx="2.00" ry="2.00" fill="#61e6b2"/>
<rect x="461.89" y="37.75" width="12.58" height="12.58" rx="2.00" ry="2.00" fill="#69ecb8"/>
<rect x="461.89" y="50.34" width="12.58" height="12.58" rx="2.00" ry="2.00" fill="#5de3ae"/>
<rect x="461.89" y="62.92" width="12.58" height="12.58" rx="2.00" ry="2.00" fill="#50daa4"/>
<rect x="461.89" y="75.51" width="12.58" height="12.58" rx="2.00" ry="2.00" fill="#43d09a"/>
<rect x="475.47" y="0.00" width="12.58" height="12.58" rx="2.00" ry="2.00" fill="#34c791"/>
<rect x="475.47" y="12.58" width="12.58" height="12.58" rx="2.00" ry="2.00" fill="#7cfbc9"/>
<rect x="475.47" y="25.17" width="12.58" height="12.58" rx="2.00" ry="2.00" fill="#70f2bf"/>
<rect x="475.47" y="37.75" width="12.58" height="12.58" rx="2.00" ry="2.00" fill="#65e9b5"/>
<rect x="475.47" y="50.34" width="12.58" height="12.58" rx="2.00" ry="2.00" fill="#59e0ab"/>
<rect x="475.47" y="62.92" width="12.58" height="12.58" rx="2.00" ry="2.00" fill="#4cd7a1"/>
<rect x="475.47" y="75.51" width="12.58" height="12.58" rx="2.00" ry="2.00" fill="#39ca94"/>
<rect x="489.06" y="0.00" width="12.58" height="12.58" rx="2.00" ry="2.00" fill="#28c18a"/>
<rect x="489.06" y="12.58" width="12.58" height="12.58" rx="2.00" ry="2.00" fill="#78f8c6"/>
<rect x="489.06" y="25.17" width="12.58" height="12.58" rx="2.00" ry="2.00" fill="#6cefbc"/>
<rect x="489.06" y="37.75" width="12.58" height="12.58" rx="2.00" ry="2.00" fill="#61e6b2"/>
<rect x="489.06" y="50.34" width="12.58" height="12.58" rx="2.00" ry="2.00" fill="#50daa4"/>
<rect x="489.06" y="62.92" width="12.58" height="12.58" rx="2.00" ry="2.00" fill="#43d09a"/>
<rect x="489.06" y="75.51" width="12.58" height="12.58" rx="2.00" ry="2.00" fill="#34c791"/>
<rect x="502.64" y="0.00" width="12.58" height="12.58" rx="2.00" ry="2.00" fill="#22be87"/>
<rect x="502.64" y="12.58" width="12.58" height="12.58" rx="2.00" ry="2.00" fill="#74f5c2"/>
<rect x="502.64" y="25.17" width="12.58" height="12.58" rx="2.00" ry="2.00" fill="#65e9b5"/>
<rect x="502.64" y="37.75" width="12.58" height="12.58" rx="2.00" ry="2.00" fill="#59e0ab"/>
<rect x="502.64" y="50.34" width="12.58" height="12.58" rx="2.00" ry="2.00" fill="#4cd7a1"/>
<rect x="502.64" y="62.92" width="12.58" height="12.58" rx="2.00" ry="2.00" fill="#3ecd97"/>
<rect x="502.64" y="75.51" width="12.58" height="12.58" rx="2.00" ry="2.00" fill="#2ec48d"/>
<rect x="516.23" y="0.00" width="12.58" height="12.58" rx="2.00" ry="2.00" fill="#10b880"/>
<rect x="516.23" y="12.58" width="12.58" height="12.58" rx="2.00" ry="2.00" fill="#6cefbc"/>
<rect x="516.23" y="25.17" width="12.58" height="12.58" rx="2.00" ry="2.00" fill="#61e6b2"/>
<rect x="516.23" y="37.75" width="12.58" height="12.58" rx="2.00" ry="2.00" fill="#54dda8"/>
<rect x="516.23" y="50.34" width="12.58" height="12.58" rx="2.00" ry="2.00" fill="#47d49e"/>
<rect x="516.23" y="62.92" width="12.58" height="12.58" rx="2.00" ry="2.00" fill="#50daa4"/>
<rect x="516.23" y="75.51" width="12.58" height="12.58" rx="2.00" ry="2.00" fill="#43d09a"/>
<rect x="529.81" y="0.00" width="12.58" height="12.58" rx="2.00" ry="2.00" fill="#34c791"/>
<rect x="529.81" y="12.58" width="12.58" height="12.58" rx="2.00" ry="2.00" fill="#7ffecd"/>
<rect x="529.81" y="25.17" width="12.58" height="12.58" rx="2.00" ry="2.00" fill="#74f5c2"/>
<rect x="529.81" y="37.75" width="12.58" height="12.58" rx="2.00" ry="2.00" fill="#65e9b5"/>
<rect x="529.81" y="50.34" width="12.58" height="12.58" rx="2.00" ry="2.00" fill="#59e0ab"/>
<rect x="529.81" y="62.92" width="12.58" height="12.58" rx="2.00" ry="2.00" fill="#4cd7a1"/>
<rect x="529.81" y="75.51" width="12.58" height="12.58" rx="2.00" ry="2.00" fill="#3ecd97"/>
<rect x="543.40" y="0.00" width="12.58" height="12.58" rx="2.00" ry="2.00" fill="#2ec48d"/>
<rect x="543.40" y="12.58" width="12.58" height="12.58" rx="2.00" ry="2.00" fill="#78f8c6"/>
<rect x="543.40" y="25.17" width="12.58" height="12.58" rx="2.00" ry="2.00" fill="#6cefbc"/>
<rect x="543.40" y="37.75" width="12.58" height="12.58" rx="2.00" ry="2.00" fill="#61e6b2"/>
<rect x="543.40" y="50.34" width="12.58" height="12.58" rx="2.00" ry="2.00" fill="#54dda8"/>
<rect x="543.40" y="62.92" width="12.58" height="12.58" rx="2.00" ry="2.00" fill="#47d49e"/>
<rect x="543.40" y="75.51" width="12.58" height="12.58" rx="2.00" ry="2.00" fill="#34c791"/>
<rect x="556.98" y="0.00" width="12.58" height="12.58" rx="2.00" ry="2.00" fill="#22be87"/>
<rect x="556.98" y="12.58" width="12.58" height="12.58" rx="2.00" ry="2.00" fill="#74f5c2"/>
<rect x="556.98" y="25.17" width="12.58" height="12.58" rx="2.00" ry="2.00" fill="#69ecb8"/>
<rect x="556.98" y="37.75" width="12.58" height="12.58" rx="2.00" ry="2.00" fill="#5de3ae"/>
<rect x="556.98" y="50.34" width="12.58" height="12.58" rx="2.00" ry="2.00" fill="#4cd7a1"/>
<rect x="556.98" y="62.92" width="12.58" height="12.58" rx="2.00" ry="2.00" fill="#3ecd97"/>
<rect x="556.98" y="75.51" width="12.58" height="12.58" rx="2.00" ry="2.00" fill="#2ec48d"/>
<rect x="570.57" y="0.00" width="12.58" height="12.58" rx="2.00" ry="2.00" fill="#1abb84"/>
<rect x="570.57" y="12.58" width="12.58" height="12.58" rx="2.00" ry="2.00" fill="#70f2bf"/>
<rect x="570.57" y="25.17" width="12.58" height="12.58" rx="2.00" ry="2.00" fill="#61e6b2"/>
<rect x="570.57" y="37.75" width="12.58" height="12.58" rx="2.00" ry="2.00" fill="#54dda8"/>
<rect x="570.57" y="50.34" width="12.58" height="12.58" rx="2.00" ry="2.00" fill="#47d49e"/>
<rect x="570.57" y="62.92" width="12.58" height="12.58" rx="2.00" ry="2.00" fill="#39ca94"/>
<rect x="570.57" y="75.51" width="12.58" height="12.58" rx="2.00" ry="2.00" fill="#28c18a"/>
<rect x="584.15" y="0.00" width="12.58" height="12.58" rx="2.00" ry="2.00" fill="#34c791"/>
<rect x="584.15" y="12.58" width="12.58" height="12.58" rx="2.00" ry="2.00" fill="#7ffecd"/>
<rect x="584.15" y="25.17" width="12.58" height="12.58" rx="2.00" ry="2.00" fill="#74f5c2"/>
<rect x="584.15" y="37.75" width="12.58" height="12.58" rx="2.00" ry="2.00" fill="#69ecb8"/>
<rect x="584.15" y="50.34" width="12.58" height="12.58" rx="2.00" ry="2.00" fill="#5de3ae"/>
<rect x="584.15" y="62.92" width="12.58" height="12.58" rx="2.00" ry="2.00" fill="#4cd7a1"/>
<rect x="584.15" y="75.51" width="12.58" height="12.58" rx="2.00" ry="2.00" fill="#3ecd97"/>
<rect x="597.74" y="0.00" width="12.58" height="12.58" rx="2.00" ry="2.00" fill="#2ec48d"/>
<rect x="597.74" y="12.58" width="12.58" height="12.58" rx="2.00" ry="2.00" fill="#7cfbc9"/>
<rect x="597.74" y="25.17" width="12.58" height="12.58" rx="2.00" ry="2.00" fill="#70f2bf"/>
<rect x="597.74" y="37.75" width="12.58" height="12.58" rx="2.00" ry="2.00" fill="#61e6b2"/>
<rect x="597.74" y="50.34" width="12.58" height="12.58" rx="2.00" ry="2.00" fill="#54dda8"/>
<rect x="597.74" y="62.92" width="12.58" height="12.58" rx="2.00" ry="2.00" fill="#47d49e"/>
<rect x="597.74" y="75.51" width="12.58" height="12.58" rx="2.00" ry="2.00" fill="#39ca94"/>
<rect x="611.32" y="0.00" width="12.58" height="12.58" rx="2.00" ry="2.00" fill="#28c18a"/>
<rect x="611.32" y="12.58" width="12.58" height="12.58" rx="2.00" ry="2.00" fill="#74f5c2"/>
<rect x="611.32" y="25.17" width="12.58" height="12.58" rx="2.00" ry="2.00" fill="#69ecb8"/>
<rect x="611.32" y="37.75" width="12.58" height="12.58" rx="2.00" ry="2.00" fill="#5de3ae"/>
<rect x="611.32" y="50.34" width="12.58" height="12.58" rx="2.00" ry="2.00" fill="#50daa4"/>
<rect x="611.32" y="62.92" width="12.58" height="12.58" rx="2.00" ry="2.00" fill="#43d09a"/>
<rect x="611.32" y="75.51" width="12.58" height="12.58" rx="2.00" ry="2.00" fill="#2ec48d"/>
<rect x="624.91" y="0.00" width="12.58" height="12.58" rx="2.00" ry="2.00" fill="#1abb84"/>
<rect x="624.91" y="12.58" width="12.58" height="12.58" rx="2.00" ry="2.00" fill="#70f2bf"/>
<rect x="624.91" y="25.17" width="12.58" height="12.58" rx="2.00" ry="2.00" fill="#65e9b5"/>
<rect x="624.91" y="37.75" width="12.58" height="12.58" rx="2.00" ry="2.00" fill="#59e0ab"/>
<rect x="624.91" y="50.34" width="12.58" height="12.58" rx="2.00" ry="2.00" fill="#47d49e"/>
<rect x="624.91" y="62.92" width="12.58" height="12.58" rx="2.00" ry="2.00" fill="#39ca94"/>
<rect x="624.91" y="75.51" width="12.58" height="12.58" rx="2.00" ry="2.00" fill="#28c18a"/>
<rect x="638.49" y="0.00" width="12.58" height="12.58" rx="2.00" ry="2.00" fill="#10b880"/>
<rect x="638.49" y="12.58" width="12.58" height="12.58" rx="2.00" ry="2.00" fill="#6cefbc"/>
<rect x="638.49" y="25.17" width="12.58" height="12.58" rx="2.00" ry="2.00" fill="#74f5c2"/>
<rect x="638.49" y="37.75" width="12.58" height="12.58" rx="2.00" ry="2.00" fill="#69ecb8"/>
<rect x="638.49" y="50.34" width="12.58" height="12.58" rx="2.00" ry="2.00" fill="#5de3ae"/>
<rect x="638.49" y="62.92" width="12.58" height="12.58" rx="2.00" ry="2.00" fill="#50daa4"/>
<rect x="638.49" y="75.51" width="12.58" height="12.58" rx="2.00" ry="2.00" fill="#43d09a"/>
<rect x="652.08" y="0.00" width="12.58" height="12.58" rx="2.00" ry="2.00" fill="#2ec48d"/>
<rect x="652.08" y="12.58" width="12.58" height="12.58" rx="2.00" ry="2.00" fill="#7cfbc9"/>
<rect x="652.08" y="25.17" width="12.58" height="12.58" rx="2.00" ry="2.00" fill="#70f2bf"/>
<rect x="652.08" y="37.75" width="12.58" height="12.58" rx="2.00" ry="2.00" fill="#65e9b5"/>
<rect x="652.08" y="50.34" width="12.58" height="12.58" rx="2.00" ry="2.00" fill="#59e0ab"/>
<rect x="652.08" y="62.92" width="12.58" height="12.58" rx="2.00" ry="2.00" fill="#47d49e"/>
<rect x="652.08" y="75.51" width="12.58" height="12.58" rx="2.00" ry="2.00" fill="#39ca94"/>
<rect x="665.66" y="0.00" width="12.58" height="12.58" rx="2.00" ry="2.00" fill="#28c18a"/>
<rect x="665.66" y="12.58" width="12.58" height="12.58" rx="2.00" ry="2.00" fill="#78f8c6"/>
<rect x="665.66" y="25.17" width="12.58" height="12.58" rx="2.00" ry="2.00" fill="#6cefbc"/>
<rect x="665.66" y="37.75" width="12.58" height="12.58" rx="2.00" ry="2.00" fill="#5de3ae"/>
<rect x="665.66" y="50.34" width="12.58" height="12.58" rx="2.00" ry="2.00" fill="#50daa4"/>
<rect x="665.66" y="62.92" width="12.58" height="12.58" rx="2.00" ry="2.00" fill="#43d09a"/>
<rect x="665.66" y="75.51" width="12.58" height="12.58" rx="2.00" ry="2.00" fill="#34c791"/>
<rect x="679.25" y="0.00" width="12.58" height="12.58" rx="2.00" ry="2.00" fill="#22be87"/>
<rect x="679.25" y="12.58" width="12.58" height="12.58" rx="2.00" ry="2.00" fill="#70f2bf"/>
<rect x="679.25" y="25.17" width="12.58" height="12.58" rx="2.00" ry="2.00" fill="#65e9b5"/>
<rect x="679.25" y="37.75" width="12.58" height="12.58" rx="2.00" ry="2.00" fill="#59e0ab"/>
<rect x="679.25" y="50.34" width="12.58" height="12.58" rx="2.00" ry="2.00" fill="#4cd7a1"/>
<rect x="679.25" y="62.92" width="12.58" height="12.58" rx="2.00" ry="2.00" fill="#3ecd97"/>
<rect x="679.25" y="75.51" width="12.58" height="12.58" rx="2.00" ry="2.00" fill="#28c18a"/>
<rect x="692.83" y="0.00" width="12.58" height="12.58" rx="2.00" ry="2.00" fill="#10b880"/>
<rect x="692.83" y="12.58" width="12.58" height="12.58" rx="2.00" ry="2.00" fill="#6cefbc"/>
<rect x="692.83" y="25.17" width="12.58" height="12.58" rx="2.00" ry="2.00" fill="#61e6b2"/>
<rect x="692.83" y="37.75" width="12.58" height="12.58" rx="2.00" ry="2.00" fill="#54dda8"/>
<rect x="692.83" y="50.34" width="12.58" height="12.58" rx="2.00" ry="2.00" fill="#5de3ae"/>
<rect x="692.83" y="62.92" width="12.58" height="12.58" rx="2.00" ry="2.00" fill="#50daa4"/>
<rect x="692.83" y="75.51" width="12.58" height="12.58" rx="2.00" ry="2.00" fill="#43d09a"/>
<rect x="706.42" y="0.00" width="12.58" height="12.58" rx="2.00" ry="2.00" fill="#34c791"/>
<rect x="706.42" y="12.58" width="12.58" height="12.58" rx="2.00" ry="2.00" fill="#7ffecd"/>
<text x="-5.00" y="18.88" fill="#E5E7EB" class="mono smaller" text-anchor="end" dominant-baseline="middle">Mon</text>
<text x="-5.00" y="44.05" fill="#E5E7EB" class="mono smaller" text-anchor="end" dominant-baseline="middle">Wed</text>
<text x="-5.00" y="69.22" fill="#E5E7EB" class="mono smaller" text-anchor="end" dominant-baseline="middle">Fri</text>
</g></g></g></g>
</svg>