<svg xmlns="http://www.w3.org/2000/svg" width="1200" height="480" viewBox="0 0 1200 480"><rect x="0.00" y="0.00" width="1200.00" height="480.00" fill="#ffffff"/>
<text x="600.00" y="30.00" fill="#000000" text-anchor="middle" font-family="sans-serif" font-size="20.00px" font-weight="bold">Histogram Gallery</text>
<g transform="translate(25.00, 60.00)"><text x="300.00" y="0.00" fill="#666" text-anchor="middle" font-family="sans-serif" font-size="14.00px" font-weight="bold">Count Histogram</text><g transform="translate(0.00, 30.00)"><rect x="40.00" y="147.50" width="21.00" height="107.50" fill="#4285f4" stroke="#fff" stroke-width="1.00" opacity="0.80"/>
<rect x="61.00" y="147.50" width="21.00" height="107.50" fill="#4285f4" stroke="#fff" stroke-width="1.00" opacity="0.80"/>
<rect x="82.00" y="147.50" width="21.00" height="107.50" fill="#4285f4" stroke="#fff" stroke-width="1.00" opacity="0.80"/>
<rect x="103.00" y="147.50" width="21.00" height="107.50" fill="#4285f4" stroke="#fff" stroke-width="1.00" opacity="0.80"/>
<rect x="124.00" y="147.50" width="21.00" height="107.50" fill="#4285f4" stroke="#fff" stroke-width="1.00" opacity="0.80"/>
<rect x="145.00" y="255.00" width="21.00" height="0.00" fill="#4285f4" stroke="#fff" stroke-width="1.00" opacity="0.80"/>
<rect x="166.00" y="147.50" width="21.00" height="107.50" fill="#4285f4" stroke="#fff" stroke-width="1.00" opacity="0.80"/>
<rect x="187.00" y="147.50" width="21.00" height="107.50" fill="#4285f4" stroke="#fff" stroke-width="1.00" opacity="0.80"/>
<rect x="208.00" y="40.00" width="21.00" height="215.00" fill="#4285f4" stroke="#fff" stroke-width="1.00" opacity="0.80"/>
<rect x="229.00" y="147.50" width="21.00" height="107.50" fill="#4285f4" stroke="#fff" stroke-width="1.00" opacity="0.80"/>
<rect x="250.00" y="147.50" width="21.00" height="107.50" fill="#4285f4" stroke="#fff" stroke-width="1.00" opacity="0.80"/>
<rect x="271.00" y="40.00" width="21.00" height="215.00" fill="#4285f4" stroke="#fff" stroke-width="1.00" opacity="0.80"/>
<rect x="292.00" y="147.50" width="21.00" height="107.50" fill="#4285f4" stroke="#fff" stroke-width="1.00" opacity="0.80"/>
<rect x="313.00" y="147.50" width="21.00" height="107.50" fill="#4285f4" stroke="#fff" stroke-width="1.00" opacity="0.80"/>
<rect x="334.00" y="255.00" width="21.00" height="0.00" fill="#4285f4" stroke="#fff" stroke-width="1.00" opacity="0.80"/>
<rect x="355.00" y="147.50" width="21.00" height="107.50" fill="#4285f4" stroke="#fff" stroke-width="1.00" opacity="0.80"/>
<rect x="376.00" y="147.50" width="21.00" height="107.50" fill="#4285f4" stroke="#fff" stroke-width="1.00" opacity="0.80"/>
<rect x="397.00" y="147.50" width="21.00" height="107.50" fill="#4285f4" stroke="#fff" stroke-width="1.00" opacity="0.80"/>
<rect x="418.00" y="147.50" width="21.00" height="107.50" fill="#4285f4" stroke="#fff" stroke-width="1.00" opacity="0.80"/>
<rect x="439.00" y="147.50" width="21.00" height="107.50" fill="#4285f4" stroke="#fff" stroke-width="1.00" opacity="0.80"/>
</g></g>
<g transform="translate(625.00, 60.00)"><text x="300.00" y="0.00" fill="#666" text-anchor="middle" font-family="sans-serif" font-size="14.00px" font-weight="bold">Density Histogram</text><g transform="translate(0.00, 30.00)"><rect x="40.00" y="147.50" width="21.00" height="107.50" fill="#4285f4" stroke="#fff" stroke-width="1.00" opacity="0.80"/>
<rect x="61.00" y="147.50" width="21.00" height="107.50" fill="#4285f4" stroke="#fff" stroke-width="1.00" opacity="0.80"/>
<rect x="82.00" y="147.50" width="21.00" height="107.50" fill="#4285f4" stroke="#fff" stroke-width="1.00" opacity="0.80"/>
<rect x="103.00" y="147.50" width="21.00" height="107.50" fill="#4285f4" stroke="#fff" stroke-width="1.00" opacity="0.80"/>
<rect x="124.00" y="147.50" width="21.00" height="107.50" fill="#4285f4" stroke="#fff" stroke-width="1.00" opacity="0.80"/>
<rect x="145.00" y="255.00" width="21.00" height="0.00" fill="#4285f4" stroke="#fff" stroke-width="1.00" opacity="0.80"/>
<rect x="166.00" y="147.50" width="21.00" height="107.50" fill="#4285f4" stroke="#fff" stroke-width="1.00" opacity="0.80"/>
<rect x="187.00" y="147.50" width="21.00" height="107.50" fill="#4285f4" stroke="#fff" stroke-width="1.00" opacity="0.80"/>
<rect x="208.00" y="40.00" width="21.00" height="215.00" fill="#4285f4" stroke="#fff" stroke-width="1.00" opacity="0.80"/>
<rect x="229.00" y="147.50" width="21.00" height="107.50" fill="#4285f4" stroke="#fff" stroke-width="1.00" opacity="0.80"/>
<rect x="250.00" y="147.50" width="21.00" height="107.50" fill="#4285f4" stroke="#fff" stroke-width="1.00" opacity="0.80"/>
<rect x="271.00" y="40.00" width="21.00" height="215.00" fill="#4285f4" stroke="#fff" stroke-width="1.00" opacity="0.80"/>
<rect x="292.00" y="147.50" width="21.00" height="107.50" fill="#4285f4" stroke="#fff" stroke-width="1.00" opacity="0.80"/>
<rect x="313.00" y="147.50" width="21.00" height="107.50" fill="#4285f4" stroke="#fff" stroke-width="1.00" opacity="0.80"/>
<rect x="334.00" y="255.00" width="21.00" height="0.00" fill="#4285f4" stroke="#fff" stroke-width="1.00" opacity="0.80"/>
<rect x="355.00" y="147.50" width="21.00" height="107.50" fill="#4285f4" stroke="#fff" stroke-width="1.00" opacity="0.80"/>
<rect x="376.00" y="147.50" width="21.00" height="107.50" fill="#4285f4" stroke="#fff" stroke-width="1.00" opacity="0.80"/>
<rect x="397.00" y="147.50" width="21.00" height="107.50" fill="#4285f4" stroke="#fff" stroke-width="1.00" opacity="0.80"/>
<rect x="418.00" y="147.50" width="21.00" height="107.50" fill="#4285f4" stroke="#fff" stroke-width="1.00" opacity="0.80"/>
<rect x="439.00" y="147.50" width="21.00" height="107.50" fill="#4285f4" stroke="#fff" stroke-width="1.00" opacity="0.80"/>
</g></g>
</svg>