<svg xmlns="http://www.w3.org/2000/svg" width="1200" height="400" viewBox="0 0 1200 400"><rect x="0.00" y="0.00" width="1200.00" height="400.00" fill="#ffffff"/>
<text x="600.00" y="30.00" fill="#000000" text-anchor="middle" font-family="sans-serif" font-size="20.00px" font-weight="bold">Histogram Gallery</text>
<g transform="translate(25, 60)"><text x="300.00" y="0.00" fill="#666" text-anchor="middle" font-family="sans-serif" font-size="14.00px" font-weight="bold">Count Histogram</text><g transform="translate(0, 30)"><rect x="40.00" y="160.00" width="23.50" height="120.00" fill="#4285f4" stroke="#fff" stroke-width="1.00" opacity="0.80"/>
<rect x="63.50" y="160.00" width="23.50" height="120.00" fill="#4285f4" stroke="#fff" stroke-width="1.00" opacity="0.80"/>
<rect x="87.00" y="160.00" width="23.50" height="120.00" fill="#4285f4" stroke="#fff" stroke-width="1.00" opacity="0.80"/>
<rect x="110.50" y="160.00" width="23.50" height="120.00" fill="#4285f4" stroke="#fff" stroke-width="1.00" opacity="0.80"/>
<rect x="134.00" y="160.00" width="23.50" height="120.00" fill="#4285f4" stroke="#fff" stroke-width="1.00" opacity="0.80"/>
<rect x="157.50" y="280.00" width="23.50" height="0.00" fill="#4285f4" stroke="#fff" stroke-width="1.00" opacity="0.80"/>
<rect x="181.00" y="160.00" width="23.50" height="120.00" fill="#4285f4" stroke="#fff" stroke-width="1.00" opacity="0.80"/>
<rect x="204.50" y="160.00" width="23.50" height="120.00" fill="#4285f4" stroke="#fff" stroke-width="1.00" opacity="0.80"/>
<rect x="228.00" y="40.00" width="23.50" height="240.00" fill="#4285f4" stroke="#fff" stroke-width="1.00" opacity="0.80"/>
<rect x="251.50" y="160.00" width="23.50" height="120.00" fill="#4285f4" stroke="#fff" stroke-width="1.00" opacity="0.80"/>
<rect x="275.00" y="160.00" width="23.50" height="120.00" fill="#4285f4" stroke="#fff" stroke-width="1.00" opacity="0.80"/>
<rect x="298.50" y="40.00" width="23.50" height="240.00" fill="#4285f4" stroke="#fff" stroke-width="1.00" opacity="0.80"/>
<rect x="322.00" y="160.00" width="23.50" height="120.00" fill="#4285f4" stroke="#fff" stroke-width="1.00" opacity="0.80"/>
<rect x="345.50" y="160.00" width="23.50" height="120.00" fill="#4285f4" stroke="#fff" stroke-width="1.00" opacity="0.80"/>
<rect x="369.00" y="280.00" width="23.50" height="0.00" fill="#4285f4" stroke="#fff" stroke-width="1.00" opacity="0.80"/>
<rect x="392.50" y="160.00" width="23.50" height="120.00" fill="#4285f4" stroke="#fff" stroke-width="1.00" opacity="0.80"/>
<rect x="416.00" y="160.00" width="23.50" height="120.00" fill="#4285f4" stroke="#fff" stroke-width="1.00" opacity="0.80"/>
<rect x="439.50" y="160.00" width="23.50" height="120.00" fill="#4285f4" stroke="#fff" stroke-width="1.00" opacity="0.80"/>
<rect x="463.00" y="160.00" width="23.50" height="120.00" fill="#4285f4" stroke="#fff" stroke-width="1.00" opacity="0.80"/>
<rect x="486.50" y="160.00" width="23.50" height="120.00" fill="#4285f4" stroke="#fff" stroke-width="1.00" opacity="0.80"/>
</g></g>
<g transform="translate(625, 60)"><text x="300.00" y="0.00" fill="#666" text-anchor="middle" font-family="sans-serif" font-size="14.00px" font-weight="bold">Density Histogram</text><g transform="translate(0, 30)"><rect x="40.00" y="160.00" width="23.50" height="120.00" fill="#4285f4" stroke="#fff" stroke-width="1.00" opacity="0.80"/>
<rect x="63.50" y="160.00" width="23.50" height="120.00" fill="#4285f4" stroke="#fff" stroke-width="1.00" opacity="0.80"/>
<rect x="87.00" y="160.00" width="23.50" height="120.00" fill="#4285f4" stroke="#fff" stroke-width="1.00" opacity="0.80"/>
<rect x="110.50" y="160.00" width="23.50" height="120.00" fill="#4285f4" stroke="#fff" stroke-width="1.00" opacity="0.80"/>
<rect x="134.00" y="160.00" width="23.50" height="120.00" fill="#4285f4" stroke="#fff" stroke-width="1.00" opacity="0.80"/>
<rect x="157.50" y="280.00" width="23.50" height="0.00" fill="#4285f4" stroke="#fff" stroke-width="1.00" opacity="0.80"/>
<rect x="181.00" y="160.00" width="23.50" height="120.00" fill="#4285f4" stroke="#fff" stroke-width="1.00" opacity="0.80"/>
<rect x="204.50" y="160.00" width="23.50" height="120.00" fill="#4285f4" stroke="#fff" stroke-width="1.00" opacity="0.80"/>
<rect x="228.00" y="40.00" width="23.50" height="240.00" fill="#4285f4" stroke="#fff" stroke-width="1.00" opacity="0.80"/>
<rect x="251.50" y="160.00" width="23.50" height="120.00" fill="#4285f4" stroke="#fff" stroke-width="1.00" opacity="0.80"/>
<rect x="275.00" y="160.00" width="23.50" height="120.00" fill="#4285f4" stroke="#fff" stroke-width="1.00" opacity="0.80"/>
<rect x="298.50" y="40.00" width="23.50" height="240.00" fill="#4285f4" stroke="#fff" stroke-width="1.00" opacity="0.80"/>
<rect x="322.00" y="160.00" width="23.50" height="120.00" fill="#4285f4" stroke="#fff" stroke-width="1.00" opacity="0.80"/>
<rect x="345.50" y="160.00" width="23.50" height="120.00" fill="#4285f4" stroke="#fff" stroke-width="1.00" opacity="0.80"/>
<rect x="369.00" y="280.00" width="23.50" height="0.00" fill="#4285f4" stroke="#fff" stroke-width="1.00" opacity="0.80"/>
<rect x="392.50" y="160.00" width="23.50" height="120.00" fill="#4285f4" stroke="#fff" stroke-width="1.00" opacity="0.80"/>
<rect x="416.00" y="160.00" width="23.50" height="120.00" fill="#4285f4" stroke="#fff" stroke-width="1.00" opacity="0.80"/>
<rect x="439.50" y="160.00" width="23.50" height="120.00" fill="#4285f4" stroke="#fff" stroke-width="1.00" opacity="0.80"/>
<rect x="463.00" y="160.00" width="23.50" height="120.00" fill="#4285f4" stroke="#fff" stroke-width="1.00" opacity="0.80"/>
<rect x="486.50" y="160.00" width="23.50" height="120.00" fill="#4285f4" stroke="#fff" stroke-width="1.00" opacity="0.80"/>
</g></g>
</svg>