<svg xmlns="http://www.w3.org/2000/svg" width="1200" height="400" viewBox="0 0 1200 400"><rect x="0.00" y="0.00" width="1200.00" height="400.00" fill="#ffffff"/>
<text x="600.00" y="30.00" fill="#000000" text-anchor="middle" font-family="sans-serif" font-size="20.00px" font-weight="bold">Lollipop Chart Gallery</text>
<g transform="translate(25, 60)"><text x="300.00" y="0.00" fill="#666" text-anchor="middle" font-family="sans-serif" font-size="14.00px" font-weight="bold">Vertical Lollipop</text><g transform="translate(0, 30)"><line x1="60.00" y1="250.91" x2="490.00" y2="250.91" stroke="#d1d5db" stroke-width="1.50"/>
<line x1="60.00" y1="60.00" x2="60.00" y2="260.00" stroke="#374151" stroke-width="2.00"/>
<line x1="60.00" y1="260.00" x2="490.00" y2="260.00" stroke="#374151" stroke-width="2.00"/>
<line x1="103.00" y1="250.91" x2="103.00" y2="135.67" stroke="#3b82f6" stroke-width="2.00" opacity="0.60"/>
<circle cx="103.00" cy="135.67" r="6.00" fill="#3b82f6" stroke="#ffffff" stroke-width="2.00"/>
<text x="103.00" y="270.00" text-anchor="middle" dominant-baseline="hanging" font-family="sans-serif" font-size="11.00px">Product A</text>
<text x="103.00" y="124.67" text-anchor="middle" dominant-baseline="text-bottom" font-family="sans-serif" font-size="10.00px">45.0</text>
<line x1="189.00" y1="250.91" x2="189.00" y2="92.14" stroke="#3b82f6" stroke-width="2.00" opacity="0.60"/>
<circle cx="189.00" cy="92.14" r="6.00" fill="#3b82f6" stroke="#ffffff" stroke-width="2.00"/>
<text x="189.00" y="270.00" text-anchor="middle" dominant-baseline="hanging" font-family="sans-serif" font-size="11.00px">Product B</text>
<text x="189.00" y="81.14" text-anchor="middle" dominant-baseline="text-bottom" font-family="sans-serif" font-size="10.00px">62.0</text>
<line x1="275.00" y1="250.91" x2="275.00" y2="153.60" stroke="#3b82f6" stroke-width="2.00" opacity="0.60"/>
<circle cx="275.00" cy="153.60" r="6.00" fill="#3b82f6" stroke="#ffffff" stroke-width="2.00"/>
<text x="275.00" y="270.00" text-anchor="middle" dominant-baseline="hanging" font-family="sans-serif" font-size="11.00px">Product C</text>
<text x="275.00" y="142.60" text-anchor="middle" dominant-baseline="text-bottom" font-family="sans-serif" font-size="10.00px">38.0</text>
<line x1="361.00" y1="250.91" x2="361.00" y2="69.09" stroke="#3b82f6" stroke-width="2.00" opacity="0.60"/>
<circle cx="361.00" cy="69.09" r="6.00" fill="#3b82f6" stroke="#ffffff" stroke-width="2.00"/>
<text x="361.00" y="270.00" text-anchor="middle" dominant-baseline="hanging" font-family="sans-serif" font-size="11.00px">Product D</text>
<text x="361.00" y="58.09" text-anchor="middle" dominant-baseline="text-bottom" font-family="sans-serif" font-size="10.00px">71.0</text>
<line x1="447.00" y1="250.91" x2="447.00" y2="112.62" stroke="#3b82f6" stroke-width="2.00" opacity="0.60"/>
<circle cx="447.00" cy="112.62" r="6.00" fill="#3b82f6" stroke="#ffffff" stroke-width="2.00"/>
<text x="447.00" y="270.00" text-anchor="middle" dominant-baseline="hanging" font-family="sans-serif" font-size="11.00px">Product E</text>
<text x="447.00" y="101.62" text-anchor="middle" dominant-baseline="text-bottom" font-family="sans-serif" font-size="10.00px">54.0</text>
<text x="50.00" y="260.00" text-anchor="end" dominant-baseline="middle" font-family="sans-serif" font-size="10.00px">-3.6</text>
<text x="50.00" y="220.00" text-anchor="end" dominant-baseline="middle" font-family="sans-serif" font-size="10.00px">12.1</text>
<text x="50.00" y="180.00" text-anchor="end" dominant-baseline="middle" font-family="sans-serif" font-size="10.00px">27.7</text>
<text x="50.00" y="140.00" text-anchor="end" dominant-baseline="middle" font-family="sans-serif" font-size="10.00px">43.3</text>
<text x="50.00" y="100.00" text-anchor="end" dominant-baseline="middle" font-family="sans-serif" font-size="10.00px">58.9</text>
<text x="50.00" y="60.00" text-anchor="end" dominant-baseline="middle" font-family="sans-serif" font-size="10.00px">74.5</text>
</g></g>
<g transform="translate(625, 60)"><text x="300.00" y="0.00" fill="#666" text-anchor="middle" font-family="sans-serif" font-size="14.00px" font-weight="bold">Horizontal Lollipop</text><g transform="translate(0, 30)"><line x1="80.00" y1="80.00" x2="80.00" y2="240.00" stroke="#374151" stroke-width="2.00"/>
<line x1="80.00" y1="240.00" x2="470.00" y2="240.00" stroke="#374151" stroke-width="2.00"/>
<line x1="97.73" y1="96.00" x2="322.44" y2="96.00" stroke="#3b82f6" stroke-width="2.00" opacity="0.60"/>
<circle cx="322.44" cy="96.00" r="6.00" fill="#3b82f6" stroke="#ffffff" stroke-width="2.00"/>
<text x="70.00" y="96.00" text-anchor="end" dominant-baseline="middle" font-family="sans-serif" font-size="11.00px">Product A</text>
<line x1="97.73" y1="128.00" x2="407.33" y2="128.00" stroke="#3b82f6" stroke-width="2.00" opacity="0.60"/>
<circle cx="407.33" cy="128.00" r="6.00" fill="#3b82f6" stroke="#ffffff" stroke-width="2.00"/>
<text x="70.00" y="128.00" text-anchor="end" dominant-baseline="middle" font-family="sans-serif" font-size="11.00px">Product B</text>
<line x1="97.73" y1="160.00" x2="287.48" y2="160.00" stroke="#3b82f6" stroke-width="2.00" opacity="0.60"/>
<circle cx="287.48" cy="160.00" r="6.00" fill="#3b82f6" stroke="#ffffff" stroke-width="2.00"/>
<text x="70.00" y="160.00" text-anchor="end" dominant-baseline="middle" font-family="sans-serif" font-size="11.00px">Product C</text>
<line x1="97.73" y1="192.00" x2="452.27" y2="192.00" stroke="#3b82f6" stroke-width="2.00" opacity="0.60"/>
<circle cx="452.27" cy="192.00" r="6.00" fill="#3b82f6" stroke="#ffffff" stroke-width="2.00"/>
<text x="70.00" y="192.00" text-anchor="end" dominant-baseline="middle" font-family="sans-serif" font-size="11.00px">Product D</text>
<line x1="97.73" y1="224.00" x2="367.38" y2="224.00" stroke="#3b82f6" stroke-width="2.00" opacity="0.60"/>
<circle cx="367.38" cy="224.00" r="6.00" fill="#3b82f6" stroke="#ffffff" stroke-width="2.00"/>
<text x="70.00" y="224.00" text-anchor="end" dominant-baseline="middle" font-family="sans-serif" font-size="11.00px">Product E</text>
</g></g>
</svg>