<svg xmlns="http://www.w3.org/2000/svg" width="1200" height="480" viewBox="0 0 1200 480"><rect x="0.00" y="0.00" width="1200.00" height="480.00" fill="#ffffff"/>
<text x="600.00" y="30.00" fill="#000000" text-anchor="middle" font-family="sans-serif" font-size="20.00px" font-weight="bold">Lollipop Chart Gallery</text>
<g transform="translate(25.00, 60.00)"><text x="300.00" y="0.00" fill="#666" text-anchor="middle" font-family="sans-serif" font-size="14.00px" font-weight="bold">Vertical Lollipop</text><g transform="translate(0, 30.00)"><line x1="60.00" y1="227.05" x2="440.00" y2="227.05" stroke="#d1d5db" stroke-width="1.50"/>
<line x1="60.00" y1="60.00" x2="60.00" y2="235.00" stroke="#374151" stroke-width="2.00"/>
<line x1="60.00" y1="235.00" x2="440.00" y2="235.00" stroke="#374151" stroke-width="2.00"/>
<line x1="98.00" y1="227.05" x2="98.00" y2="126.21" stroke="#3b82f6" stroke-width="2.00" opacity="0.60"/>
<circle cx="98.00" cy="126.21" r="6.00" fill="#3b82f6" stroke="#ffffff" stroke-width="2.00"/>
<text x="98.00" y="245.00" text-anchor="middle" dominant-baseline="hanging" font-family="sans-serif" font-size="11.00px">Product A</text>
<text x="98.00" y="115.21" text-anchor="middle" dominant-baseline="text-bottom" font-family="sans-serif" font-size="10.00px">45.0</text>
<line x1="174.00" y1="227.05" x2="174.00" y2="88.12" stroke="#3b82f6" stroke-width="2.00" opacity="0.60"/>
<circle cx="174.00" cy="88.12" r="6.00" fill="#3b82f6" stroke="#ffffff" stroke-width="2.00"/>
<text x="174.00" y="245.00" text-anchor="middle" dominant-baseline="hanging" font-family="sans-serif" font-size="11.00px">Product B</text>
<text x="174.00" y="77.12" text-anchor="middle" dominant-baseline="text-bottom" font-family="sans-serif" font-size="10.00px">62.0</text>
<line x1="250.00" y1="227.05" x2="250.00" y2="141.90" stroke="#3b82f6" stroke-width="2.00" opacity="0.60"/>
<circle cx="250.00" cy="141.90" r="6.00" fill="#3b82f6" stroke="#ffffff" stroke-width="2.00"/>
<text x="250.00" y="245.00" text-anchor="middle" dominant-baseline="hanging" font-family="sans-serif" font-size="11.00px">Product C</text>
<text x="250.00" y="130.90" text-anchor="middle" dominant-baseline="text-bottom" font-family="sans-serif" font-size="10.00px">38.0</text>
<line x1="326.00" y1="227.05" x2="326.00" y2="67.95" stroke="#3b82f6" stroke-width="2.00" opacity="0.60"/>
<circle cx="326.00" cy="67.95" r="6.00" fill="#3b82f6" stroke="#ffffff" stroke-width="2.00"/>
<text x="326.00" y="245.00" text-anchor="middle" dominant-baseline="hanging" font-family="sans-serif" font-size="11.00px">Product D</text>
<text x="326.00" y="56.95" text-anchor="middle" dominant-baseline="text-bottom" font-family="sans-serif" font-size="10.00px">71.0</text>
<line x1="402.00" y1="227.05" x2="402.00" y2="106.05" stroke="#3b82f6" stroke-width="2.00" opacity="0.60"/>
<circle cx="402.00" cy="106.05" r="6.00" fill="#3b82f6" stroke="#ffffff" stroke-width="2.00"/>
<text x="402.00" y="245.00" text-anchor="middle" dominant-baseline="hanging" font-family="sans-serif" font-size="11.00px">Product E</text>
<text x="402.00" y="95.05" text-anchor="middle" dominant-baseline="text-bottom" font-family="sans-serif" font-size="10.00px">54.0</text>
<text x="50.00" y="235.00" text-anchor="end" dominant-baseline="middle" font-family="sans-serif" font-size="10.00px">-3.6</text>
<text x="50.00" y="200.00" text-anchor="end" dominant-baseline="middle" font-family="sans-serif" font-size="10.00px">12.1</text>
<text x="50.00" y="165.00" text-anchor="end" dominant-baseline="middle" font-family="sans-serif" font-size="10.00px">27.7</text>
<text x="50.00" y="130.00" text-anchor="end" dominant-baseline="middle" font-family="sans-serif" font-size="10.00px">43.3</text>
<text x="50.00" y="95.00" text-anchor="end" dominant-baseline="middle" font-family="sans-serif" font-size="10.00px">58.9</text>
<text x="50.00" y="60.00" text-anchor="end" dominant-baseline="middle" font-family="sans-serif" font-size="10.00px">74.5</text>
</g></g>
<g transform="translate(625.00, 60.00)"><text x="300.00" y="0.00" fill="#666" text-anchor="middle" font-family="sans-serif" font-size="14.00px" font-weight="bold">Horizontal Lollipop</text><g transform="translate(0, 30.00)"><line x1="80.00" y1="80.00" x2="80.00" y2="215.00" stroke="#374151" stroke-width="2.00"/>
<line x1="80.00" y1="215.00" x2="420.00" y2="215.00" stroke="#374151" stroke-width="2.00"/>
<line x1="95.45" y1="93.50" x2="291.36" y2="93.50" stroke="#3b82f6" stroke-width="2.00" opacity="0.60"/>
<circle cx="291.36" cy="93.50" r="6.00" fill="#3b82f6" stroke="#ffffff" stroke-width="2.00"/>
<text x="70.00" y="93.50" text-anchor="end" dominant-baseline="middle" font-family="sans-serif" font-size="11.00px">Product A</text>
<line x1="95.45" y1="120.50" x2="365.36" y2="120.50" stroke="#3b82f6" stroke-width="2.00" opacity="0.60"/>
<circle cx="365.36" cy="120.50" r="6.00" fill="#3b82f6" stroke="#ffffff" stroke-width="2.00"/>
<text x="70.00" y="120.50" text-anchor="end" dominant-baseline="middle" font-family="sans-serif" font-size="11.00px">Product B</text>
<line x1="95.45" y1="147.50" x2="260.88" y2="147.50" stroke="#3b82f6" stroke-width="2.00" opacity="0.60"/>
<circle cx="260.88" cy="147.50" r="6.00" fill="#3b82f6" stroke="#ffffff" stroke-width="2.00"/>
<text x="70.00" y="147.50" text-anchor="end" dominant-baseline="middle" font-family="sans-serif" font-size="11.00px">Product C</text>
<line x1="95.45" y1="174.50" x2="404.55" y2="174.50" stroke="#3b82f6" stroke-width="2.00" opacity="0.60"/>
<circle cx="404.55" cy="174.50" r="6.00" fill="#3b82f6" stroke="#ffffff" stroke-width="2.00"/>
<text x="70.00" y="174.50" text-anchor="end" dominant-baseline="middle" font-family="sans-serif" font-size="11.00px">Product D</text>
<line x1="95.45" y1="201.50" x2="330.54" y2="201.50" stroke="#3b82f6" stroke-width="2.00" opacity="0.60"/>
<circle cx="330.54" cy="201.50" r="6.00" fill="#3b82f6" stroke="#ffffff" stroke-width="2.00"/>
<text x="70.00" y="201.50" text-anchor="end" dominant-baseline="middle" font-family="sans-serif" font-size="11.00px">Product E</text>
</g></g>
</svg>