<svg xmlns="http://www.w3.org/2000/svg" width="2400" height="430" viewBox="0 0 2400 430"><rect x="0.00" y="0.00" width="2400.00" height="430.00" fill="#ffffff"/>
<text x="1200.00" y="30.00" fill="#000000" text-anchor="middle" font-family="sans-serif" font-size="20.00px" font-weight="bold">Pie Chart Gallery</text>
<g transform="translate(0.00, 60.00)"><text x="400.00" y="0.00" fill="#666" text-anchor="middle" font-family="sans-serif" font-size="14.00px" font-weight="bold">Regular Pie</text><g transform="translate(0.00, 20.00)"><path d="M 375.00 147.50 L 375.00 120.00 A 27.50 27.50 0 1 1 354.37 165.69 Z" fill="#ff6b6b" stroke="#FFFFFF" stroke-width="2.00"/><text x="392.54" y="155.42" fill="#FFFFFF" text-anchor="middle" dominant-baseline="middle" font-family="Arial, sans-serif" font-size="12.00px" font-weight="bold">63.5%</text><path d="M 375.00 147.50 L 354.37 165.69 A 27.50 27.50 0 0 1 350.74 134.56 Z" fill="#4ecdc4" stroke="#FFFFFF" stroke-width="2.00"/><text x="355.88" y="149.73" fill="#FFFFFF" text-anchor="middle" dominant-baseline="middle" font-family="Arial, sans-serif" font-size="12.00px" font-weight="bold">19.3%</text><path d="M 375.00 147.50 L 350.74 134.56 A 27.50 27.50 0 0 1 361.75 123.40 Z" fill="#45b7d1" stroke="#FFFFFF" stroke-width="2.00"/><text x="361.30" y="133.97" fill="#FFFFFF" text-anchor="middle" dominant-baseline="middle" font-family="Arial, sans-serif" font-size="12.00px" font-weight="bold">9.2%</text><path d="M 375.00 147.50 L 361.75 123.40 A 27.50 27.50 0 0 1 370.02 120.46 Z" fill="#ffa07a" stroke="#FFFFFF" stroke-width="2.00"/><text x="368.54" y="129.37" fill="#FFFFFF" text-anchor="middle" dominant-baseline="middle" font-family="Arial, sans-serif" font-size="12.00px" font-weight="bold">5.1%</text><path d="M 375.00 147.50 L 370.02 120.46 A 27.50 27.50 0 0 1 375.00 120.00 Z" fill="#98d8c8" stroke="#FFFFFF" stroke-width="2.00"/><g class="legend" transform="translate(10.0,133.0)">
  <rect x="0" y="0" width="138.8" height="112.0" fill="none" stroke="#e5e7eb" stroke-width="1.0"/>
  <g transform="translate(10.0,10.0)"><rect width="12.0" height="12.0" fill="#ff6b6b" stroke="#000" stroke-width="0.5" stroke-opacity="0.2"/></g>
  <text x="28.0" y="20.2" font-family="Arial, sans-serif" font-size="12.0" fill="#374151">Chrome (63.5%)</text>
  <g transform="translate(10.0,30.0)"><rect width="12.0" height="12.0" fill="#4ecdc4" stroke="#000" stroke-width="0.5" stroke-opacity="0.2"/></g>
  <text x="28.0" y="40.2" font-family="Arial, sans-serif" font-size="12.0" fill="#374151">Safari (19.3%)</text>
  <g transform="translate(10.0,50.0)"><rect width="12.0" height="12.0" fill="#45b7d1" stroke="#000" stroke-width="0.5" stroke-opacity="0.2"/></g>
  <text x="28.0" y="60.2" font-family="Arial, sans-serif" font-size="12.0" fill="#374151">Firefox (9.2%)</text>
  <g transform="translate(10.0,70.0)"><rect width="12.0" height="12.0" fill="#ffa07a" stroke="#000" stroke-width="0.5" stroke-opacity="0.2"/></g>
  <text x="28.0" y="80.2" font-family="Arial, sans-serif" font-size="12.0" fill="#374151">Edge (5.1%)</text>
  <g transform="translate(10.0,90.0)"><rect width="12.0" height="12.0" fill="#98d8c8" stroke="#000" stroke-width="0.5" stroke-opacity="0.2"/></g>
  <text x="28.0" y="100.2" font-family="Arial, sans-serif" font-size="12.0" fill="#374151">Other (2.9%)</text>
</g>
</g></g>
<g transform="translate(800.00, 60.00)"><text x="400.00" y="0.00" fill="#666" text-anchor="middle" font-family="sans-serif" font-size="14.00px" font-weight="bold">Donut Chart</text><g transform="translate(0.00, 20.00)"><path d="M 375.00 120.00 A 27.50 27.50 0 1 1 354.37 165.69 L 366.75 154.77 A 11.00 11.00 0 1 0 375.00 136.50 Z" fill="#ff6b6b" stroke="#FFFFFF" stroke-width="2.00"/><text x="392.54" y="155.42" fill="#FFFFFF" text-anchor="middle" dominant-baseline="middle" font-family="Arial, sans-serif" font-size="12.00px" font-weight="bold">63.5%</text><path d="M 354.37 165.69 A 27.50 27.50 0 0 1 350.74 134.56 L 365.29 142.32 A 11.00 11.00 0 0 0 366.75 154.77 Z" fill="#4ecdc4" stroke="#FFFFFF" stroke-width="2.00"/><text x="355.88" y="149.73" fill="#FFFFFF" text-anchor="middle" dominant-baseline="middle" font-family="Arial, sans-serif" font-size="12.00px" font-weight="bold">19.3%</text><path d="M 350.74 134.56 A 27.50 27.50 0 0 1 361.75 123.40 L 369.70 137.86 A 11.00 11.00 0 0 0 365.29 142.32 Z" fill="#45b7d1" stroke="#FFFFFF" stroke-width="2.00"/><text x="361.30" y="133.97" fill="#FFFFFF" text-anchor="middle" dominant-baseline="middle" font-family="Arial, sans-serif" font-size="12.00px" font-weight="bold">9.2%</text><path d="M 361.75 123.40 A 27.50 27.50 0 0 1 370.02 120.46 L 373.01 136.68 A 11.00 11.00 0 0 0 369.70 137.86 Z" fill="#ffa07a" stroke="#FFFFFF" stroke-width="2.00"/><text x="368.54" y="129.37" fill="#FFFFFF" text-anchor="middle" dominant-baseline="middle" font-family="Arial, sans-serif" font-size="12.00px" font-weight="bold">5.1%</text><path d="M 370.02 120.46 A 27.50 27.50 0 0 1 375.00 120.00 L 375.00 136.50 A 11.00 11.00 0 0 0 373.01 136.68 Z" fill="#98d8c8" stroke="#FFFFFF" stroke-width="2.00"/><g class="legend" transform="translate(10.0,133.0)">
  <rect x="0" y="0" width="138.8" height="112.0" fill="none" stroke="#e5e7eb" stroke-width="1.0"/>
  <g transform="translate(10.0,10.0)"><rect width="12.0" height="12.0" fill="#ff6b6b" stroke="#000" stroke-width="0.5" stroke-opacity="0.2"/></g>
  <text x="28.0" y="20.2" font-family="Arial, sans-serif" font-size="12.0" fill="#374151">Chrome (63.5%)</text>
  <g transform="translate(10.0,30.0)"><rect width="12.0" height="12.0" fill="#4ecdc4" stroke="#000" stroke-width="0.5" stroke-opacity="0.2"/></g>
  <text x="28.0" y="40.2" font-family="Arial, sans-serif" font-size="12.0" fill="#374151">Safari (19.3%)</text>
  <g transform="translate(10.0,50.0)"><rect width="12.0" height="12.0" fill="#45b7d1" stroke="#000" stroke-width="0.5" stroke-opacity="0.2"/></g>
  <text x="28.0" y="60.2" font-family="Arial, sans-serif" font-size="12.0" fill="#374151">Firefox (9.2%)</text>
  <g transform="translate(10.0,70.0)"><rect width="12.0" height="12.0" fill="#ffa07a" stroke="#000" stroke-width="0.5" stroke-opacity="0.2"/></g>
  <text x="28.0" y="80.2" font-family="Arial, sans-serif" font-size="12.0" fill="#374151">Edge (5.1%)</text>
  <g transform="translate(10.0,90.0)"><rect width="12.0" height="12.0" fill="#98d8c8" stroke="#000" stroke-width="0.5" stroke-opacity="0.2"/></g>
  <text x="28.0" y="100.2" font-family="Arial, sans-serif" font-size="12.0" fill="#374151">Other (2.9%)</text>
</g>
</g></g>
<g transform="translate(1600.00, 60.00)"><text x="400.00" y="0.00" fill="#666" text-anchor="middle" font-family="sans-serif" font-size="14.00px" font-weight="bold">Custom Colors</text><g transform="translate(0.00, 20.00)"><path d="M 375.00 147.50 L 375.00 120.00 A 27.50 27.50 0 1 1 354.37 165.69 Z" fill="#ef4444" stroke="#FFFFFF" stroke-width="2.00"/><text x="392.54" y="155.42" fill="#FFFFFF" text-anchor="middle" dominant-baseline="middle" font-family="Arial, sans-serif" font-size="12.00px" font-weight="bold">63.5%</text><path d="M 375.00 147.50 L 354.37 165.69 A 27.50 27.50 0 0 1 350.74 134.56 Z" fill="#f97316" stroke="#FFFFFF" stroke-width="2.00"/><text x="355.88" y="149.73" fill="#FFFFFF" text-anchor="middle" dominant-baseline="middle" font-family="Arial, sans-serif" font-size="12.00px" font-weight="bold">19.3%</text><path d="M 375.00 147.50 L 350.74 134.56 A 27.50 27.50 0 0 1 361.75 123.40 Z" fill="#eab308" stroke="#FFFFFF" stroke-width="2.00"/><text x="361.30" y="133.97" fill="#FFFFFF" text-anchor="middle" dominant-baseline="middle" font-family="Arial, sans-serif" font-size="12.00px" font-weight="bold">9.2%</text><path d="M 375.00 147.50 L 361.75 123.40 A 27.50 27.50 0 0 1 370.02 120.46 Z" fill="#22c55e" stroke="#FFFFFF" stroke-width="2.00"/><text x="368.54" y="129.37" fill="#FFFFFF" text-anchor="middle" dominant-baseline="middle" font-family="Arial, sans-serif" font-size="12.00px" font-weight="bold">5.1%</text><path d="M 375.00 147.50 L 370.02 120.46 A 27.50 27.50 0 0 1 375.00 120.00 Z" fill="#3b82f6" stroke="#FFFFFF" stroke-width="2.00"/><g class="legend" transform="translate(10.0,133.0)">
  <rect x="0" y="0" width="138.8" height="112.0" fill="none" stroke="#e5e7eb" stroke-width="1.0"/>
  <g transform="translate(10.0,10.0)"><rect width="12.0" height="12.0" fill="#ef4444" stroke="#000" stroke-width="0.5" stroke-opacity="0.2"/></g>
  <text x="28.0" y="20.2" font-family="Arial, sans-serif" font-size="12.0" fill="#374151">Chrome (63.5%)</text>
  <g transform="translate(10.0,30.0)"><rect width="12.0" height="12.0" fill="#f97316" stroke="#000" stroke-width="0.5" stroke-opacity="0.2"/></g>
  <text x="28.0" y="40.2" font-family="Arial, sans-serif" font-size="12.0" fill="#374151">Safari (19.3%)</text>
  <g transform="translate(10.0,50.0)"><rect width="12.0" height="12.0" fill="#eab308" stroke="#000" stroke-width="0.5" stroke-opacity="0.2"/></g>
  <text x="28.0" y="60.2" font-family="Arial, sans-serif" font-size="12.0" fill="#374151">Firefox (9.2%)</text>
  <g transform="translate(10.0,70.0)"><rect width="12.0" height="12.0" fill="#22c55e" stroke="#000" stroke-width="0.5" stroke-opacity="0.2"/></g>
  <text x="28.0" y="80.2" font-family="Arial, sans-serif" font-size="12.0" fill="#374151">Edge (5.1%)</text>
  <g transform="translate(10.0,90.0)"><rect width="12.0" height="12.0" fill="#3b82f6" stroke="#000" stroke-width="0.5" stroke-opacity="0.2"/></g>
  <text x="28.0" y="100.2" font-family="Arial, sans-serif" font-size="12.0" fill="#374151">Other (2.9%)</text>
</g>
</g></g>
</svg>