<svg xmlns="http://www.w3.org/2000/svg" width="2400" height="380" viewBox="0 0 2400 380"><rect x="0.00" y="0.00" width="2400.00" height="380.00" fill="#ffffff"/>
<text x="1200.00" y="30.00" fill="#000000" text-anchor="middle" font-family="sans-serif" font-size="20.00px" font-weight="bold">Pie Chart Gallery</text>
<g transform="translate(0, 50)"><text x="400.00" y="0.00" fill="#666" text-anchor="middle" font-family="sans-serif" font-size="14.00px" font-weight="bold">Regular Pie</text><g transform="translate(0, 20)"><path d="M 400.00 160.00 L 400.00 120.00 A 40.00 40.00 0 1 1 370.00 186.45 Z" fill="#ff6b6b" stroke="#FFFFFF" stroke-width="2.00"/><text x="425.52" y="171.52" fill="#FFFFFF" text-anchor="middle" dominant-baseline="middle" font-family="Arial, sans-serif" font-size="12.00px" font-weight="bold">63.5%</text><path d="M 400.00 160.00 L 370.00 186.45 A 40.00 40.00 0 0 1 364.71 141.17 Z" fill="#4ecdc4" stroke="#FFFFFF" stroke-width="2.00"/><text x="372.19" y="163.25" fill="#FFFFFF" text-anchor="middle" dominant-baseline="middle" font-family="Arial, sans-serif" font-size="12.00px" font-weight="bold">19.3%</text><path d="M 400.00 160.00 L 364.71 141.17 A 40.00 40.00 0 0 1 380.73 124.95 Z" fill="#45b7d1" stroke="#FFFFFF" stroke-width="2.00"/><text x="380.08" y="140.33" fill="#FFFFFF" text-anchor="middle" dominant-baseline="middle" font-family="Arial, sans-serif" font-size="12.00px" font-weight="bold">9.2%</text><path d="M 400.00 160.00 L 380.73 124.95 A 40.00 40.00 0 0 1 392.75 120.66 Z" fill="#ffa07a" stroke="#FFFFFF" stroke-width="2.00"/><text x="390.60" y="133.63" fill="#FFFFFF" text-anchor="middle" dominant-baseline="middle" font-family="Arial, sans-serif" font-size="12.00px" font-weight="bold">5.1%</text><path d="M 400.00 160.00 L 392.75 120.66 A 40.00 40.00 0 0 1 400.00 120.00 Z" fill="#98d8c8" stroke="#FFFFFF" stroke-width="2.00"/><g class="legend" transform="translate(10.0,158.0)">
  <rect x="0" y="0" width="138.8" height="112.0" fill="none" stroke="#e5e7eb" stroke-width="1.0"/>
  <g transform="translate(10.0,10.0)"><rect width="12.0" height="12.0" fill="#ff6b6b" stroke="#000" stroke-width="0.5" stroke-opacity="0.2"/></g>
  <text x="28.0" y="20.2" font-family="Arial, sans-serif" font-size="12.0" fill="#374151">Chrome (63.5%)</text>
  <g transform="translate(10.0,30.0)"><rect width="12.0" height="12.0" fill="#4ecdc4" stroke="#000" stroke-width="0.5" stroke-opacity="0.2"/></g>
  <text x="28.0" y="40.2" font-family="Arial, sans-serif" font-size="12.0" fill="#374151">Safari (19.3%)</text>
  <g transform="translate(10.0,50.0)"><rect width="12.0" height="12.0" fill="#45b7d1" stroke="#000" stroke-width="0.5" stroke-opacity="0.2"/></g>
  <text x="28.0" y="60.2" font-family="Arial, sans-serif" font-size="12.0" fill="#374151">Firefox (9.2%)</text>
  <g transform="translate(10.0,70.0)"><rect width="12.0" height="12.0" fill="#ffa07a" stroke="#000" stroke-width="0.5" stroke-opacity="0.2"/></g>
  <text x="28.0" y="80.2" font-family="Arial, sans-serif" font-size="12.0" fill="#374151">Edge (5.1%)</text>
  <g transform="translate(10.0,90.0)"><rect width="12.0" height="12.0" fill="#98d8c8" stroke="#000" stroke-width="0.5" stroke-opacity="0.2"/></g>
  <text x="28.0" y="100.2" font-family="Arial, sans-serif" font-size="12.0" fill="#374151">Other (2.9%)</text>
</g>
</g></g>
<g transform="translate(800, 50)"><text x="400.00" y="0.00" fill="#666" text-anchor="middle" font-family="sans-serif" font-size="14.00px" font-weight="bold">Donut Chart</text><g transform="translate(0, 20)"><path d="M 400.00 120.00 A 40.00 40.00 0 1 1 370.00 186.45 L 388.00 170.58 A 16.00 16.00 0 1 0 400.00 144.00 Z" fill="#ff6b6b" stroke="#FFFFFF" stroke-width="2.00"/><text x="425.52" y="171.52" fill="#FFFFFF" text-anchor="middle" dominant-baseline="middle" font-family="Arial, sans-serif" font-size="12.00px" font-weight="bold">63.5%</text><path d="M 370.00 186.45 A 40.00 40.00 0 0 1 364.71 141.17 L 385.88 152.47 A 16.00 16.00 0 0 0 388.00 170.58 Z" fill="#4ecdc4" stroke="#FFFFFF" stroke-width="2.00"/><text x="372.19" y="163.25" fill="#FFFFFF" text-anchor="middle" dominant-baseline="middle" font-family="Arial, sans-serif" font-size="12.00px" font-weight="bold">19.3%</text><path d="M 364.71 141.17 A 40.00 40.00 0 0 1 380.73 124.95 L 392.29 145.98 A 16.00 16.00 0 0 0 385.88 152.47 Z" fill="#45b7d1" stroke="#FFFFFF" stroke-width="2.00"/><text x="380.08" y="140.33" fill="#FFFFFF" text-anchor="middle" dominant-baseline="middle" font-family="Arial, sans-serif" font-size="12.00px" font-weight="bold">9.2%</text><path d="M 380.73 124.95 A 40.00 40.00 0 0 1 392.75 120.66 L 397.10 144.26 A 16.00 16.00 0 0 0 392.29 145.98 Z" fill="#ffa07a" stroke="#FFFFFF" stroke-width="2.00"/><text x="390.60" y="133.63" fill="#FFFFFF" text-anchor="middle" dominant-baseline="middle" font-family="Arial, sans-serif" font-size="12.00px" font-weight="bold">5.1%</text><path d="M 392.75 120.66 A 40.00 40.00 0 0 1 400.00 120.00 L 400.00 144.00 A 16.00 16.00 0 0 0 397.10 144.26 Z" fill="#98d8c8" stroke="#FFFFFF" stroke-width="2.00"/><g class="legend" transform="translate(10.0,158.0)">
  <rect x="0" y="0" width="138.8" height="112.0" fill="none" stroke="#e5e7eb" stroke-width="1.0"/>
  <g transform="translate(10.0,10.0)"><rect width="12.0" height="12.0" fill="#ff6b6b" stroke="#000" stroke-width="0.5" stroke-opacity="0.2"/></g>
  <text x="28.0" y="20.2" font-family="Arial, sans-serif" font-size="12.0" fill="#374151">Chrome (63.5%)</text>
  <g transform="translate(10.0,30.0)"><rect width="12.0" height="12.0" fill="#4ecdc4" stroke="#000" stroke-width="0.5" stroke-opacity="0.2"/></g>
  <text x="28.0" y="40.2" font-family="Arial, sans-serif" font-size="12.0" fill="#374151">Safari (19.3%)</text>
  <g transform="translate(10.0,50.0)"><rect width="12.0" height="12.0" fill="#45b7d1" stroke="#000" stroke-width="0.5" stroke-opacity="0.2"/></g>
  <text x="28.0" y="60.2" font-family="Arial, sans-serif" font-size="12.0" fill="#374151">Firefox (9.2%)</text>
  <g transform="translate(10.0,70.0)"><rect width="12.0" height="12.0" fill="#ffa07a" stroke="#000" stroke-width="0.5" stroke-opacity="0.2"/></g>
  <text x="28.0" y="80.2" font-family="Arial, sans-serif" font-size="12.0" fill="#374151">Edge (5.1%)</text>
  <g transform="translate(10.0,90.0)"><rect width="12.0" height="12.0" fill="#98d8c8" stroke="#000" stroke-width="0.5" stroke-opacity="0.2"/></g>
  <text x="28.0" y="100.2" font-family="Arial, sans-serif" font-size="12.0" fill="#374151">Other (2.9%)</text>
</g>
</g></g>
<g transform="translate(1600, 50)"><text x="400.00" y="0.00" fill="#666" text-anchor="middle" font-family="sans-serif" font-size="14.00px" font-weight="bold">Custom Colors</text><g transform="translate(0, 20)"><path d="M 400.00 160.00 L 400.00 120.00 A 40.00 40.00 0 1 1 370.00 186.45 Z" fill="#ef4444" stroke="#FFFFFF" stroke-width="2.00"/><text x="425.52" y="171.52" fill="#FFFFFF" text-anchor="middle" dominant-baseline="middle" font-family="Arial, sans-serif" font-size="12.00px" font-weight="bold">63.5%</text><path d="M 400.00 160.00 L 370.00 186.45 A 40.00 40.00 0 0 1 364.71 141.17 Z" fill="#f97316" stroke="#FFFFFF" stroke-width="2.00"/><text x="372.19" y="163.25" fill="#FFFFFF" text-anchor="middle" dominant-baseline="middle" font-family="Arial, sans-serif" font-size="12.00px" font-weight="bold">19.3%</text><path d="M 400.00 160.00 L 364.71 141.17 A 40.00 40.00 0 0 1 380.73 124.95 Z" fill="#eab308" stroke="#FFFFFF" stroke-width="2.00"/><text x="380.08" y="140.33" fill="#FFFFFF" text-anchor="middle" dominant-baseline="middle" font-family="Arial, sans-serif" font-size="12.00px" font-weight="bold">9.2%</text><path d="M 400.00 160.00 L 380.73 124.95 A 40.00 40.00 0 0 1 392.75 120.66 Z" fill="#22c55e" stroke="#FFFFFF" stroke-width="2.00"/><text x="390.60" y="133.63" fill="#FFFFFF" text-anchor="middle" dominant-baseline="middle" font-family="Arial, sans-serif" font-size="12.00px" font-weight="bold">5.1%</text><path d="M 400.00 160.00 L 392.75 120.66 A 40.00 40.00 0 0 1 400.00 120.00 Z" fill="#3b82f6" stroke="#FFFFFF" stroke-width="2.00"/><g class="legend" transform="translate(10.0,158.0)">
  <rect x="0" y="0" width="138.8" height="112.0" fill="none" stroke="#e5e7eb" stroke-width="1.0"/>
  <g transform="translate(10.0,10.0)"><rect width="12.0" height="12.0" fill="#ef4444" stroke="#000" stroke-width="0.5" stroke-opacity="0.2"/></g>
  <text x="28.0" y="20.2" font-family="Arial, sans-serif" font-size="12.0" fill="#374151">Chrome (63.5%)</text>
  <g transform="translate(10.0,30.0)"><rect width="12.0" height="12.0" fill="#f97316" stroke="#000" stroke-width="0.5" stroke-opacity="0.2"/></g>
  <text x="28.0" y="40.2" font-family="Arial, sans-serif" font-size="12.0" fill="#374151">Safari (19.3%)</text>
  <g transform="translate(10.0,50.0)"><rect width="12.0" height="12.0" fill="#eab308" stroke="#000" stroke-width="0.5" stroke-opacity="0.2"/></g>
  <text x="28.0" y="60.2" font-family="Arial, sans-serif" font-size="12.0" fill="#374151">Firefox (9.2%)</text>
  <g transform="translate(10.0,70.0)"><rect width="12.0" height="12.0" fill="#22c55e" stroke="#000" stroke-width="0.5" stroke-opacity="0.2"/></g>
  <text x="28.0" y="80.2" font-family="Arial, sans-serif" font-size="12.0" fill="#374151">Edge (5.1%)</text>
  <g transform="translate(10.0,90.0)"><rect width="12.0" height="12.0" fill="#3b82f6" stroke="#000" stroke-width="0.5" stroke-opacity="0.2"/></g>
  <text x="28.0" y="100.2" font-family="Arial, sans-serif" font-size="12.0" fill="#374151">Other (2.9%)</text>
</g>
</g></g>
</svg>