<svg xmlns="http://www.w3.org/2000/svg" width="1200" height="480" viewBox="0 0 1200 480"><rect x="0.00" y="0.00" width="1200.00" height="480.00" fill="#ffffff"/>
<text x="600.00" y="30.00" fill="#000000" text-anchor="middle" font-family="sans-serif" font-size="20.00px" font-weight="bold">Ridgeline Gallery</text>
<g transform="translate(25.00, 60.00)"><text x="300.00" y="0.00" fill="#666" text-anchor="middle" font-family="sans-serif" font-size="14.00px" font-weight="bold">Standard Ridgeline</text><g transform="translate(0, 30.00)"><path d="M 80.00,67.49 81.92,66.28 83.84,65.11 85.76,63.96 87.68,62.86 89.60,61.80 91.52,60.78 93.43,59.81 95.35,58.89 97.27,58.02 99.19,57.20 101.11,56.44 103.03,55.73 104.95,55.07 106.87,54.46 108.79,53.90 110.71,53.38 112.63,52.91 114.55,52.48 116.46,52.09 118.38,51.74 120.30,51.41 122.22,51.12 124.14,50.84 126.06,50.59 127.98,50.35 129.90,50.13 131.82,49.91 133.74,49.70 135.66,49.48 137.58,49.27 139.49,49.05 141.41,48.83 143.33,48.59 145.25,48.35 147.17,48.09 149.09,47.81 151.01,47.52 152.93,47.21 154.85,46.89 156.77,46.56 158.69,46.20 160.61,45.84 162.53,45.46 164.44,45.08 166.36,44.68 168.28,44.28 170.20,43.88 172.12,43.48 174.04,43.08 175.96,42.70 177.88,42.32 179.80,41.96 181.72,41.62 183.64,41.30 185.56,41.01 187.47,40.75 189.39,40.52 191.31,40.33 193.23,40.18 195.15,40.08 197.07,40.01 198.99,40.00 200.91,40.03 202.83,40.12 204.75,40.25 206.67,40.44 208.59,40.68 210.51,40.98 212.42,41.32 214.34,41.72 216.26,42.17 218.18,42.67 220.10,43.22 222.02,43.81 223.94,44.46 225.86,45.15 227.78,45.88 229.70,46.66 231.62,47.48 233.54,48.33 235.45,49.23 237.37,50.16 239.29,51.13 241.21,52.14 243.13,53.17 245.05,54.23 246.97,55.33 248.89,56.45 250.81,57.59 252.73,58.76 254.65,59.95 256.57,61.16 258.48,62.38 260.40,63.62 262.32,64.87 264.24,66.13 266.16,67.40 268.08,68.67 270.00,69.94" fill="none" stroke="#4285f4" stroke-width="1.50"/>
<text x="70.00" y="69.50" text-anchor="end" dominant-baseline="middle" font-family="sans-serif" font-size="12.00px">January</text>
<path d="M 143.33,103.61 145.25,102.38 147.17,101.13 149.09,99.86 151.01,98.57 152.93,97.27 154.85,95.96 156.77,94.64 158.69,93.32 160.61,91.99 162.53,90.66 164.44,89.34 166.36,88.02 168.28,86.72 170.20,85.43 172.12,84.17 174.04,82.93 175.96,81.72 177.88,80.55 179.80,79.42 181.72,78.33 183.64,77.29 185.56,76.30 187.47,75.37 189.39,74.50 191.31,73.69 193.23,72.95 195.15,72.28 197.07,71.68 198.99,71.15 200.91,70.70 202.83,70.32 204.75,70.01 206.67,69.78 208.59,69.61 210.51,69.52 212.42,69.50 214.34,69.54 216.26,69.65 218.18,69.81 220.10,70.03 222.02,70.29 223.94,70.61 225.86,70.96 227.78,71.35 229.70,71.77 231.62,72.22 233.54,72.68 235.45,73.17 237.37,73.66 239.29,74.16 241.21,74.66 243.13,75.16 245.05,75.65 246.97,76.13 248.89,76.60 250.81,77.06 252.73,77.50 254.65,77.91 256.57,78.31 258.48,78.69 260.40,79.04 262.32,79.37 264.24,79.68 266.16,79.97 268.08,80.23 270.00,80.48 271.92,80.72 273.84,80.94 275.76,81.15 277.68,81.35 279.60,81.54 281.52,81.74 283.43,81.93 285.35,82.13 287.27,82.34 289.19,82.57 291.11,82.81 293.03,83.08 294.95,83.37 296.87,83.69 298.79,84.04 300.71,84.43 302.63,84.87 304.55,85.34 306.46,85.86 308.38,86.44 310.30,87.06 312.22,87.73 314.14,88.46 316.06,89.24 317.98,90.07 319.90,90.95 321.82,91.89 323.74,92.87 325.66,93.90 327.58,94.97 329.49,96.07 331.41,97.22 333.33,98.39" fill="none" stroke="#ea4335" stroke-width="1.50"/>
<text x="70.00" y="99.00" text-anchor="end" dominant-baseline="middle" font-family="sans-serif" font-size="12.00px">February</text>
<path d="M 206.67,126.49 208.59,125.28 210.51,124.11 212.42,122.96 214.34,121.86 216.26,120.80 218.18,119.78 220.10,118.81 222.02,117.89 223.94,117.02 225.86,116.20 227.78,115.44 229.70,114.73 231.62,114.07 233.54,113.46 235.45,112.90 237.37,112.38 239.29,111.91 241.21,111.48 243.13,111.09 245.05,110.74 246.97,110.41 248.89,110.12 250.81,109.84 252.73,109.59 254.65,109.35 256.57,109.13 258.48,108.91 260.40,108.70 262.32,108.48 264.24,108.27 266.16,108.05 268.08,107.83 270.00,107.59 271.92,107.35 273.84,107.09 275.76,106.81 277.68,106.52 279.60,106.21 281.52,105.89 283.43,105.56 285.35,105.20 287.27,104.84 289.19,104.46 291.11,104.08 293.03,103.68 294.95,103.28 296.87,102.88 298.79,102.48 300.71,102.08 302.63,101.70 304.55,101.32 306.46,100.96 308.38,100.62 310.30,100.30 312.22,100.01 314.14,99.75 316.06,99.52 317.98,99.33 319.90,99.18 321.82,99.08 323.74,99.01 325.66,99.00 327.58,99.03 329.49,99.12 331.41,99.25 333.33,99.44 335.25,99.68 337.17,99.98 339.09,100.32 341.01,100.72 342.93,101.17 344.85,101.67 346.77,102.22 348.69,102.81 350.61,103.46 352.53,104.15 354.44,104.88 356.36,105.66 358.28,106.48 360.20,107.33 362.12,108.23 364.04,109.16 365.96,110.13 367.88,111.14 369.80,112.17 371.72,113.23 373.64,114.33 375.56,115.45 377.47,116.59 379.39,117.76 381.31,118.95 383.23,120.16 385.15,121.38 387.07,122.62 388.99,123.87 390.91,125.13 392.83,126.40 394.75,127.67 396.67,128.94" fill="none" stroke="#fbbc04" stroke-width="1.50"/>
<text x="70.00" y="128.50" text-anchor="end" dominant-baseline="middle" font-family="sans-serif" font-size="12.00px">March</text>
<path d="M 270.00,162.61 271.92,161.38 273.84,160.13 275.76,158.86 277.68,157.57 279.60,156.27 281.52,154.96 283.43,153.64 285.35,152.32 287.27,150.99 289.19,149.66 291.11,148.34 293.03,147.02 294.95,145.72 296.87,144.43 298.79,143.17 300.71,141.93 302.63,140.72 304.55,139.55 306.46,138.42 308.38,137.33 310.30,136.29 312.22,135.30 314.14,134.37 316.06,133.50 317.98,132.69 319.90,131.95 321.82,131.28 323.74,130.68 325.66,130.15 327.58,129.70 329.49,129.32 331.41,129.01 333.33,128.78 335.25,128.61 337.17,128.52 339.09,128.50 341.01,128.54 342.93,128.65 344.85,128.81 346.77,129.03 348.69,129.29 350.61,129.61 352.53,129.96 354.44,130.35 356.36,130.77 358.28,131.22 360.20,131.68 362.12,132.17 364.04,132.66 365.96,133.16 367.88,133.66 369.80,134.16 371.72,134.65 373.64,135.13 375.56,135.60 377.47,136.06 379.39,136.50 381.31,136.91 383.23,137.31 385.15,137.69 387.07,138.04 388.99,138.37 390.91,138.68 392.83,138.97 394.75,139.23 396.67,139.48 398.59,139.72 400.51,139.94 402.42,140.15 404.34,140.35 406.26,140.54 408.18,140.74 410.10,140.93 412.02,141.13 413.94,141.34 415.86,141.57 417.78,141.81 419.70,142.08 421.62,142.37 423.54,142.69 425.45,143.04 427.37,143.43 429.29,143.87 431.21,144.34 433.13,144.86 435.05,145.44 436.97,146.06 438.89,146.73 440.81,147.46 442.73,148.24 444.65,149.07 446.57,149.95 448.48,150.89 450.40,151.87 452.32,152.90 454.24,153.97 456.16,155.07 458.08,156.22 460.00,157.39" fill="none" stroke="#34a853" stroke-width="1.50"/>
<text x="70.00" y="158.00" text-anchor="end" dominant-baseline="middle" font-family="sans-serif" font-size="12.00px">April</text>
</g></g>
<g transform="translate(625.00, 60.00)"><text x="300.00" y="0.00" fill="#666" text-anchor="middle" font-family="sans-serif" font-size="14.00px" font-weight="bold">With Fill</text><g transform="translate(0, 30.00)"><path d="M 80.00 99.00 L 80.00,67.49 81.92,66.28 83.84,65.11 85.76,63.96 87.68,62.86 89.60,61.80 91.52,60.78 93.43,59.81 95.35,58.89 97.27,58.02 99.19,57.20 101.11,56.44 103.03,55.73 104.95,55.07 106.87,54.46 108.79,53.90 110.71,53.38 112.63,52.91 114.55,52.48 116.46,52.09 118.38,51.74 120.30,51.41 122.22,51.12 124.14,50.84 126.06,50.59 127.98,50.35 129.90,50.13 131.82,49.91 133.74,49.70 135.66,49.48 137.58,49.27 139.49,49.05 141.41,48.83 143.33,48.59 145.25,48.35 147.17,48.09 149.09,47.81 151.01,47.52 152.93,47.21 154.85,46.89 156.77,46.56 158.69,46.20 160.61,45.84 162.53,45.46 164.44,45.08 166.36,44.68 168.28,44.28 170.20,43.88 172.12,43.48 174.04,43.08 175.96,42.70 177.88,42.32 179.80,41.96 181.72,41.62 183.64,41.30 185.56,41.01 187.47,40.75 189.39,40.52 191.31,40.33 193.23,40.18 195.15,40.08 197.07,40.01 198.99,40.00 200.91,40.03 202.83,40.12 204.75,40.25 206.67,40.44 208.59,40.68 210.51,40.98 212.42,41.32 214.34,41.72 216.26,42.17 218.18,42.67 220.10,43.22 222.02,43.81 223.94,44.46 225.86,45.15 227.78,45.88 229.70,46.66 231.62,47.48 233.54,48.33 235.45,49.23 237.37,50.16 239.29,51.13 241.21,52.14 243.13,53.17 245.05,54.23 246.97,55.33 248.89,56.45 250.81,57.59 252.73,58.76 254.65,59.95 256.57,61.16 258.48,62.38 260.40,63.62 262.32,64.87 264.24,66.13 266.16,67.40 268.08,68.67 270.00,69.94 L 270.00 99.00 Z" fill="#4285f4" stroke="none" opacity="0.70"/>
<path d="M 80.00,67.49 81.92,66.28 83.84,65.11 85.76,63.96 87.68,62.86 89.60,61.80 91.52,60.78 93.43,59.81 95.35,58.89 97.27,58.02 99.19,57.20 101.11,56.44 103.03,55.73 104.95,55.07 106.87,54.46 108.79,53.90 110.71,53.38 112.63,52.91 114.55,52.48 116.46,52.09 118.38,51.74 120.30,51.41 122.22,51.12 124.14,50.84 126.06,50.59 127.98,50.35 129.90,50.13 131.82,49.91 133.74,49.70 135.66,49.48 137.58,49.27 139.49,49.05 141.41,48.83 143.33,48.59 145.25,48.35 147.17,48.09 149.09,47.81 151.01,47.52 152.93,47.21 154.85,46.89 156.77,46.56 158.69,46.20 160.61,45.84 162.53,45.46 164.44,45.08 166.36,44.68 168.28,44.28 170.20,43.88 172.12,43.48 174.04,43.08 175.96,42.70 177.88,42.32 179.80,41.96 181.72,41.62 183.64,41.30 185.56,41.01 187.47,40.75 189.39,40.52 191.31,40.33 193.23,40.18 195.15,40.08 197.07,40.01 198.99,40.00 200.91,40.03 202.83,40.12 204.75,40.25 206.67,40.44 208.59,40.68 210.51,40.98 212.42,41.32 214.34,41.72 216.26,42.17 218.18,42.67 220.10,43.22 222.02,43.81 223.94,44.46 225.86,45.15 227.78,45.88 229.70,46.66 231.62,47.48 233.54,48.33 235.45,49.23 237.37,50.16 239.29,51.13 241.21,52.14 243.13,53.17 245.05,54.23 246.97,55.33 248.89,56.45 250.81,57.59 252.73,58.76 254.65,59.95 256.57,61.16 258.48,62.38 260.40,63.62 262.32,64.87 264.24,66.13 266.16,67.40 268.08,68.67 270.00,69.94" fill="none" stroke="#4285f4" stroke-width="1.50"/>
<text x="70.00" y="69.50" text-anchor="end" dominant-baseline="middle" font-family="sans-serif" font-size="12.00px">January</text>
<path d="M 143.33 128.50 L 143.33,103.61 145.25,102.38 147.17,101.13 149.09,99.86 151.01,98.57 152.93,97.27 154.85,95.96 156.77,94.64 158.69,93.32 160.61,91.99 162.53,90.66 164.44,89.34 166.36,88.02 168.28,86.72 170.20,85.43 172.12,84.17 174.04,82.93 175.96,81.72 177.88,80.55 179.80,79.42 181.72,78.33 183.64,77.29 185.56,76.30 187.47,75.37 189.39,74.50 191.31,73.69 193.23,72.95 195.15,72.28 197.07,71.68 198.99,71.15 200.91,70.70 202.83,70.32 204.75,70.01 206.67,69.78 208.59,69.61 210.51,69.52 212.42,69.50 214.34,69.54 216.26,69.65 218.18,69.81 220.10,70.03 222.02,70.29 223.94,70.61 225.86,70.96 227.78,71.35 229.70,71.77 231.62,72.22 233.54,72.68 235.45,73.17 237.37,73.66 239.29,74.16 241.21,74.66 243.13,75.16 245.05,75.65 246.97,76.13 248.89,76.60 250.81,77.06 252.73,77.50 254.65,77.91 256.57,78.31 258.48,78.69 260.40,79.04 262.32,79.37 264.24,79.68 266.16,79.97 268.08,80.23 270.00,80.48 271.92,80.72 273.84,80.94 275.76,81.15 277.68,81.35 279.60,81.54 281.52,81.74 283.43,81.93 285.35,82.13 287.27,82.34 289.19,82.57 291.11,82.81 293.03,83.08 294.95,83.37 296.87,83.69 298.79,84.04 300.71,84.43 302.63,84.87 304.55,85.34 306.46,85.86 308.38,86.44 310.30,87.06 312.22,87.73 314.14,88.46 316.06,89.24 317.98,90.07 319.90,90.95 321.82,91.89 323.74,92.87 325.66,93.90 327.58,94.97 329.49,96.07 331.41,97.22 333.33,98.39 L 333.33 128.50 Z" fill="#ea4335" stroke="none" opacity="0.70"/>
<path d="M 143.33,103.61 145.25,102.38 147.17,101.13 149.09,99.86 151.01,98.57 152.93,97.27 154.85,95.96 156.77,94.64 158.69,93.32 160.61,91.99 162.53,90.66 164.44,89.34 166.36,88.02 168.28,86.72 170.20,85.43 172.12,84.17 174.04,82.93 175.96,81.72 177.88,80.55 179.80,79.42 181.72,78.33 183.64,77.29 185.56,76.30 187.47,75.37 189.39,74.50 191.31,73.69 193.23,72.95 195.15,72.28 197.07,71.68 198.99,71.15 200.91,70.70 202.83,70.32 204.75,70.01 206.67,69.78 208.59,69.61 210.51,69.52 212.42,69.50 214.34,69.54 216.26,69.65 218.18,69.81 220.10,70.03 222.02,70.29 223.94,70.61 225.86,70.96 227.78,71.35 229.70,71.77 231.62,72.22 233.54,72.68 235.45,73.17 237.37,73.66 239.29,74.16 241.21,74.66 243.13,75.16 245.05,75.65 246.97,76.13 248.89,76.60 250.81,77.06 252.73,77.50 254.65,77.91 256.57,78.31 258.48,78.69 260.40,79.04 262.32,79.37 264.24,79.68 266.16,79.97 268.08,80.23 270.00,80.48 271.92,80.72 273.84,80.94 275.76,81.15 277.68,81.35 279.60,81.54 281.52,81.74 283.43,81.93 285.35,82.13 287.27,82.34 289.19,82.57 291.11,82.81 293.03,83.08 294.95,83.37 296.87,83.69 298.79,84.04 300.71,84.43 302.63,84.87 304.55,85.34 306.46,85.86 308.38,86.44 310.30,87.06 312.22,87.73 314.14,88.46 316.06,89.24 317.98,90.07 319.90,90.95 321.82,91.89 323.74,92.87 325.66,93.90 327.58,94.97 329.49,96.07 331.41,97.22 333.33,98.39" fill="none" stroke="#ea4335" stroke-width="1.50"/>
<text x="70.00" y="99.00" text-anchor="end" dominant-baseline="middle" font-family="sans-serif" font-size="12.00px">February</text>
<path d="M 206.67 158.00 L 206.67,126.49 208.59,125.28 210.51,124.11 212.42,122.96 214.34,121.86 216.26,120.80 218.18,119.78 220.10,118.81 222.02,117.89 223.94,117.02 225.86,116.20 227.78,115.44 229.70,114.73 231.62,114.07 233.54,113.46 235.45,112.90 237.37,112.38 239.29,111.91 241.21,111.48 243.13,111.09 245.05,110.74 246.97,110.41 248.89,110.12 250.81,109.84 252.73,109.59 254.65,109.35 256.57,109.13 258.48,108.91 260.40,108.70 262.32,108.48 264.24,108.27 266.16,108.05 268.08,107.83 270.00,107.59 271.92,107.35 273.84,107.09 275.76,106.81 277.68,106.52 279.60,106.21 281.52,105.89 283.43,105.56 285.35,105.20 287.27,104.84 289.19,104.46 291.11,104.08 293.03,103.68 294.95,103.28 296.87,102.88 298.79,102.48 300.71,102.08 302.63,101.70 304.55,101.32 306.46,100.96 308.38,100.62 310.30,100.30 312.22,100.01 314.14,99.75 316.06,99.52 317.98,99.33 319.90,99.18 321.82,99.08 323.74,99.01 325.66,99.00 327.58,99.03 329.49,99.12 331.41,99.25 333.33,99.44 335.25,99.68 337.17,99.98 339.09,100.32 341.01,100.72 342.93,101.17 344.85,101.67 346.77,102.22 348.69,102.81 350.61,103.46 352.53,104.15 354.44,104.88 356.36,105.66 358.28,106.48 360.20,107.33 362.12,108.23 364.04,109.16 365.96,110.13 367.88,111.14 369.80,112.17 371.72,113.23 373.64,114.33 375.56,115.45 377.47,116.59 379.39,117.76 381.31,118.95 383.23,120.16 385.15,121.38 387.07,122.62 388.99,123.87 390.91,125.13 392.83,126.40 394.75,127.67 396.67,128.94 L 396.67 158.00 Z" fill="#fbbc04" stroke="none" opacity="0.70"/>
<path d="M 206.67,126.49 208.59,125.28 210.51,124.11 212.42,122.96 214.34,121.86 216.26,120.80 218.18,119.78 220.10,118.81 222.02,117.89 223.94,117.02 225.86,116.20 227.78,115.44 229.70,114.73 231.62,114.07 233.54,113.46 235.45,112.90 237.37,112.38 239.29,111.91 241.21,111.48 243.13,111.09 245.05,110.74 246.97,110.41 248.89,110.12 250.81,109.84 252.73,109.59 254.65,109.35 256.57,109.13 258.48,108.91 260.40,108.70 262.32,108.48 264.24,108.27 266.16,108.05 268.08,107.83 270.00,107.59 271.92,107.35 273.84,107.09 275.76,106.81 277.68,106.52 279.60,106.21 281.52,105.89 283.43,105.56 285.35,105.20 287.27,104.84 289.19,104.46 291.11,104.08 293.03,103.68 294.95,103.28 296.87,102.88 298.79,102.48 300.71,102.08 302.63,101.70 304.55,101.32 306.46,100.96 308.38,100.62 310.30,100.30 312.22,100.01 314.14,99.75 316.06,99.52 317.98,99.33 319.90,99.18 321.82,99.08 323.74,99.01 325.66,99.00 327.58,99.03 329.49,99.12 331.41,99.25 333.33,99.44 335.25,99.68 337.17,99.98 339.09,100.32 341.01,100.72 342.93,101.17 344.85,101.67 346.77,102.22 348.69,102.81 350.61,103.46 352.53,104.15 354.44,104.88 356.36,105.66 358.28,106.48 360.20,107.33 362.12,108.23 364.04,109.16 365.96,110.13 367.88,111.14 369.80,112.17 371.72,113.23 373.64,114.33 375.56,115.45 377.47,116.59 379.39,117.76 381.31,118.95 383.23,120.16 385.15,121.38 387.07,122.62 388.99,123.87 390.91,125.13 392.83,126.40 394.75,127.67 396.67,128.94" fill="none" stroke="#fbbc04" stroke-width="1.50"/>
<text x="70.00" y="128.50" text-anchor="end" dominant-baseline="middle" font-family="sans-serif" font-size="12.00px">March</text>
<path d="M 270.00 187.50 L 270.00,162.61 271.92,161.38 273.84,160.13 275.76,158.86 277.68,157.57 279.60,156.27 281.52,154.96 283.43,153.64 285.35,152.32 287.27,150.99 289.19,149.66 291.11,148.34 293.03,147.02 294.95,145.72 296.87,144.43 298.79,143.17 300.71,141.93 302.63,140.72 304.55,139.55 306.46,138.42 308.38,137.33 310.30,136.29 312.22,135.30 314.14,134.37 316.06,133.50 317.98,132.69 319.90,131.95 321.82,131.28 323.74,130.68 325.66,130.15 327.58,129.70 329.49,129.32 331.41,129.01 333.33,128.78 335.25,128.61 337.17,128.52 339.09,128.50 341.01,128.54 342.93,128.65 344.85,128.81 346.77,129.03 348.69,129.29 350.61,129.61 352.53,129.96 354.44,130.35 356.36,130.77 358.28,131.22 360.20,131.68 362.12,132.17 364.04,132.66 365.96,133.16 367.88,133.66 369.80,134.16 371.72,134.65 373.64,135.13 375.56,135.60 377.47,136.06 379.39,136.50 381.31,136.91 383.23,137.31 385.15,137.69 387.07,138.04 388.99,138.37 390.91,138.68 392.83,138.97 394.75,139.23 396.67,139.48 398.59,139.72 400.51,139.94 402.42,140.15 404.34,140.35 406.26,140.54 408.18,140.74 410.10,140.93 412.02,141.13 413.94,141.34 415.86,141.57 417.78,141.81 419.70,142.08 421.62,142.37 423.54,142.69 425.45,143.04 427.37,143.43 429.29,143.87 431.21,144.34 433.13,144.86 435.05,145.44 436.97,146.06 438.89,146.73 440.81,147.46 442.73,148.24 444.65,149.07 446.57,149.95 448.48,150.89 450.40,151.87 452.32,152.90 454.24,153.97 456.16,155.07 458.08,156.22 460.00,157.39 L 460.00 187.50 Z" fill="#34a853" stroke="none" opacity="0.70"/>
<path d="M 270.00,162.61 271.92,161.38 273.84,160.13 275.76,158.86 277.68,157.57 279.60,156.27 281.52,154.96 283.43,153.64 285.35,152.32 287.27,150.99 289.19,149.66 291.11,148.34 293.03,147.02 294.95,145.72 296.87,144.43 298.79,143.17 300.71,141.93 302.63,140.72 304.55,139.55 306.46,138.42 308.38,137.33 310.30,136.29 312.22,135.30 314.14,134.37 316.06,133.50 317.98,132.69 319.90,131.95 321.82,131.28 323.74,130.68 325.66,130.15 327.58,129.70 329.49,129.32 331.41,129.01 333.33,128.78 335.25,128.61 337.17,128.52 339.09,128.50 341.01,128.54 342.93,128.65 344.85,128.81 346.77,129.03 348.69,129.29 350.61,129.61 352.53,129.96 354.44,130.35 356.36,130.77 358.28,131.22 360.20,131.68 362.12,132.17 364.04,132.66 365.96,133.16 367.88,133.66 369.80,134.16 371.72,134.65 373.64,135.13 375.56,135.60 377.47,136.06 379.39,136.50 381.31,136.91 383.23,137.31 385.15,137.69 387.07,138.04 388.99,138.37 390.91,138.68 392.83,138.97 394.75,139.23 396.67,139.48 398.59,139.72 400.51,139.94 402.42,140.15 404.34,140.35 406.26,140.54 408.18,140.74 410.10,140.93 412.02,141.13 413.94,141.34 415.86,141.57 417.78,141.81 419.70,142.08 421.62,142.37 423.54,142.69 425.45,143.04 427.37,143.43 429.29,143.87 431.21,144.34 433.13,144.86 435.05,145.44 436.97,146.06 438.89,146.73 440.81,147.46 442.73,148.24 444.65,149.07 446.57,149.95 448.48,150.89 450.40,151.87 452.32,152.90 454.24,153.97 456.16,155.07 458.08,156.22 460.00,157.39" fill="none" stroke="#34a853" stroke-width="1.50"/>
<text x="70.00" y="158.00" text-anchor="end" dominant-baseline="middle" font-family="sans-serif" font-size="12.00px">April</text>
</g></g>
</svg>