<svg xmlns="http://www.w3.org/2000/svg" width="1200" height="400" viewBox="0 0 1200 400"><rect x="0.00" y="0.00" width="1200.00" height="400.00" fill="#ffffff"/>
<text x="600.00" y="30.00" fill="#000000" text-anchor="middle" font-family="sans-serif" font-size="20.00px" font-weight="bold">Ridgeline Gallery</text>
<g transform="translate(25, 60)"><text x="300.00" y="0.00" fill="#666" text-anchor="middle" font-family="sans-serif" font-size="14.00px" font-weight="bold">Standard Ridgeline</text><g transform="translate(0, 30)"><path d="M 80.00,69.82 82.17,68.51 84.34,67.23 86.52,65.99 88.69,64.80 90.86,63.64 93.03,62.54 95.20,61.49 97.37,60.49 99.55,59.55 101.72,58.66 103.89,57.83 106.06,57.06 108.23,56.34 110.40,55.68 112.58,55.07 114.75,54.52 116.92,54.01 119.09,53.54 121.26,53.12 123.43,52.73 125.61,52.38 127.78,52.06 129.95,51.76 132.12,51.49 134.29,51.23 136.46,50.98 138.64,50.75 140.81,50.52 142.98,50.29 145.15,50.06 147.32,49.82 149.49,49.58 151.67,49.32 153.84,49.05 156.01,48.77 158.18,48.47 160.35,48.16 162.53,47.83 164.70,47.48 166.87,47.11 169.04,46.73 171.21,46.33 173.38,45.93 175.56,45.51 177.73,45.08 179.90,44.64 182.07,44.21 184.24,43.77 186.41,43.34 188.59,42.92 190.76,42.52 192.93,42.13 195.10,41.76 197.27,41.41 199.44,41.10 201.62,40.81 203.79,40.57 205.96,40.36 208.13,40.20 210.30,40.08 212.47,40.02 214.65,40.00 216.82,40.04 218.99,40.13 221.16,40.28 223.33,40.48 225.51,40.74 227.68,41.06 229.85,41.43 232.02,41.86 234.19,42.35 236.36,42.89 238.54,43.49 240.71,44.14 242.88,44.83 245.05,45.58 247.22,46.38 249.39,47.22 251.57,48.11 253.74,49.04 255.91,50.01 258.08,51.03 260.25,52.08 262.42,53.16 264.60,54.29 266.77,55.44 268.94,56.63 271.11,57.84 273.28,59.08 275.45,60.35 277.63,61.64 279.80,62.95 281.97,64.28 284.14,65.62 286.31,66.98 288.48,68.35 290.66,69.72 292.83,71.10 295.00,72.48" fill="none" stroke="#4285f4" stroke-width="1.50"/>
<text x="70.00" y="72.00" text-anchor="end" dominant-baseline="middle" font-family="sans-serif" font-size="12.00px">January</text>
<path d="M 151.67,109.00 153.84,107.67 156.01,106.31 158.18,104.93 160.35,103.54 162.53,102.13 164.70,100.71 166.87,99.27 169.04,97.84 171.21,96.39 173.38,94.95 175.56,93.52 177.73,92.09 179.90,90.68 182.07,89.28 184.24,87.91 186.41,86.57 188.59,85.26 190.76,83.99 192.93,82.76 195.10,81.58 197.27,80.45 199.44,79.38 201.62,78.37 203.79,77.42 205.96,76.55 208.13,75.74 210.30,75.01 212.47,74.36 214.65,73.79 216.82,73.30 218.99,72.89 221.16,72.55 223.33,72.30 225.51,72.12 227.68,72.03 229.85,72.00 232.02,72.05 234.19,72.16 236.36,72.33 238.54,72.57 240.71,72.86 242.88,73.20 245.05,73.58 247.22,74.01 249.39,74.46 251.57,74.95 253.74,75.45 255.91,75.98 258.08,76.51 260.25,77.05 262.42,77.60 264.60,78.14 266.77,78.67 268.94,79.20 271.11,79.71 273.28,80.20 275.45,80.67 277.63,81.13 279.80,81.56 281.97,81.96 284.14,82.35 286.31,82.71 288.48,83.04 290.66,83.35 292.83,83.64 295.00,83.91 297.17,84.17 299.34,84.41 301.52,84.63 303.69,84.85 305.86,85.06 308.03,85.27 310.20,85.48 312.37,85.70 314.55,85.93 316.72,86.18 318.89,86.44 321.06,86.73 323.23,87.04 325.40,87.39 327.58,87.77 329.75,88.20 331.92,88.67 334.09,89.18 336.26,89.75 338.43,90.37 340.61,91.05 342.78,91.78 344.95,92.56 347.12,93.41 349.29,94.31 351.46,95.27 353.64,96.28 355.81,97.35 357.98,98.46 360.15,99.62 362.32,100.83 364.49,102.07 366.67,103.34" fill="none" stroke="#ea4335" stroke-width="1.50"/>
<text x="70.00" y="104.00" text-anchor="end" dominant-baseline="middle" font-family="sans-serif" font-size="12.00px">February</text>
<path d="M 223.33,133.82 225.51,132.51 227.68,131.23 229.85,129.99 232.02,128.80 234.19,127.64 236.36,126.54 238.54,125.49 240.71,124.49 242.88,123.55 245.05,122.66 247.22,121.83 249.39,121.06 251.57,120.34 253.74,119.68 255.91,119.07 258.08,118.52 260.25,118.01 262.42,117.54 264.60,117.12 266.77,116.73 268.94,116.38 271.11,116.06 273.28,115.76 275.45,115.49 277.63,115.23 279.80,114.98 281.97,114.75 284.14,114.52 286.31,114.29 288.48,114.06 290.66,113.82 292.83,113.58 295.00,113.32 297.17,113.05 299.34,112.77 301.52,112.47 303.69,112.16 305.86,111.83 308.03,111.48 310.20,111.11 312.37,110.73 314.55,110.33 316.72,109.93 318.89,109.51 321.06,109.08 323.23,108.64 325.40,108.21 327.58,107.77 329.75,107.34 331.92,106.92 334.09,106.52 336.26,106.13 338.43,105.76 340.61,105.41 342.78,105.10 344.95,104.81 347.12,104.57 349.29,104.36 351.46,104.20 353.64,104.08 355.81,104.02 357.98,104.00 360.15,104.04 362.32,104.13 364.49,104.28 366.67,104.48 368.84,104.74 371.01,105.06 373.18,105.43 375.35,105.86 377.53,106.35 379.70,106.89 381.87,107.49 384.04,108.14 386.21,108.83 388.38,109.58 390.56,110.38 392.73,111.22 394.90,112.11 397.07,113.04 399.24,114.01 401.41,115.03 403.59,116.08 405.76,117.16 407.93,118.29 410.10,119.44 412.27,120.63 414.44,121.84 416.62,123.08 418.79,124.35 420.96,125.64 423.13,126.95 425.30,128.28 427.47,129.62 429.65,130.98 431.82,132.35 433.99,133.72 436.16,135.10 438.33,136.48" fill="none" stroke="#fbbc04" stroke-width="1.50"/>
<text x="70.00" y="136.00" text-anchor="end" dominant-baseline="middle" font-family="sans-serif" font-size="12.00px">March</text>
<path d="M 295.00,173.00 297.17,171.67 299.34,170.31 301.52,168.93 303.69,167.54 305.86,166.13 308.03,164.71 310.20,163.27 312.37,161.84 314.55,160.39 316.72,158.95 318.89,157.52 321.06,156.09 323.23,154.68 325.40,153.28 327.58,151.91 329.75,150.57 331.92,149.26 334.09,147.99 336.26,146.76 338.43,145.58 340.61,144.45 342.78,143.38 344.95,142.37 347.12,141.42 349.29,140.55 351.46,139.74 353.64,139.01 355.81,138.36 357.98,137.79 360.15,137.30 362.32,136.89 364.49,136.55 366.67,136.30 368.84,136.12 371.01,136.03 373.18,136.00 375.35,136.05 377.53,136.16 379.70,136.33 381.87,136.57 384.04,136.86 386.21,137.20 388.38,137.58 390.56,138.01 392.73,138.46 394.90,138.95 397.07,139.45 399.24,139.98 401.41,140.51 403.59,141.05 405.76,141.60 407.93,142.14 410.10,142.67 412.27,143.20 414.44,143.71 416.62,144.20 418.79,144.67 420.96,145.13 423.13,145.56 425.30,145.96 427.47,146.35 429.65,146.71 431.82,147.04 433.99,147.35 436.16,147.64 438.33,147.91 440.51,148.17 442.68,148.41 444.85,148.63 447.02,148.85 449.19,149.06 451.36,149.27 453.54,149.48 455.71,149.70 457.88,149.93 460.05,150.18 462.22,150.44 464.39,150.73 466.57,151.04 468.74,151.39 470.91,151.77 473.08,152.20 475.25,152.67 477.42,153.18 479.60,153.75 481.77,154.37 483.94,155.05 486.11,155.78 488.28,156.56 490.45,157.41 492.63,158.31 494.80,159.27 496.97,160.28 499.14,161.35 501.31,162.46 503.48,163.62 505.66,164.83 507.83,166.07 510.00,167.34" fill="none" stroke="#34a853" stroke-width="1.50"/>
<text x="70.00" y="168.00" text-anchor="end" dominant-baseline="middle" font-family="sans-serif" font-size="12.00px">April</text>
</g></g>
<g transform="translate(625, 60)"><text x="300.00" y="0.00" fill="#666" text-anchor="middle" font-family="sans-serif" font-size="14.00px" font-weight="bold">With Fill</text><g transform="translate(0, 30)"><path d="M 80.00 104.00 L 80.00,69.82 82.17,68.51 84.34,67.23 86.52,65.99 88.69,64.80 90.86,63.64 93.03,62.54 95.20,61.49 97.37,60.49 99.55,59.55 101.72,58.66 103.89,57.83 106.06,57.06 108.23,56.34 110.40,55.68 112.58,55.07 114.75,54.52 116.92,54.01 119.09,53.54 121.26,53.12 123.43,52.73 125.61,52.38 127.78,52.06 129.95,51.76 132.12,51.49 134.29,51.23 136.46,50.98 138.64,50.75 140.81,50.52 142.98,50.29 145.15,50.06 147.32,49.82 149.49,49.58 151.67,49.32 153.84,49.05 156.01,48.77 158.18,48.47 160.35,48.16 162.53,47.83 164.70,47.48 166.87,47.11 169.04,46.73 171.21,46.33 173.38,45.93 175.56,45.51 177.73,45.08 179.90,44.64 182.07,44.21 184.24,43.77 186.41,43.34 188.59,42.92 190.76,42.52 192.93,42.13 195.10,41.76 197.27,41.41 199.44,41.10 201.62,40.81 203.79,40.57 205.96,40.36 208.13,40.20 210.30,40.08 212.47,40.02 214.65,40.00 216.82,40.04 218.99,40.13 221.16,40.28 223.33,40.48 225.51,40.74 227.68,41.06 229.85,41.43 232.02,41.86 234.19,42.35 236.36,42.89 238.54,43.49 240.71,44.14 242.88,44.83 245.05,45.58 247.22,46.38 249.39,47.22 251.57,48.11 253.74,49.04 255.91,50.01 258.08,51.03 260.25,52.08 262.42,53.16 264.60,54.29 266.77,55.44 268.94,56.63 271.11,57.84 273.28,59.08 275.45,60.35 277.63,61.64 279.80,62.95 281.97,64.28 284.14,65.62 286.31,66.98 288.48,68.35 290.66,69.72 292.83,71.10 295.00,72.48 L 295.00 104.00 Z" fill="#4285f4" stroke="none" opacity="0.70"/>
<path d="M 80.00,69.82 82.17,68.51 84.34,67.23 86.52,65.99 88.69,64.80 90.86,63.64 93.03,62.54 95.20,61.49 97.37,60.49 99.55,59.55 101.72,58.66 103.89,57.83 106.06,57.06 108.23,56.34 110.40,55.68 112.58,55.07 114.75,54.52 116.92,54.01 119.09,53.54 121.26,53.12 123.43,52.73 125.61,52.38 127.78,52.06 129.95,51.76 132.12,51.49 134.29,51.23 136.46,50.98 138.64,50.75 140.81,50.52 142.98,50.29 145.15,50.06 147.32,49.82 149.49,49.58 151.67,49.32 153.84,49.05 156.01,48.77 158.18,48.47 160.35,48.16 162.53,47.83 164.70,47.48 166.87,47.11 169.04,46.73 171.21,46.33 173.38,45.93 175.56,45.51 177.73,45.08 179.90,44.64 182.07,44.21 184.24,43.77 186.41,43.34 188.59,42.92 190.76,42.52 192.93,42.13 195.10,41.76 197.27,41.41 199.44,41.10 201.62,40.81 203.79,40.57 205.96,40.36 208.13,40.20 210.30,40.08 212.47,40.02 214.65,40.00 216.82,40.04 218.99,40.13 221.16,40.28 223.33,40.48 225.51,40.74 227.68,41.06 229.85,41.43 232.02,41.86 234.19,42.35 236.36,42.89 238.54,43.49 240.71,44.14 242.88,44.83 245.05,45.58 247.22,46.38 249.39,47.22 251.57,48.11 253.74,49.04 255.91,50.01 258.08,51.03 260.25,52.08 262.42,53.16 264.60,54.29 266.77,55.44 268.94,56.63 271.11,57.84 273.28,59.08 275.45,60.35 277.63,61.64 279.80,62.95 281.97,64.28 284.14,65.62 286.31,66.98 288.48,68.35 290.66,69.72 292.83,71.10 295.00,72.48" fill="none" stroke="#4285f4" stroke-width="1.50"/>
<text x="70.00" y="72.00" text-anchor="end" dominant-baseline="middle" font-family="sans-serif" font-size="12.00px">January</text>
<path d="M 151.67 136.00 L 151.67,109.00 153.84,107.67 156.01,106.31 158.18,104.93 160.35,103.54 162.53,102.13 164.70,100.71 166.87,99.27 169.04,97.84 171.21,96.39 173.38,94.95 175.56,93.52 177.73,92.09 179.90,90.68 182.07,89.28 184.24,87.91 186.41,86.57 188.59,85.26 190.76,83.99 192.93,82.76 195.10,81.58 197.27,80.45 199.44,79.38 201.62,78.37 203.79,77.42 205.96,76.55 208.13,75.74 210.30,75.01 212.47,74.36 214.65,73.79 216.82,73.30 218.99,72.89 221.16,72.55 223.33,72.30 225.51,72.12 227.68,72.03 229.85,72.00 232.02,72.05 234.19,72.16 236.36,72.33 238.54,72.57 240.71,72.86 242.88,73.20 245.05,73.58 247.22,74.01 249.39,74.46 251.57,74.95 253.74,75.45 255.91,75.98 258.08,76.51 260.25,77.05 262.42,77.60 264.60,78.14 266.77,78.67 268.94,79.20 271.11,79.71 273.28,80.20 275.45,80.67 277.63,81.13 279.80,81.56 281.97,81.96 284.14,82.35 286.31,82.71 288.48,83.04 290.66,83.35 292.83,83.64 295.00,83.91 297.17,84.17 299.34,84.41 301.52,84.63 303.69,84.85 305.86,85.06 308.03,85.27 310.20,85.48 312.37,85.70 314.55,85.93 316.72,86.18 318.89,86.44 321.06,86.73 323.23,87.04 325.40,87.39 327.58,87.77 329.75,88.20 331.92,88.67 334.09,89.18 336.26,89.75 338.43,90.37 340.61,91.05 342.78,91.78 344.95,92.56 347.12,93.41 349.29,94.31 351.46,95.27 353.64,96.28 355.81,97.35 357.98,98.46 360.15,99.62 362.32,100.83 364.49,102.07 366.67,103.34 L 366.67 136.00 Z" fill="#ea4335" stroke="none" opacity="0.70"/>
<path d="M 151.67,109.00 153.84,107.67 156.01,106.31 158.18,104.93 160.35,103.54 162.53,102.13 164.70,100.71 166.87,99.27 169.04,97.84 171.21,96.39 173.38,94.95 175.56,93.52 177.73,92.09 179.90,90.68 182.07,89.28 184.24,87.91 186.41,86.57 188.59,85.26 190.76,83.99 192.93,82.76 195.10,81.58 197.27,80.45 199.44,79.38 201.62,78.37 203.79,77.42 205.96,76.55 208.13,75.74 210.30,75.01 212.47,74.36 214.65,73.79 216.82,73.30 218.99,72.89 221.16,72.55 223.33,72.30 225.51,72.12 227.68,72.03 229.85,72.00 232.02,72.05 234.19,72.16 236.36,72.33 238.54,72.57 240.71,72.86 242.88,73.20 245.05,73.58 247.22,74.01 249.39,74.46 251.57,74.95 253.74,75.45 255.91,75.98 258.08,76.51 260.25,77.05 262.42,77.60 264.60,78.14 266.77,78.67 268.94,79.20 271.11,79.71 273.28,80.20 275.45,80.67 277.63,81.13 279.80,81.56 281.97,81.96 284.14,82.35 286.31,82.71 288.48,83.04 290.66,83.35 292.83,83.64 295.00,83.91 297.17,84.17 299.34,84.41 301.52,84.63 303.69,84.85 305.86,85.06 308.03,85.27 310.20,85.48 312.37,85.70 314.55,85.93 316.72,86.18 318.89,86.44 321.06,86.73 323.23,87.04 325.40,87.39 327.58,87.77 329.75,88.20 331.92,88.67 334.09,89.18 336.26,89.75 338.43,90.37 340.61,91.05 342.78,91.78 344.95,92.56 347.12,93.41 349.29,94.31 351.46,95.27 353.64,96.28 355.81,97.35 357.98,98.46 360.15,99.62 362.32,100.83 364.49,102.07 366.67,103.34" fill="none" stroke="#ea4335" stroke-width="1.50"/>
<text x="70.00" y="104.00" text-anchor="end" dominant-baseline="middle" font-family="sans-serif" font-size="12.00px">February</text>
<path d="M 223.33 168.00 L 223.33,133.82 225.51,132.51 227.68,131.23 229.85,129.99 232.02,128.80 234.19,127.64 236.36,126.54 238.54,125.49 240.71,124.49 242.88,123.55 245.05,122.66 247.22,121.83 249.39,121.06 251.57,120.34 253.74,119.68 255.91,119.07 258.08,118.52 260.25,118.01 262.42,117.54 264.60,117.12 266.77,116.73 268.94,116.38 271.11,116.06 273.28,115.76 275.45,115.49 277.63,115.23 279.80,114.98 281.97,114.75 284.14,114.52 286.31,114.29 288.48,114.06 290.66,113.82 292.83,113.58 295.00,113.32 297.17,113.05 299.34,112.77 301.52,112.47 303.69,112.16 305.86,111.83 308.03,111.48 310.20,111.11 312.37,110.73 314.55,110.33 316.72,109.93 318.89,109.51 321.06,109.08 323.23,108.64 325.40,108.21 327.58,107.77 329.75,107.34 331.92,106.92 334.09,106.52 336.26,106.13 338.43,105.76 340.61,105.41 342.78,105.10 344.95,104.81 347.12,104.57 349.29,104.36 351.46,104.20 353.64,104.08 355.81,104.02 357.98,104.00 360.15,104.04 362.32,104.13 364.49,104.28 366.67,104.48 368.84,104.74 371.01,105.06 373.18,105.43 375.35,105.86 377.53,106.35 379.70,106.89 381.87,107.49 384.04,108.14 386.21,108.83 388.38,109.58 390.56,110.38 392.73,111.22 394.90,112.11 397.07,113.04 399.24,114.01 401.41,115.03 403.59,116.08 405.76,117.16 407.93,118.29 410.10,119.44 412.27,120.63 414.44,121.84 416.62,123.08 418.79,124.35 420.96,125.64 423.13,126.95 425.30,128.28 427.47,129.62 429.65,130.98 431.82,132.35 433.99,133.72 436.16,135.10 438.33,136.48 L 438.33 168.00 Z" fill="#fbbc04" stroke="none" opacity="0.70"/>
<path d="M 223.33,133.82 225.51,132.51 227.68,131.23 229.85,129.99 232.02,128.80 234.19,127.64 236.36,126.54 238.54,125.49 240.71,124.49 242.88,123.55 245.05,122.66 247.22,121.83 249.39,121.06 251.57,120.34 253.74,119.68 255.91,119.07 258.08,118.52 260.25,118.01 262.42,117.54 264.60,117.12 266.77,116.73 268.94,116.38 271.11,116.06 273.28,115.76 275.45,115.49 277.63,115.23 279.80,114.98 281.97,114.75 284.14,114.52 286.31,114.29 288.48,114.06 290.66,113.82 292.83,113.58 295.00,113.32 297.17,113.05 299.34,112.77 301.52,112.47 303.69,112.16 305.86,111.83 308.03,111.48 310.20,111.11 312.37,110.73 314.55,110.33 316.72,109.93 318.89,109.51 321.06,109.08 323.23,108.64 325.40,108.21 327.58,107.77 329.75,107.34 331.92,106.92 334.09,106.52 336.26,106.13 338.43,105.76 340.61,105.41 342.78,105.10 344.95,104.81 347.12,104.57 349.29,104.36 351.46,104.20 353.64,104.08 355.81,104.02 357.98,104.00 360.15,104.04 362.32,104.13 364.49,104.28 366.67,104.48 368.84,104.74 371.01,105.06 373.18,105.43 375.35,105.86 377.53,106.35 379.70,106.89 381.87,107.49 384.04,108.14 386.21,108.83 388.38,109.58 390.56,110.38 392.73,111.22 394.90,112.11 397.07,113.04 399.24,114.01 401.41,115.03 403.59,116.08 405.76,117.16 407.93,118.29 410.10,119.44 412.27,120.63 414.44,121.84 416.62,123.08 418.79,124.35 420.96,125.64 423.13,126.95 425.30,128.28 427.47,129.62 429.65,130.98 431.82,132.35 433.99,133.72 436.16,135.10 438.33,136.48" fill="none" stroke="#fbbc04" stroke-width="1.50"/>
<text x="70.00" y="136.00" text-anchor="end" dominant-baseline="middle" font-family="sans-serif" font-size="12.00px">March</text>
<path d="M 295.00 200.00 L 295.00,173.00 297.17,171.67 299.34,170.31 301.52,168.93 303.69,167.54 305.86,166.13 308.03,164.71 310.20,163.27 312.37,161.84 314.55,160.39 316.72,158.95 318.89,157.52 321.06,156.09 323.23,154.68 325.40,153.28 327.58,151.91 329.75,150.57 331.92,149.26 334.09,147.99 336.26,146.76 338.43,145.58 340.61,144.45 342.78,143.38 344.95,142.37 347.12,141.42 349.29,140.55 351.46,139.74 353.64,139.01 355.81,138.36 357.98,137.79 360.15,137.30 362.32,136.89 364.49,136.55 366.67,136.30 368.84,136.12 371.01,136.03 373.18,136.00 375.35,136.05 377.53,136.16 379.70,136.33 381.87,136.57 384.04,136.86 386.21,137.20 388.38,137.58 390.56,138.01 392.73,138.46 394.90,138.95 397.07,139.45 399.24,139.98 401.41,140.51 403.59,141.05 405.76,141.60 407.93,142.14 410.10,142.67 412.27,143.20 414.44,143.71 416.62,144.20 418.79,144.67 420.96,145.13 423.13,145.56 425.30,145.96 427.47,146.35 429.65,146.71 431.82,147.04 433.99,147.35 436.16,147.64 438.33,147.91 440.51,148.17 442.68,148.41 444.85,148.63 447.02,148.85 449.19,149.06 451.36,149.27 453.54,149.48 455.71,149.70 457.88,149.93 460.05,150.18 462.22,150.44 464.39,150.73 466.57,151.04 468.74,151.39 470.91,151.77 473.08,152.20 475.25,152.67 477.42,153.18 479.60,153.75 481.77,154.37 483.94,155.05 486.11,155.78 488.28,156.56 490.45,157.41 492.63,158.31 494.80,159.27 496.97,160.28 499.14,161.35 501.31,162.46 503.48,163.62 505.66,164.83 507.83,166.07 510.00,167.34 L 510.00 200.00 Z" fill="#34a853" stroke="none" opacity="0.70"/>
<path d="M 295.00,173.00 297.17,171.67 299.34,170.31 301.52,168.93 303.69,167.54 305.86,166.13 308.03,164.71 310.20,163.27 312.37,161.84 314.55,160.39 316.72,158.95 318.89,157.52 321.06,156.09 323.23,154.68 325.40,153.28 327.58,151.91 329.75,150.57 331.92,149.26 334.09,147.99 336.26,146.76 338.43,145.58 340.61,144.45 342.78,143.38 344.95,142.37 347.12,141.42 349.29,140.55 351.46,139.74 353.64,139.01 355.81,138.36 357.98,137.79 360.15,137.30 362.32,136.89 364.49,136.55 366.67,136.30 368.84,136.12 371.01,136.03 373.18,136.00 375.35,136.05 377.53,136.16 379.70,136.33 381.87,136.57 384.04,136.86 386.21,137.20 388.38,137.58 390.56,138.01 392.73,138.46 394.90,138.95 397.07,139.45 399.24,139.98 401.41,140.51 403.59,141.05 405.76,141.60 407.93,142.14 410.10,142.67 412.27,143.20 414.44,143.71 416.62,144.20 418.79,144.67 420.96,145.13 423.13,145.56 425.30,145.96 427.47,146.35 429.65,146.71 431.82,147.04 433.99,147.35 436.16,147.64 438.33,147.91 440.51,148.17 442.68,148.41 444.85,148.63 447.02,148.85 449.19,149.06 451.36,149.27 453.54,149.48 455.71,149.70 457.88,149.93 460.05,150.18 462.22,150.44 464.39,150.73 466.57,151.04 468.74,151.39 470.91,151.77 473.08,152.20 475.25,152.67 477.42,153.18 479.60,153.75 481.77,154.37 483.94,155.05 486.11,155.78 488.28,156.56 490.45,157.41 492.63,158.31 494.80,159.27 496.97,160.28 499.14,161.35 501.31,162.46 503.48,163.62 505.66,164.83 507.83,166.07 510.00,167.34" fill="none" stroke="#34a853" stroke-width="1.50"/>
<text x="70.00" y="168.00" text-anchor="end" dominant-baseline="middle" font-family="sans-serif" font-size="12.00px">April</text>
</g></g>
</svg>