<svg xmlns="http://www.w3.org/2000/svg" width="1600" height="480" viewBox="0 0 1600 480"><rect x="0.00" y="0.00" width="1600.00" height="480.00" fill="#ffffff"/>
<text x="800.00" y="30.00" fill="#000000" text-anchor="middle" font-family="sans-serif" font-size="20.00px" font-weight="bold">Stacked Area Gallery</text>
<g transform="translate(25.00, 60.00)"><text x="400.00" y="0.00" fill="#666" text-anchor="middle" font-family="sans-serif" font-size="14.00px" font-weight="bold">Standard Stacked</text><g transform="translate(10.00, 30.00)"><line x1="60.00" y1="60.00" x2="60.00" y2="315.00" stroke="#374151" stroke-width="2.00"/>
<line x1="60.00" y1="315.00" x2="690.00" y2="315.00" stroke="#374151" stroke-width="2.00"/>
<path d="M 60.00 193.57 L 217.50 132.86 L 375.00 132.86 L 532.50 112.62 L 690.00 72.14 L 690.00 132.86 L 532.50 153.10 L 375.00 173.33 L 217.50 193.57 L 60.00 213.81 Z" fill="#f59e0b" stroke="#f59e0b" stroke-width="1.00" fill-opacity="0.70"/>
<path d="M 60.00 213.81 L 217.50 193.57 L 375.00 173.33 L 532.50 153.10 L 690.00 132.86 L 690.00 234.05 L 532.50 213.81 L 375.00 254.29 L 217.50 234.05 L 60.00 274.52 Z" fill="#10b981" stroke="#10b981" stroke-width="1.00" fill-opacity="0.70"/>
<path d="M 60.00 274.52 L 217.50 234.05 L 375.00 254.29 L 532.50 213.81 L 690.00 234.05 L 690.00 315.00 L 532.50 315.00 L 375.00 315.00 L 217.50 315.00 L 60.00 315.00 Z" fill="#3b82f6" stroke="#3b82f6" stroke-width="1.00" fill-opacity="0.70"/>
<text x="60.00" y="325.00" text-anchor="middle" dominant-baseline="hanging" font-family="sans-serif" font-size="10.00px">0.00</text>
<text x="186.00" y="325.00" text-anchor="middle" dominant-baseline="hanging" font-family="sans-serif" font-size="10.00px">0.80</text>
<text x="312.00" y="325.00" text-anchor="middle" dominant-baseline="hanging" font-family="sans-serif" font-size="10.00px">1.60</text>
<text x="438.00" y="325.00" text-anchor="middle" dominant-baseline="hanging" font-family="sans-serif" font-size="10.00px">2.40</text>
<text x="564.00" y="325.00" text-anchor="middle" dominant-baseline="hanging" font-family="sans-serif" font-size="10.00px">3.20</text>
<text x="690.00" y="325.00" text-anchor="middle" dominant-baseline="hanging" font-family="sans-serif" font-size="10.00px">4.00</text>
<text x="50.00" y="315.00" text-anchor="end" dominant-baseline="middle" font-family="sans-serif" font-size="10.00px">0.00</text>
<text x="50.00" y="264.00" text-anchor="end" dominant-baseline="middle" font-family="sans-serif" font-size="10.00px">12.60</text>
<text x="50.00" y="213.00" text-anchor="end" dominant-baseline="middle" font-family="sans-serif" font-size="10.00px">25.20</text>
<text x="50.00" y="162.00" text-anchor="end" dominant-baseline="middle" font-family="sans-serif" font-size="10.00px">37.80</text>
<text x="50.00" y="111.00" text-anchor="end" dominant-baseline="middle" font-family="sans-serif" font-size="10.00px">50.40</text>
<text x="50.00" y="60.00" text-anchor="end" dominant-baseline="middle" font-family="sans-serif" font-size="10.00px">63.00</text>
<rect x="80.00" y="72.00" width="20.00" height="16.00" fill="#3b82f6" stroke="#3b82f6" stroke-width="1.00" fill-opacity="0.70"/>
<text x="105.00" y="80.00" dominant-baseline="middle" font-family="sans-serif" font-size="12.00px">Series A</text>
<rect x="80.00" y="97.00" width="20.00" height="16.00" fill="#10b981" stroke="#10b981" stroke-width="1.00" fill-opacity="0.70"/>
<text x="105.00" y="105.00" dominant-baseline="middle" font-family="sans-serif" font-size="12.00px">Series B</text>
<rect x="80.00" y="122.00" width="20.00" height="16.00" fill="#f59e0b" stroke="#f59e0b" stroke-width="1.00" fill-opacity="0.70"/>
<text x="105.00" y="130.00" dominant-baseline="middle" font-family="sans-serif" font-size="12.00px">Series C</text>
</g></g>
<g transform="translate(825.00, 60.00)"><text x="400.00" y="0.00" fill="#666" text-anchor="middle" font-family="sans-serif" font-size="14.00px" font-weight="bold">Smooth Curves</text><g transform="translate(10.00, 30.00)"><line x1="60.00" y1="60.00" x2="60.00" y2="315.00" stroke="#374151" stroke-width="2.00"/>
<line x1="60.00" y1="315.00" x2="690.00" y2="315.00" stroke="#374151" stroke-width="2.00"/>
<path d="M 60.00 193.57 L 217.50 132.86 L 375.00 132.86 L 532.50 112.62 L 690.00 72.14 L 690.00 132.86 L 532.50 153.10 L 375.00 173.33 L 217.50 193.57 L 60.00 213.81 Z" fill="#f59e0b" stroke="#f59e0b" stroke-width="1.00" fill-opacity="0.70"/>
<path d="M 60.00 213.81 L 217.50 193.57 L 375.00 173.33 L 532.50 153.10 L 690.00 132.86 L 690.00 234.05 L 532.50 213.81 L 375.00 254.29 L 217.50 234.05 L 60.00 274.52 Z" fill="#10b981" stroke="#10b981" stroke-width="1.00" fill-opacity="0.70"/>
<path d="M 60.00 274.52 L 217.50 234.05 L 375.00 254.29 L 532.50 213.81 L 690.00 234.05 L 690.00 315.00 L 532.50 315.00 L 375.00 315.00 L 217.50 315.00 L 60.00 315.00 Z" fill="#3b82f6" stroke="#3b82f6" stroke-width="1.00" fill-opacity="0.70"/>
<text x="60.00" y="325.00" text-anchor="middle" dominant-baseline="hanging" font-family="sans-serif" font-size="10.00px">0.00</text>
<text x="186.00" y="325.00" text-anchor="middle" dominant-baseline="hanging" font-family="sans-serif" font-size="10.00px">0.80</text>
<text x="312.00" y="325.00" text-anchor="middle" dominant-baseline="hanging" font-family="sans-serif" font-size="10.00px">1.60</text>
<text x="438.00" y="325.00" text-anchor="middle" dominant-baseline="hanging" font-family="sans-serif" font-size="10.00px">2.40</text>
<text x="564.00" y="325.00" text-anchor="middle" dominant-baseline="hanging" font-family="sans-serif" font-size="10.00px">3.20</text>
<text x="690.00" y="325.00" text-anchor="middle" dominant-baseline="hanging" font-family="sans-serif" font-size="10.00px">4.00</text>
<text x="50.00" y="315.00" text-anchor="end" dominant-baseline="middle" font-family="sans-serif" font-size="10.00px">0.00</text>
<text x="50.00" y="264.00" text-anchor="end" dominant-baseline="middle" font-family="sans-serif" font-size="10.00px">12.60</text>
<text x="50.00" y="213.00" text-anchor="end" dominant-baseline="middle" font-family="sans-serif" font-size="10.00px">25.20</text>
<text x="50.00" y="162.00" text-anchor="end" dominant-baseline="middle" font-family="sans-serif" font-size="10.00px">37.80</text>
<text x="50.00" y="111.00" text-anchor="end" dominant-baseline="middle" font-family="sans-serif" font-size="10.00px">50.40</text>
<text x="50.00" y="60.00" text-anchor="end" dominant-baseline="middle" font-family="sans-serif" font-size="10.00px">63.00</text>
<rect x="80.00" y="72.00" width="20.00" height="16.00" fill="#3b82f6" stroke="#3b82f6" stroke-width="1.00" fill-opacity="0.70"/>
<text x="105.00" y="80.00" dominant-baseline="middle" font-family="sans-serif" font-size="12.00px">Series A</text>
<rect x="80.00" y="97.00" width="20.00" height="16.00" fill="#10b981" stroke="#10b981" stroke-width="1.00" fill-opacity="0.70"/>
<text x="105.00" y="105.00" dominant-baseline="middle" font-family="sans-serif" font-size="12.00px">Series B</text>
<rect x="80.00" y="122.00" width="20.00" height="16.00" fill="#f59e0b" stroke="#f59e0b" stroke-width="1.00" fill-opacity="0.70"/>
<text x="105.00" y="130.00" dominant-baseline="middle" font-family="sans-serif" font-size="12.00px">Series C</text>
</g></g>
</svg>