<svg xmlns="http://www.w3.org/2000/svg" width="1200" height="480" viewBox="0 0 1200 480"><rect x="0.00" y="0.00" width="1200.00" height="480.00" fill="#ffffff"/>
<text x="600.00" y="30.00" fill="#000000" text-anchor="middle" font-family="sans-serif" font-size="20.00px" font-weight="bold">Streamchart Gallery</text>
<g transform="translate(25.00, 60.00)"><text x="300.00" y="0.00" fill="#666" text-anchor="middle" font-family="sans-serif" font-size="14.00px" font-weight="bold">Center Layout</text><g transform="translate(0.00, 30.00)"><line x1="60.00" y1="147.50" x2="440.00" y2="147.50" stroke="#d1d5db" stroke-width="1.00" opacity="0.50"/>
<path d="M 60.00 160.33 L 136.00 153.91 L 212.00 166.74 L 288.00 147.50 L 364.00 173.16 L 440.00 150.07 L 440.00 227.05 L 364.00 224.48 L 288.00 211.65 L 212.00 205.23 L 136.00 205.23 L 60.00 185.99 Z" fill="#3b82f6" stroke="#3b82f6" stroke-width="0.50" fill-opacity="0.80"/>
<path d="M 60.00 121.84 L 136.00 128.26 L 212.00 115.43 L 288.00 109.01 L 364.00 109.01 L 440.00 98.75 L 440.00 150.07 L 364.00 173.16 L 288.00 147.50 L 212.00 166.74 L 136.00 153.91 L 60.00 160.33 Z" fill="#10b981" stroke="#10b981" stroke-width="0.50" fill-opacity="0.80"/>
<path d="M 60.00 109.01 L 136.00 89.77 L 212.00 89.77 L 288.00 83.35 L 364.00 70.52 L 440.00 67.95 L 440.00 98.75 L 364.00 109.01 L 288.00 109.01 L 212.00 115.43 L 136.00 128.26 L 60.00 121.84 Z" fill="#f59e0b" stroke="#f59e0b" stroke-width="0.50" fill-opacity="0.80"/>
</g></g>
<g transform="translate(625.00, 60.00)"><text x="300.00" y="0.00" fill="#666" text-anchor="middle" font-family="sans-serif" font-size="14.00px" font-weight="bold">Smooth Curves</text><g transform="translate(0.00, 30.00)"><line x1="60.00" y1="147.50" x2="440.00" y2="147.50" stroke="#d1d5db" stroke-width="1.00" opacity="0.50"/>
<path d="M 60.00 160.33 L 136.00 153.91 L 212.00 166.74 L 288.00 147.50 L 364.00 173.16 L 440.00 150.07 L 440.00 227.05 L 364.00 224.48 L 288.00 211.65 L 212.00 205.23 L 136.00 205.23 L 60.00 185.99 Z" fill="#3b82f6" stroke="#3b82f6" stroke-width="0.50" fill-opacity="0.80"/>
<path d="M 60.00 121.84 L 136.00 128.26 L 212.00 115.43 L 288.00 109.01 L 364.00 109.01 L 440.00 98.75 L 440.00 150.07 L 364.00 173.16 L 288.00 147.50 L 212.00 166.74 L 136.00 153.91 L 60.00 160.33 Z" fill="#10b981" stroke="#10b981" stroke-width="0.50" fill-opacity="0.80"/>
<path d="M 60.00 109.01 L 136.00 89.77 L 212.00 89.77 L 288.00 83.35 L 364.00 70.52 L 440.00 67.95 L 440.00 98.75 L 364.00 109.01 L 288.00 109.01 L 212.00 115.43 L 136.00 128.26 L 60.00 121.84 Z" fill="#f59e0b" stroke="#f59e0b" stroke-width="0.50" fill-opacity="0.80"/>
</g></g>
</svg>