<svg xmlns="http://www.w3.org/2000/svg" width="1200" height="430" viewBox="0 0 1200 430"><rect x="0.00" y="0.00" width="1200.00" height="430.00" fill="#ffffff"/>
<text x="600.00" y="30.00" fill="#000000" text-anchor="middle" font-family="sans-serif" font-size="20.00px" font-weight="bold">Streamchart Gallery</text>
<g transform="translate(25, 60)"><text x="300.00" y="0.00" fill="#666" text-anchor="middle" font-family="sans-serif" font-size="14.00px" font-weight="bold">Center Layout</text><g transform="translate(0, 30)"><line x1="60.00" y1="160.00" x2="490.00" y2="160.00" stroke="#d1d5db" stroke-width="1.00" opacity="0.50"/>
<path d="M 60.00 174.66 L 146.00 167.33 L 232.00 181.99 L 318.00 160.00 L 404.00 189.33 L 490.00 162.93 L 490.00 250.91 L 404.00 247.98 L 318.00 233.31 L 232.00 225.98 L 146.00 225.98 L 60.00 203.99 Z" fill="#3b82f6" stroke="#3b82f6" stroke-width="0.50" fill-opacity="0.80"/>
<path d="M 60.00 130.67 L 146.00 138.01 L 232.00 123.34 L 318.00 116.01 L 404.00 116.01 L 490.00 104.28 L 490.00 162.93 L 404.00 189.33 L 318.00 160.00 L 232.00 181.99 L 146.00 167.33 L 60.00 174.66 Z" fill="#10b981" stroke="#10b981" stroke-width="0.50" fill-opacity="0.80"/>
<path d="M 60.00 116.01 L 146.00 94.02 L 232.00 94.02 L 318.00 86.69 L 404.00 72.02 L 490.00 69.09 L 490.00 104.28 L 404.00 116.01 L 318.00 116.01 L 232.00 123.34 L 146.00 138.01 L 60.00 130.67 Z" fill="#f59e0b" stroke="#f59e0b" stroke-width="0.50" fill-opacity="0.80"/>
</g></g>
<g transform="translate(625, 60)"><text x="300.00" y="0.00" fill="#666" text-anchor="middle" font-family="sans-serif" font-size="14.00px" font-weight="bold">Smooth Curves</text><g transform="translate(0, 30)"><line x1="60.00" y1="160.00" x2="490.00" y2="160.00" stroke="#d1d5db" stroke-width="1.00" opacity="0.50"/>
<path d="M 60.00 174.66 L 146.00 167.33 L 232.00 181.99 L 318.00 160.00 L 404.00 189.33 L 490.00 162.93 L 490.00 250.91 L 404.00 247.98 L 318.00 233.31 L 232.00 225.98 L 146.00 225.98 L 60.00 203.99 Z" fill="#3b82f6" stroke="#3b82f6" stroke-width="0.50" fill-opacity="0.80"/>
<path d="M 60.00 130.67 L 146.00 138.01 L 232.00 123.34 L 318.00 116.01 L 404.00 116.01 L 490.00 104.28 L 490.00 162.93 L 404.00 189.33 L 318.00 160.00 L 232.00 181.99 L 146.00 167.33 L 60.00 174.66 Z" fill="#10b981" stroke="#10b981" stroke-width="0.50" fill-opacity="0.80"/>
<path d="M 60.00 116.01 L 146.00 94.02 L 232.00 94.02 L 318.00 86.69 L 404.00 72.02 L 490.00 69.09 L 490.00 104.28 L 404.00 116.01 L 318.00 116.01 L 232.00 123.34 L 146.00 138.01 L 60.00 130.67 Z" fill="#f59e0b" stroke="#f59e0b" stroke-width="0.50" fill-opacity="0.80"/>
</g></g>
</svg>