<svg xmlns="http://www.w3.org/2000/svg" width="900" height="580" viewBox="0 0 900 580"><rect x="0.00" y="0.00" width="900.00" height="580.00" fill="#ffffff"/>
<text x="450.00" y="30.00" fill="#000000" text-anchor="middle" font-family="sans-serif" font-size="20.00px" font-weight="bold">Sunburst Gallery</text>
<g transform="translate(25.00, 60.00)"><text x="225.00" y="0.00" fill="#666" text-anchor="middle" font-family="sans-serif" font-size="14.00px" font-weight="bold">Full Sunburst</text><g transform="translate(0, 30.00)"><path d="M 200.00 200.00 L 200.00 100.00 A 100.00 100.00 0 1 1 200.00 100.00 L 200.00 200.00 A 0.00 0.00 0 1 0 200.00 200.00 Z" fill="#3b82f6" stroke="#ffffff" stroke-width="2.00" opacity="0.80"/>
<g transform="rotate(90.00 200.00 250.00)"><text x="200.00" y="250.00" fill="#ffffff" text-anchor="middle" dominant-baseline="middle" font-family="sans-serif" font-size="10.00px" font-weight="bold">Root</text></g>
<path d="M 200.00 100.00 L 200.00 0.00 A 200.00 200.00 0 0 1 317.56 361.80 L 258.78 280.90 A 100.00 100.00 0 0 0 200.00 100.00 Z" fill="#10b981" stroke="#ffffff" stroke-width="2.00" opacity="0.80"/>
<g transform="rotate(-18.00 342.66 153.65)"><text x="342.66" y="153.65" fill="#ffffff" text-anchor="middle" dominant-baseline="middle" font-family="sans-serif" font-size="10.00px" font-weight="bold">Branch A</text></g>
<path d="M 200.00 0.00 L 200.00 -100.00 A 300.00 300.00 0 0 1 442.71 23.66 L 361.80 82.44 A 200.00 200.00 0 0 0 200.00 0.00 Z" fill="#f59e0b" stroke="#ffffff" stroke-width="2.00" opacity="0.80"/>
<g transform="rotate(-63.00 313.50 -22.75)"><text x="313.50" y="-22.75" fill="#ffffff" text-anchor="middle" dominant-baseline="middle" font-family="sans-serif" font-size="10.00px" font-weight="bold">Leaf A1</text></g>
<path d="M 361.80 82.44 L 442.71 23.66 A 300.00 300.00 0 0 1 497.63 237.60 L 398.42 225.07 A 200.00 200.00 0 0 0 361.80 82.44 Z" fill="#f59e0b" stroke="#ffffff" stroke-width="2.00" opacity="0.80"/>
<g transform="rotate(-14.40 442.15 137.83)"><text x="442.15" y="137.83" fill="#ffffff" text-anchor="middle" dominant-baseline="middle" font-family="sans-serif" font-size="10.00px" font-weight="bold">Leaf A2</text></g>
<path d="M 398.42 225.07 L 497.63 237.60 A 300.00 300.00 0 0 1 376.34 442.71 L 317.56 361.80 A 200.00 200.00 0 0 0 398.42 225.07 Z" fill="#f59e0b" stroke="#ffffff" stroke-width="2.00" opacity="0.80"/>
<g transform="rotate(30.60 415.19 327.26)"><text x="415.19" y="327.26" fill="#ffffff" text-anchor="middle" dominant-baseline="middle" font-family="sans-serif" font-size="10.00px" font-weight="bold">Leaf A3</text></g>
<path d="M 258.78 280.90 L 317.56 361.80 A 200.00 200.00 0 0 1 0.00 200.00 L 100.00 200.00 A 100.00 100.00 0 0 0 258.78 280.90 Z" fill="#10b981" stroke="#ffffff" stroke-width="2.00" opacity="0.80"/>
<g transform="rotate(117.00 131.90 333.65)"><text x="131.90" y="333.65" fill="#ffffff" text-anchor="middle" dominant-baseline="middle" font-family="sans-serif" font-size="10.00px" font-weight="bold">Branch B</text></g>
<path d="M 317.56 361.80 L 376.34 442.71 A 300.00 300.00 0 0 1 23.66 442.71 L 82.44 361.80 A 200.00 200.00 0 0 0 317.56 361.80 Z" fill="#f59e0b" stroke="#ffffff" stroke-width="2.00" opacity="0.80"/>
<g transform="rotate(90.00 200.00 450.00)"><text x="200.00" y="450.00" fill="#ffffff" text-anchor="middle" dominant-baseline="middle" font-family="sans-serif" font-size="10.00px" font-weight="bold">Leaf B1</text></g>
<path d="M 82.44 361.80 L 23.66 442.71 A 300.00 300.00 0 0 1 -100.00 200.00 L 0.00 200.00 A 200.00 200.00 0 0 0 82.44 361.80 Z" fill="#f59e0b" stroke="#ffffff" stroke-width="2.00" opacity="0.80"/>
<g transform="rotate(153.00 -22.75 313.50)"><text x="-22.75" y="313.50" fill="#ffffff" text-anchor="middle" dominant-baseline="middle" font-family="sans-serif" font-size="10.00px" font-weight="bold">Leaf B2</text></g>
<path d="M 100.00 200.00 L 0.00 200.00 A 200.00 200.00 0 0 1 200.00 0.00 L 200.00 100.00 A 100.00 100.00 0 0 0 100.00 200.00 Z" fill="#10b981" stroke="#ffffff" stroke-width="2.00" opacity="0.80"/>
<g transform="rotate(225.00 93.93 93.93)"><text x="93.93" y="93.93" fill="#ffffff" text-anchor="middle" dominant-baseline="middle" font-family="sans-serif" font-size="10.00px" font-weight="bold">Branch C</text></g>
<path d="M 0.00 200.00 L -100.00 200.00 A 300.00 300.00 0 0 1 -42.71 23.66 L 38.20 82.44 A 200.00 200.00 0 0 0 0.00 200.00 Z" fill="#f59e0b" stroke="#ffffff" stroke-width="2.00" opacity="0.80"/>
<g transform="rotate(198.00 -37.76 122.75)"><text x="-37.76" y="122.75" fill="#ffffff" text-anchor="middle" dominant-baseline="middle" font-family="sans-serif" font-size="10.00px" font-weight="bold">Leaf C1</text></g>
<path d="M 38.20 82.44 L -42.71 23.66 A 300.00 300.00 0 0 1 72.27 -71.45 L 114.84 19.03 A 200.00 200.00 0 0 0 38.20 82.44 Z" fill="#f59e0b" stroke="#ffffff" stroke-width="2.00" opacity="0.80"/>
<g transform="rotate(230.40 40.64 7.37)"><text x="40.64" y="7.37" fill="#ffffff" text-anchor="middle" dominant-baseline="middle" font-family="sans-serif" font-size="10.00px" font-weight="bold">Leaf C2</text></g>
<path d="M 114.84 19.03 L 72.27 -71.45 A 300.00 300.00 0 0 1 200.00 -100.00 L 200.00 0.00 A 200.00 200.00 0 0 0 114.84 19.03 Z" fill="#f59e0b" stroke="#ffffff" stroke-width="2.00" opacity="0.80"/>
<g transform="rotate(257.40 145.46 -43.98)"><text x="145.46" y="-43.98" fill="#ffffff" text-anchor="middle" dominant-baseline="middle" font-family="sans-serif" font-size="10.00px" font-weight="bold">Leaf C3</text></g>
</g></g>
<g transform="translate(475.00, 60.00)"><text x="225.00" y="0.00" fill="#666" text-anchor="middle" font-family="sans-serif" font-size="14.00px" font-weight="bold">With Inner Radius</text><g transform="translate(0, 30.00)"><path d="M 200.00 140.00 L 200.00 70.00 A 130.00 130.00 0 1 1 200.00 70.00 L 200.00 140.00 A 60.00 60.00 0 1 0 200.00 140.00 Z" fill="#6366f1" stroke="#ffffff" stroke-width="2.00" opacity="0.80"/>
<g transform="rotate(90.00 200.00 295.00)"><text x="200.00" y="295.00" fill="#ffffff" text-anchor="middle" dominant-baseline="middle" font-family="sans-serif" font-size="10.00px" font-weight="bold">Root</text></g>
<path d="M 200.00 70.00 L 200.00 0.00 A 200.00 200.00 0 0 1 317.56 361.80 L 276.41 305.17 A 130.00 130.00 0 0 0 200.00 70.00 Z" fill="#ec4899" stroke="#ffffff" stroke-width="2.00" opacity="0.80"/>
<g transform="rotate(-18.00 356.92 149.01)"><text x="356.92" y="149.01" fill="#ffffff" text-anchor="middle" dominant-baseline="middle" font-family="sans-serif" font-size="10.00px" font-weight="bold">Branch A</text></g>
<path d="M 200.00 0.00 L 200.00 -70.00 A 270.00 270.00 0 0 1 418.43 41.30 L 361.80 82.44 A 200.00 200.00 0 0 0 200.00 0.00 Z" fill="#14b8a6" stroke="#ffffff" stroke-width="2.00" opacity="0.80"/>
<g transform="rotate(-63.00 306.69 -9.39)"><text x="306.69" y="-9.39" fill="#ffffff" text-anchor="middle" dominant-baseline="middle" font-family="sans-serif" font-size="10.00px" font-weight="bold">Leaf A1</text></g>
<path d="M 361.80 82.44 L 418.43 41.30 A 270.00 270.00 0 0 1 467.87 233.84 L 398.42 225.07 A 200.00 200.00 0 0 0 361.80 82.44 Z" fill="#14b8a6" stroke="#ffffff" stroke-width="2.00" opacity="0.80"/>
<g transform="rotate(-14.40 427.62 141.56)"><text x="427.62" y="141.56" fill="#ffffff" text-anchor="middle" dominant-baseline="middle" font-family="sans-serif" font-size="10.00px" font-weight="bold">Leaf A2</text></g>
<path d="M 398.42 225.07 L 467.87 233.84 A 270.00 270.00 0 0 1 358.70 418.43 L 317.56 361.80 A 200.00 200.00 0 0 0 398.42 225.07 Z" fill="#14b8a6" stroke="#ffffff" stroke-width="2.00" opacity="0.80"/>
<g transform="rotate(30.60 402.27 319.62)"><text x="402.27" y="319.62" fill="#ffffff" text-anchor="middle" dominant-baseline="middle" font-family="sans-serif" font-size="10.00px" font-weight="bold">Leaf A3</text></g>
<path d="M 276.41 305.17 L 317.56 361.80 A 200.00 200.00 0 0 1 0.00 200.00 L 70.00 200.00 A 130.00 130.00 0 0 0 276.41 305.17 Z" fill="#ec4899" stroke="#ffffff" stroke-width="2.00" opacity="0.80"/>
<g transform="rotate(117.00 125.09 347.02)"><text x="125.09" y="347.02" fill="#ffffff" text-anchor="middle" dominant-baseline="middle" font-family="sans-serif" font-size="10.00px" font-weight="bold">Branch B</text></g>
<path d="M 317.56 361.80 L 358.70 418.43 A 270.00 270.00 0 0 1 41.30 418.43 L 82.44 361.80 A 200.00 200.00 0 0 0 317.56 361.80 Z" fill="#14b8a6" stroke="#ffffff" stroke-width="2.00" opacity="0.80"/>
<g transform="rotate(90.00 200.00 435.00)"><text x="200.00" y="435.00" fill="#ffffff" text-anchor="middle" dominant-baseline="middle" font-family="sans-serif" font-size="10.00px" font-weight="bold">Leaf B1</text></g>
<path d="M 82.44 361.80 L 41.30 418.43 A 270.00 270.00 0 0 1 -70.00 200.00 L 0.00 200.00 A 200.00 200.00 0 0 0 82.44 361.80 Z" fill="#14b8a6" stroke="#ffffff" stroke-width="2.00" opacity="0.80"/>
<g transform="rotate(153.00 -9.39 306.69)"><text x="-9.39" y="306.69" fill="#ffffff" text-anchor="middle" dominant-baseline="middle" font-family="sans-serif" font-size="10.00px" font-weight="bold">Leaf B2</text></g>
<path d="M 70.00 200.00 L 0.00 200.00 A 200.00 200.00 0 0 1 200.00 0.00 L 200.00 70.00 A 130.00 130.00 0 0 0 70.00 200.00 Z" fill="#ec4899" stroke="#ffffff" stroke-width="2.00" opacity="0.80"/>
<g transform="rotate(225.00 83.33 83.33)"><text x="83.33" y="83.33" fill="#ffffff" text-anchor="middle" dominant-baseline="middle" font-family="sans-serif" font-size="10.00px" font-weight="bold">Branch C</text></g>
<path d="M 0.00 200.00 L -70.00 200.00 A 270.00 270.00 0 0 1 -18.43 41.30 L 38.20 82.44 A 200.00 200.00 0 0 0 0.00 200.00 Z" fill="#14b8a6" stroke="#ffffff" stroke-width="2.00" opacity="0.80"/>
<g transform="rotate(198.00 -23.50 127.38)"><text x="-23.50" y="127.38" fill="#ffffff" text-anchor="middle" dominant-baseline="middle" font-family="sans-serif" font-size="10.00px" font-weight="bold">Leaf C1</text></g>
<path d="M 38.20 82.44 L -18.43 41.30 A 270.00 270.00 0 0 1 85.04 -44.30 L 114.84 19.03 A 200.00 200.00 0 0 0 38.20 82.44 Z" fill="#14b8a6" stroke="#ffffff" stroke-width="2.00" opacity="0.80"/>
<g transform="rotate(230.40 50.21 18.93)"><text x="50.21" y="18.93" fill="#ffffff" text-anchor="middle" dominant-baseline="middle" font-family="sans-serif" font-size="10.00px" font-weight="bold">Leaf C2</text></g>
<path d="M 114.84 19.03 L 85.04 -44.30 A 270.00 270.00 0 0 1 200.00 -70.00 L 200.00 0.00 A 200.00 200.00 0 0 0 114.84 19.03 Z" fill="#14b8a6" stroke="#ffffff" stroke-width="2.00" opacity="0.80"/>
<g transform="rotate(257.40 148.74 -29.34)"><text x="148.74" y="-29.34" fill="#ffffff" text-anchor="middle" dominant-baseline="middle" font-family="sans-serif" font-size="10.00px" font-weight="bold">Leaf C3</text></g>
</g></g>
</svg>