<svg xmlns="http://www.w3.org/2000/svg" width="1200" height="480" viewBox="0 0 1200 480"><rect x="0.00" y="0.00" width="1200.00" height="480.00" fill="#ffffff"/>
<text x="600.00" y="30.00" fill="#000000" text-anchor="middle" font-family="sans-serif" font-size="20.00px" font-weight="bold">Violin Plot Gallery</text>
<g transform="translate(25.00, 60.00)"><text x="300.00" y="0.00" fill="#666" text-anchor="middle" font-family="sans-serif" font-size="14.00px" font-weight="bold">Basic Violin</text><g transform="translate(0.00, 30.00)"><path d="M 93.30 224.35 L 92.29 223.00 L 91.32 221.64 L 90.39 220.28 L 89.50 218.92 L 88.66 217.57 L 87.87 216.21 L 87.15 214.85 L 86.48 213.49 L 85.87 212.14 L 85.32 210.78 L 84.83 209.42 L 84.39 208.07 L 84.00 206.71 L 83.67 205.35 L 83.38 203.99 L 83.13 202.64 L 82.92 201.28 L 82.75 199.92 L 82.60 198.56 L 82.48 197.21 L 82.38 195.85 L 82.29 194.49 L 82.23 193.13 L 82.18 191.78 L 82.13 190.42 L 82.10 189.06 L 82.08 187.71 L 82.06 186.35 L 82.04 184.99 L 82.03 183.63 L 82.02 182.28 L 82.02 180.92 L 82.01 179.56 L 82.01 178.20 L 82.01 176.85 L 82.00 175.49 L 82.00 174.13 L 82.00 172.77 L 82.00 171.42 L 82.00 170.06 L 82.00 168.70 L 82.00 167.35 L 82.00 165.99 L 82.00 164.63 L 82.00 163.27 L 82.00 161.92 L 82.00 160.56 L 82.00 159.20 L 82.00 157.84 L 82.00 156.49 L 82.00 155.13 L 82.00 153.77 L 82.00 152.41 L 82.00 151.06 L 82.00 149.70 L 82.00 148.34 L 82.00 146.99 L 82.00 145.63 L 82.00 144.27 L 82.00 142.91 L 82.00 141.56 L 82.00 140.20 L 82.00 138.84 L 82.01 137.48 L 82.01 136.13 L 82.01 134.77 L 82.02 133.41 L 82.02 132.06 L 82.03 130.70 L 82.04 129.34 L 82.06 127.98 L 82.08 126.63 L 82.10 125.27 L 82.13 123.91 L 82.18 122.55 L 82.23 121.20 L 82.29 119.84 L 82.38 118.48 L 82.48 117.12 L 82.60 115.77 L 82.75 114.41 L 82.92 113.05 L 83.13 111.70 L 83.38 110.34 L 83.67 108.98 L 84.00 107.62 L 84.39 106.27 L 84.83 104.91 L 85.32 103.55 L 85.87 102.19 L 86.48 100.84 L 87.15 99.48 L 87.87 98.12 L 88.66 96.76 L 89.50 95.41 L 90.39 94.05 L 91.32 92.69 L 92.29 91.34 L 93.30 89.98 L 126.70 89.98 L 127.71 91.34 L 128.68 92.69 L 129.61 94.05 L 130.50 95.41 L 131.34 96.76 L 132.13 98.12 L 132.85 99.48 L 133.52 100.84 L 134.13 102.19 L 134.68 103.55 L 135.17 104.91 L 135.61 106.27 L 136.00 107.62 L 136.33 108.98 L 136.62 110.34 L 136.87 111.70 L 137.08 113.05 L 137.25 114.41 L 137.40 115.77 L 137.52 117.12 L 137.62 118.48 L 137.71 119.84 L 137.77 121.20 L 137.82 122.55 L 137.87 123.91 L 137.90 125.27 L 137.92 126.63 L 137.94 127.98 L 137.96 129.34 L 137.97 130.70 L 137.98 132.06 L 137.98 133.41 L 137.99 134.77 L 137.99 136.13 L 137.99 137.48 L 138.00 138.84 L 138.00 140.20 L 138.00 141.56 L 138.00 142.91 L 138.00 144.27 L 138.00 145.63 L 138.00 146.99 L 138.00 148.34 L 138.00 149.70 L 138.00 151.06 L 138.00 152.41 L 138.00 153.77 L 138.00 155.13 L 138.00 156.49 L 138.00 157.84 L 138.00 159.20 L 138.00 160.56 L 138.00 161.92 L 138.00 163.27 L 138.00 164.63 L 138.00 165.99 L 138.00 167.35 L 138.00 168.70 L 138.00 170.06 L 138.00 171.42 L 138.00 172.77 L 138.00 174.13 L 138.00 175.49 L 137.99 176.85 L 137.99 178.20 L 137.99 179.56 L 137.98 180.92 L 137.98 182.28 L 137.97 183.63 L 137.96 184.99 L 137.94 186.35 L 137.92 187.71 L 137.90 189.06 L 137.87 190.42 L 137.82 191.78 L 137.77 193.13 L 137.71 194.49 L 137.62 195.85 L 137.52 197.21 L 137.40 198.56 L 137.25 199.92 L 137.08 201.28 L 136.87 202.64 L 136.62 203.99 L 136.33 205.35 L 136.00 206.71 L 135.61 208.07 L 135.17 209.42 L 134.68 210.78 L 134.13 212.14 L 133.52 213.49 L 132.85 214.85 L 132.13 216.21 L 131.34 217.57 L 130.50 218.92 L 129.61 220.28 L 128.68 221.64 L 127.71 223.00 L 126.70 224.35 Z" fill="#4285f4" stroke="#333" stroke-width="1.00" opacity="0.60"/>
<text x="110.00" y="275.00" text-anchor="middle" font-family="sans-serif" font-size="12.00px">Group A</text>
<path d="M 239.56 255.00 L 238.93 252.83 L 238.32 250.66 L 237.74 248.48 L 237.19 246.31 L 236.66 244.14 L 236.17 241.97 L 235.72 239.80 L 235.30 237.63 L 234.92 235.45 L 234.57 233.28 L 234.27 231.11 L 233.99 228.94 L 233.75 226.77 L 233.54 224.60 L 233.36 222.42 L 233.21 220.25 L 233.08 218.08 L 232.97 215.91 L 232.87 213.74 L 232.80 211.57 L 232.73 209.39 L 232.68 207.22 L 232.64 205.05 L 232.61 202.88 L 232.58 200.71 L 232.56 198.54 L 232.55 196.36 L 232.54 194.19 L 232.53 192.02 L 232.52 189.85 L 232.51 187.68 L 232.51 185.51 L 232.51 183.33 L 232.51 181.16 L 232.50 178.99 L 232.50 176.82 L 232.50 174.65 L 232.50 172.47 L 232.50 170.30 L 232.50 168.13 L 232.50 165.96 L 232.50 163.79 L 232.50 161.62 L 232.50 159.44 L 232.50 157.27 L 232.50 155.10 L 232.50 152.93 L 232.50 150.76 L 232.50 148.59 L 232.50 146.41 L 232.50 144.24 L 232.50 142.07 L 232.50 139.90 L 232.50 137.73 L 232.50 135.56 L 232.50 133.38 L 232.50 131.21 L 232.50 129.04 L 232.50 126.87 L 232.50 124.70 L 232.50 122.53 L 232.50 120.35 L 232.50 118.18 L 232.50 116.01 L 232.51 113.84 L 232.51 111.67 L 232.51 109.49 L 232.51 107.32 L 232.52 105.15 L 232.53 102.98 L 232.54 100.81 L 232.55 98.64 L 232.56 96.46 L 232.58 94.29 L 232.61 92.12 L 232.64 89.95 L 232.68 87.78 L 232.73 85.61 L 232.80 83.43 L 232.87 81.26 L 232.97 79.09 L 233.08 76.92 L 233.21 74.75 L 233.36 72.58 L 233.54 70.40 L 233.75 68.23 L 233.99 66.06 L 234.27 63.89 L 234.57 61.72 L 234.92 59.55 L 235.30 57.37 L 235.72 55.20 L 236.17 53.03 L 236.66 50.86 L 237.19 48.69 L 237.74 46.52 L 238.32 44.34 L 238.93 42.17 L 239.56 40.00 L 260.44 40.00 L 261.07 42.17 L 261.68 44.34 L 262.26 46.52 L 262.81 48.69 L 263.34 50.86 L 263.83 53.03 L 264.28 55.20 L 264.70 57.37 L 265.08 59.55 L 265.43 61.72 L 265.73 63.89 L 266.01 66.06 L 266.25 68.23 L 266.46 70.40 L 266.64 72.58 L 266.79 74.75 L 266.92 76.92 L 267.03 79.09 L 267.13 81.26 L 267.20 83.43 L 267.27 85.61 L 267.32 87.78 L 267.36 89.95 L 267.39 92.12 L 267.42 94.29 L 267.44 96.46 L 267.45 98.64 L 267.46 100.81 L 267.47 102.98 L 267.48 105.15 L 267.49 107.32 L 267.49 109.49 L 267.49 111.67 L 267.49 113.84 L 267.50 116.01 L 267.50 118.18 L 267.50 120.35 L 267.50 122.53 L 267.50 124.70 L 267.50 126.87 L 267.50 129.04 L 267.50 131.21 L 267.50 133.38 L 267.50 135.56 L 267.50 137.73 L 267.50 139.90 L 267.50 142.07 L 267.50 144.24 L 267.50 146.41 L 267.50 148.59 L 267.50 150.76 L 267.50 152.93 L 267.50 155.10 L 267.50 157.27 L 267.50 159.44 L 267.50 161.62 L 267.50 163.79 L 267.50 165.96 L 267.50 168.13 L 267.50 170.30 L 267.50 172.47 L 267.50 174.65 L 267.50 176.82 L 267.50 178.99 L 267.49 181.16 L 267.49 183.33 L 267.49 185.51 L 267.49 187.68 L 267.48 189.85 L 267.47 192.02 L 267.46 194.19 L 267.45 196.36 L 267.44 198.54 L 267.42 200.71 L 267.39 202.88 L 267.36 205.05 L 267.32 207.22 L 267.27 209.39 L 267.20 211.57 L 267.13 213.74 L 267.03 215.91 L 266.92 218.08 L 266.79 220.25 L 266.64 222.42 L 266.46 224.60 L 266.25 226.77 L 266.01 228.94 L 265.73 231.11 L 265.43 233.28 L 265.08 235.45 L 264.70 237.63 L 264.28 239.80 L 263.83 241.97 L 263.34 244.14 L 262.81 246.31 L 262.26 248.48 L 261.68 250.66 L 261.07 252.83 L 260.44 255.00 Z" fill="#4285f4" stroke="#333" stroke-width="1.00" opacity="0.60"/>
<text x="250.00" y="275.00" text-anchor="middle" font-family="sans-serif" font-size="12.00px">Group B</text>
<path d="M 376.08 250.29 L 375.24 248.66 L 374.43 247.03 L 373.65 245.40 L 372.91 243.77 L 372.21 242.14 L 371.56 240.51 L 370.95 238.88 L 370.40 237.25 L 369.89 235.63 L 369.43 234.00 L 369.02 232.37 L 368.66 230.74 L 368.34 229.11 L 368.06 227.48 L 367.82 225.85 L 367.61 224.22 L 367.44 222.60 L 367.29 220.97 L 367.16 219.34 L 367.06 217.71 L 366.98 216.08 L 366.91 214.45 L 366.86 212.82 L 366.81 211.19 L 366.78 209.57 L 366.75 207.94 L 366.73 206.31 L 366.71 204.68 L 366.70 203.05 L 366.69 201.42 L 366.69 199.79 L 366.68 198.16 L 366.68 196.54 L 366.67 194.91 L 366.67 193.28 L 366.67 191.65 L 366.67 190.02 L 366.67 188.39 L 366.67 186.76 L 366.67 185.13 L 366.67 183.50 L 366.67 181.88 L 366.67 180.25 L 366.67 178.62 L 366.67 176.99 L 366.67 175.36 L 366.67 173.73 L 366.67 172.10 L 366.67 170.47 L 366.67 168.85 L 366.67 167.22 L 366.67 165.59 L 366.67 163.96 L 366.67 162.33 L 366.67 160.70 L 366.67 159.07 L 366.67 157.44 L 366.67 155.82 L 366.67 154.19 L 366.67 152.56 L 366.67 150.93 L 366.67 149.30 L 366.67 147.67 L 366.67 146.04 L 366.67 144.41 L 366.68 142.79 L 366.68 141.16 L 366.69 139.53 L 366.69 137.90 L 366.70 136.27 L 366.71 134.64 L 366.73 133.01 L 366.75 131.38 L 366.78 129.75 L 366.81 128.13 L 366.86 126.50 L 366.91 124.87 L 366.98 123.24 L 367.06 121.61 L 367.16 119.98 L 367.29 118.35 L 367.44 116.72 L 367.61 115.10 L 367.82 113.47 L 368.06 111.84 L 368.34 110.21 L 368.66 108.58 L 369.02 106.95 L 369.43 105.32 L 369.89 103.69 L 370.40 102.07 L 370.95 100.44 L 371.56 98.81 L 372.21 97.18 L 372.91 95.55 L 373.65 93.92 L 374.43 92.29 L 375.24 90.66 L 376.08 89.04 L 403.92 89.04 L 404.76 90.66 L 405.57 92.29 L 406.35 93.92 L 407.09 95.55 L 407.79 97.18 L 408.44 98.81 L 409.05 100.44 L 409.60 102.07 L 410.11 103.69 L 410.57 105.32 L 410.98 106.95 L 411.34 108.58 L 411.66 110.21 L 411.94 111.84 L 412.18 113.47 L 412.39 115.10 L 412.56 116.72 L 412.71 118.35 L 412.84 119.98 L 412.94 121.61 L 413.02 123.24 L 413.09 124.87 L 413.14 126.50 L 413.19 128.13 L 413.22 129.75 L 413.25 131.38 L 413.27 133.01 L 413.29 134.64 L 413.30 136.27 L 413.31 137.90 L 413.31 139.53 L 413.32 141.16 L 413.32 142.79 L 413.33 144.41 L 413.33 146.04 L 413.33 147.67 L 413.33 149.30 L 413.33 150.93 L 413.33 152.56 L 413.33 154.19 L 413.33 155.82 L 413.33 157.44 L 413.33 159.07 L 413.33 160.70 L 413.33 162.33 L 413.33 163.96 L 413.33 165.59 L 413.33 167.22 L 413.33 168.85 L 413.33 170.47 L 413.33 172.10 L 413.33 173.73 L 413.33 175.36 L 413.33 176.99 L 413.33 178.62 L 413.33 180.25 L 413.33 181.88 L 413.33 183.50 L 413.33 185.13 L 413.33 186.76 L 413.33 188.39 L 413.33 190.02 L 413.33 191.65 L 413.33 193.28 L 413.33 194.91 L 413.32 196.54 L 413.32 198.16 L 413.31 199.79 L 413.31 201.42 L 413.30 203.05 L 413.29 204.68 L 413.27 206.31 L 413.25 207.94 L 413.22 209.57 L 413.19 211.19 L 413.14 212.82 L 413.09 214.45 L 413.02 216.08 L 412.94 217.71 L 412.84 219.34 L 412.71 220.97 L 412.56 222.60 L 412.39 224.22 L 412.18 225.85 L 411.94 227.48 L 411.66 229.11 L 411.34 230.74 L 410.98 232.37 L 410.57 234.00 L 410.11 235.63 L 409.60 237.25 L 409.05 238.88 L 408.44 240.51 L 407.79 242.14 L 407.09 243.77 L 406.35 245.40 L 405.57 247.03 L 404.76 248.66 L 403.92 250.29 Z" fill="#4285f4" stroke="#333" stroke-width="1.00" opacity="0.60"/>
<text x="390.00" y="275.00" text-anchor="middle" font-family="sans-serif" font-size="12.00px">Group C</text>
</g></g>
<g transform="translate(625.00, 60.00)"><text x="300.00" y="0.00" fill="#666" text-anchor="middle" font-family="sans-serif" font-size="14.00px" font-weight="bold">With Box Plot</text><g transform="translate(0.00, 30.00)"><path d="M 93.30 224.35 L 92.29 223.00 L 91.32 221.64 L 90.39 220.28 L 89.50 218.92 L 88.66 217.57 L 87.87 216.21 L 87.15 214.85 L 86.48 213.49 L 85.87 212.14 L 85.32 210.78 L 84.83 209.42 L 84.39 208.07 L 84.00 206.71 L 83.67 205.35 L 83.38 203.99 L 83.13 202.64 L 82.92 201.28 L 82.75 199.92 L 82.60 198.56 L 82.48 197.21 L 82.38 195.85 L 82.29 194.49 L 82.23 193.13 L 82.18 191.78 L 82.13 190.42 L 82.10 189.06 L 82.08 187.71 L 82.06 186.35 L 82.04 184.99 L 82.03 183.63 L 82.02 182.28 L 82.02 180.92 L 82.01 179.56 L 82.01 178.20 L 82.01 176.85 L 82.00 175.49 L 82.00 174.13 L 82.00 172.77 L 82.00 171.42 L 82.00 170.06 L 82.00 168.70 L 82.00 167.35 L 82.00 165.99 L 82.00 164.63 L 82.00 163.27 L 82.00 161.92 L 82.00 160.56 L 82.00 159.20 L 82.00 157.84 L 82.00 156.49 L 82.00 155.13 L 82.00 153.77 L 82.00 152.41 L 82.00 151.06 L 82.00 149.70 L 82.00 148.34 L 82.00 146.99 L 82.00 145.63 L 82.00 144.27 L 82.00 142.91 L 82.00 141.56 L 82.00 140.20 L 82.00 138.84 L 82.01 137.48 L 82.01 136.13 L 82.01 134.77 L 82.02 133.41 L 82.02 132.06 L 82.03 130.70 L 82.04 129.34 L 82.06 127.98 L 82.08 126.63 L 82.10 125.27 L 82.13 123.91 L 82.18 122.55 L 82.23 121.20 L 82.29 119.84 L 82.38 118.48 L 82.48 117.12 L 82.60 115.77 L 82.75 114.41 L 82.92 113.05 L 83.13 111.70 L 83.38 110.34 L 83.67 108.98 L 84.00 107.62 L 84.39 106.27 L 84.83 104.91 L 85.32 103.55 L 85.87 102.19 L 86.48 100.84 L 87.15 99.48 L 87.87 98.12 L 88.66 96.76 L 89.50 95.41 L 90.39 94.05 L 91.32 92.69 L 92.29 91.34 L 93.30 89.98 L 126.70 89.98 L 127.71 91.34 L 128.68 92.69 L 129.61 94.05 L 130.50 95.41 L 131.34 96.76 L 132.13 98.12 L 132.85 99.48 L 133.52 100.84 L 134.13 102.19 L 134.68 103.55 L 135.17 104.91 L 135.61 106.27 L 136.00 107.62 L 136.33 108.98 L 136.62 110.34 L 136.87 111.70 L 137.08 113.05 L 137.25 114.41 L 137.40 115.77 L 137.52 117.12 L 137.62 118.48 L 137.71 119.84 L 137.77 121.20 L 137.82 122.55 L 137.87 123.91 L 137.90 125.27 L 137.92 126.63 L 137.94 127.98 L 137.96 129.34 L 137.97 130.70 L 137.98 132.06 L 137.98 133.41 L 137.99 134.77 L 137.99 136.13 L 137.99 137.48 L 138.00 138.84 L 138.00 140.20 L 138.00 141.56 L 138.00 142.91 L 138.00 144.27 L 138.00 145.63 L 138.00 146.99 L 138.00 148.34 L 138.00 149.70 L 138.00 151.06 L 138.00 152.41 L 138.00 153.77 L 138.00 155.13 L 138.00 156.49 L 138.00 157.84 L 138.00 159.20 L 138.00 160.56 L 138.00 161.92 L 138.00 163.27 L 138.00 164.63 L 138.00 165.99 L 138.00 167.35 L 138.00 168.70 L 138.00 170.06 L 138.00 171.42 L 138.00 172.77 L 138.00 174.13 L 138.00 175.49 L 137.99 176.85 L 137.99 178.20 L 137.99 179.56 L 137.98 180.92 L 137.98 182.28 L 137.97 183.63 L 137.96 184.99 L 137.94 186.35 L 137.92 187.71 L 137.90 189.06 L 137.87 190.42 L 137.82 191.78 L 137.77 193.13 L 137.71 194.49 L 137.62 195.85 L 137.52 197.21 L 137.40 198.56 L 137.25 199.92 L 137.08 201.28 L 136.87 202.64 L 136.62 203.99 L 136.33 205.35 L 136.00 206.71 L 135.61 208.07 L 135.17 209.42 L 134.68 210.78 L 134.13 212.14 L 133.52 213.49 L 132.85 214.85 L 132.13 216.21 L 131.34 217.57 L 130.50 218.92 L 129.61 220.28 L 128.68 221.64 L 127.71 223.00 L 126.70 224.35 Z" fill="#4285f4" stroke="#333" stroke-width="1.00" opacity="0.60"/>
<rect x="105.80" y="123.57" width="8.40" height="67.19" fill="#fff" stroke="#333" stroke-width="1.50" opacity="0.80"/>
<line x1="105.80" y1="157.17" x2="114.20" y2="157.17" stroke="#333" stroke-width="2.00"/>
<circle cx="110.00" cy="157.17" r="3.00" fill="#333" stroke="#333"/>
<text x="110.00" y="275.00" text-anchor="middle" font-family="sans-serif" font-size="12.00px">Group A</text>
<path d="M 239.56 255.00 L 238.93 252.83 L 238.32 250.66 L 237.74 248.48 L 237.19 246.31 L 236.66 244.14 L 236.17 241.97 L 235.72 239.80 L 235.30 237.63 L 234.92 235.45 L 234.57 233.28 L 234.27 231.11 L 233.99 228.94 L 233.75 226.77 L 233.54 224.60 L 233.36 222.42 L 233.21 220.25 L 233.08 218.08 L 232.97 215.91 L 232.87 213.74 L 232.80 211.57 L 232.73 209.39 L 232.68 207.22 L 232.64 205.05 L 232.61 202.88 L 232.58 200.71 L 232.56 198.54 L 232.55 196.36 L 232.54 194.19 L 232.53 192.02 L 232.52 189.85 L 232.51 187.68 L 232.51 185.51 L 232.51 183.33 L 232.51 181.16 L 232.50 178.99 L 232.50 176.82 L 232.50 174.65 L 232.50 172.47 L 232.50 170.30 L 232.50 168.13 L 232.50 165.96 L 232.50 163.79 L 232.50 161.62 L 232.50 159.44 L 232.50 157.27 L 232.50 155.10 L 232.50 152.93 L 232.50 150.76 L 232.50 148.59 L 232.50 146.41 L 232.50 144.24 L 232.50 142.07 L 232.50 139.90 L 232.50 137.73 L 232.50 135.56 L 232.50 133.38 L 232.50 131.21 L 232.50 129.04 L 232.50 126.87 L 232.50 124.70 L 232.50 122.53 L 232.50 120.35 L 232.50 118.18 L 232.50 116.01 L 232.51 113.84 L 232.51 111.67 L 232.51 109.49 L 232.51 107.32 L 232.52 105.15 L 232.53 102.98 L 232.54 100.81 L 232.55 98.64 L 232.56 96.46 L 232.58 94.29 L 232.61 92.12 L 232.64 89.95 L 232.68 87.78 L 232.73 85.61 L 232.80 83.43 L 232.87 81.26 L 232.97 79.09 L 233.08 76.92 L 233.21 74.75 L 233.36 72.58 L 233.54 70.40 L 233.75 68.23 L 233.99 66.06 L 234.27 63.89 L 234.57 61.72 L 234.92 59.55 L 235.30 57.37 L 235.72 55.20 L 236.17 53.03 L 236.66 50.86 L 237.19 48.69 L 237.74 46.52 L 238.32 44.34 L 238.93 42.17 L 239.56 40.00 L 260.44 40.00 L 261.07 42.17 L 261.68 44.34 L 262.26 46.52 L 262.81 48.69 L 263.34 50.86 L 263.83 53.03 L 264.28 55.20 L 264.70 57.37 L 265.08 59.55 L 265.43 61.72 L 265.73 63.89 L 266.01 66.06 L 266.25 68.23 L 266.46 70.40 L 266.64 72.58 L 266.79 74.75 L 266.92 76.92 L 267.03 79.09 L 267.13 81.26 L 267.20 83.43 L 267.27 85.61 L 267.32 87.78 L 267.36 89.95 L 267.39 92.12 L 267.42 94.29 L 267.44 96.46 L 267.45 98.64 L 267.46 100.81 L 267.47 102.98 L 267.48 105.15 L 267.49 107.32 L 267.49 109.49 L 267.49 111.67 L 267.49 113.84 L 267.50 116.01 L 267.50 118.18 L 267.50 120.35 L 267.50 122.53 L 267.50 124.70 L 267.50 126.87 L 267.50 129.04 L 267.50 131.21 L 267.50 133.38 L 267.50 135.56 L 267.50 137.73 L 267.50 139.90 L 267.50 142.07 L 267.50 144.24 L 267.50 146.41 L 267.50 148.59 L 267.50 150.76 L 267.50 152.93 L 267.50 155.10 L 267.50 157.27 L 267.50 159.44 L 267.50 161.62 L 267.50 163.79 L 267.50 165.96 L 267.50 168.13 L 267.50 170.30 L 267.50 172.47 L 267.50 174.65 L 267.50 176.82 L 267.50 178.99 L 267.49 181.16 L 267.49 183.33 L 267.49 185.51 L 267.49 187.68 L 267.48 189.85 L 267.47 192.02 L 267.46 194.19 L 267.45 196.36 L 267.44 198.54 L 267.42 200.71 L 267.39 202.88 L 267.36 205.05 L 267.32 207.22 L 267.27 209.39 L 267.20 211.57 L 267.13 213.74 L 267.03 215.91 L 266.92 218.08 L 266.79 220.25 L 266.64 222.42 L 266.46 224.60 L 266.25 226.77 L 266.01 228.94 L 265.73 231.11 L 265.43 233.28 L 265.08 235.45 L 264.70 237.63 L 264.28 239.80 L 263.83 241.97 L 263.34 244.14 L 262.81 246.31 L 262.26 248.48 L 261.68 250.66 L 261.07 252.83 L 260.44 255.00 Z" fill="#4285f4" stroke="#333" stroke-width="1.00" opacity="0.60"/>
<rect x="245.80" y="93.75" width="8.40" height="107.50" fill="#fff" stroke="#333" stroke-width="1.50" opacity="0.80"/>
<line x1="245.80" y1="147.50" x2="254.20" y2="147.50" stroke="#333" stroke-width="2.00"/>
<circle cx="250.00" cy="147.50" r="3.00" fill="#333" stroke="#333"/>
<text x="250.00" y="275.00" text-anchor="middle" font-family="sans-serif" font-size="12.00px">Group B</text>
<path d="M 376.08 250.29 L 375.24 248.66 L 374.43 247.03 L 373.65 245.40 L 372.91 243.77 L 372.21 242.14 L 371.56 240.51 L 370.95 238.88 L 370.40 237.25 L 369.89 235.63 L 369.43 234.00 L 369.02 232.37 L 368.66 230.74 L 368.34 229.11 L 368.06 227.48 L 367.82 225.85 L 367.61 224.22 L 367.44 222.60 L 367.29 220.97 L 367.16 219.34 L 367.06 217.71 L 366.98 216.08 L 366.91 214.45 L 366.86 212.82 L 366.81 211.19 L 366.78 209.57 L 366.75 207.94 L 366.73 206.31 L 366.71 204.68 L 366.70 203.05 L 366.69 201.42 L 366.69 199.79 L 366.68 198.16 L 366.68 196.54 L 366.67 194.91 L 366.67 193.28 L 366.67 191.65 L 366.67 190.02 L 366.67 188.39 L 366.67 186.76 L 366.67 185.13 L 366.67 183.50 L 366.67 181.88 L 366.67 180.25 L 366.67 178.62 L 366.67 176.99 L 366.67 175.36 L 366.67 173.73 L 366.67 172.10 L 366.67 170.47 L 366.67 168.85 L 366.67 167.22 L 366.67 165.59 L 366.67 163.96 L 366.67 162.33 L 366.67 160.70 L 366.67 159.07 L 366.67 157.44 L 366.67 155.82 L 366.67 154.19 L 366.67 152.56 L 366.67 150.93 L 366.67 149.30 L 366.67 147.67 L 366.67 146.04 L 366.67 144.41 L 366.68 142.79 L 366.68 141.16 L 366.69 139.53 L 366.69 137.90 L 366.70 136.27 L 366.71 134.64 L 366.73 133.01 L 366.75 131.38 L 366.78 129.75 L 366.81 128.13 L 366.86 126.50 L 366.91 124.87 L 366.98 123.24 L 367.06 121.61 L 367.16 119.98 L 367.29 118.35 L 367.44 116.72 L 367.61 115.10 L 367.82 113.47 L 368.06 111.84 L 368.34 110.21 L 368.66 108.58 L 369.02 106.95 L 369.43 105.32 L 369.89 103.69 L 370.40 102.07 L 370.95 100.44 L 371.56 98.81 L 372.21 97.18 L 372.91 95.55 L 373.65 93.92 L 374.43 92.29 L 375.24 90.66 L 376.08 89.04 L 403.92 89.04 L 404.76 90.66 L 405.57 92.29 L 406.35 93.92 L 407.09 95.55 L 407.79 97.18 L 408.44 98.81 L 409.05 100.44 L 409.60 102.07 L 410.11 103.69 L 410.57 105.32 L 410.98 106.95 L 411.34 108.58 L 411.66 110.21 L 411.94 111.84 L 412.18 113.47 L 412.39 115.10 L 412.56 116.72 L 412.71 118.35 L 412.84 119.98 L 412.94 121.61 L 413.02 123.24 L 413.09 124.87 L 413.14 126.50 L 413.19 128.13 L 413.22 129.75 L 413.25 131.38 L 413.27 133.01 L 413.29 134.64 L 413.30 136.27 L 413.31 137.90 L 413.31 139.53 L 413.32 141.16 L 413.32 142.79 L 413.33 144.41 L 413.33 146.04 L 413.33 147.67 L 413.33 149.30 L 413.33 150.93 L 413.33 152.56 L 413.33 154.19 L 413.33 155.82 L 413.33 157.44 L 413.33 159.07 L 413.33 160.70 L 413.33 162.33 L 413.33 163.96 L 413.33 165.59 L 413.33 167.22 L 413.33 168.85 L 413.33 170.47 L 413.33 172.10 L 413.33 173.73 L 413.33 175.36 L 413.33 176.99 L 413.33 178.62 L 413.33 180.25 L 413.33 181.88 L 413.33 183.50 L 413.33 185.13 L 413.33 186.76 L 413.33 188.39 L 413.33 190.02 L 413.33 191.65 L 413.33 193.28 L 413.33 194.91 L 413.32 196.54 L 413.32 198.16 L 413.31 199.79 L 413.31 201.42 L 413.30 203.05 L 413.29 204.68 L 413.27 206.31 L 413.25 207.94 L 413.22 209.57 L 413.19 211.19 L 413.14 212.82 L 413.09 214.45 L 413.02 216.08 L 412.94 217.71 L 412.84 219.34 L 412.71 220.97 L 412.56 222.60 L 412.39 224.22 L 412.18 225.85 L 411.94 227.48 L 411.66 229.11 L 411.34 230.74 L 410.98 232.37 L 410.57 234.00 L 410.11 235.63 L 409.60 237.25 L 409.05 238.88 L 408.44 240.51 L 407.79 242.14 L 407.09 243.77 L 406.35 245.40 L 405.57 247.03 L 404.76 248.66 L 403.92 250.29 Z" fill="#4285f4" stroke="#333" stroke-width="1.00" opacity="0.60"/>
<rect x="385.80" y="129.35" width="8.40" height="80.63" fill="#fff" stroke="#333" stroke-width="1.50" opacity="0.80"/>
<line x1="385.80" y1="169.66" x2="394.20" y2="169.66" stroke="#333" stroke-width="2.00"/>
<circle cx="390.00" cy="169.66" r="3.00" fill="#333" stroke="#333"/>
<text x="390.00" y="275.00" text-anchor="middle" font-family="sans-serif" font-size="12.00px">Group C</text>
</g></g>
</svg>