<svg xmlns="http://www.w3.org/2000/svg" width="1200" height="400" viewBox="0 0 1200 400"><rect x="0.00" y="0.00" width="1200.00" height="400.00" fill="#ffffff"/>
<text x="600.00" y="30.00" fill="#000000" text-anchor="middle" font-family="sans-serif" font-size="20.00px" font-weight="bold">Violin Plot Gallery</text>
<g transform="translate(25, 60)"><text x="300.00" y="0.00" fill="#666" text-anchor="middle" font-family="sans-serif" font-size="14.00px" font-weight="bold">Basic Violin Plot</text><g transform="translate(0, 30)"><path d="M 100.91 270.40 L 100.19 269.04 L 99.48 267.68 L 98.78 266.33 L 98.09 264.97 L 97.42 263.61 L 96.75 262.25 L 96.11 260.90 L 95.48 259.54 L 94.87 258.18 L 94.29 256.82 L 93.72 255.47 L 93.18 254.11 L 92.65 252.75 L 92.16 251.39 L 91.69 250.04 L 91.24 248.68 L 90.82 247.32 L 90.43 245.96 L 90.06 244.61 L 89.72 243.25 L 89.40 241.89 L 89.11 240.53 L 88.85 239.18 L 88.61 237.82 L 88.40 236.46 L 88.21 235.10 L 88.04 233.75 L 87.89 232.39 L 87.76 231.03 L 87.66 229.67 L 87.57 228.32 L 87.50 226.96 L 87.44 225.60 L 87.39 224.24 L 87.36 222.88 L 87.34 221.53 L 87.32 220.17 L 87.31 218.81 L 87.31 217.45 L 87.32 216.10 L 87.32 214.74 L 87.33 213.38 L 87.34 212.02 L 87.36 210.67 L 87.37 209.31 L 87.39 207.95 L 87.40 206.59 L 87.42 205.24 L 87.44 203.88 L 87.46 202.52 L 87.49 201.16 L 87.52 199.81 L 87.55 198.45 L 87.60 197.09 L 87.65 195.73 L 87.71 194.38 L 87.79 193.02 L 87.88 191.66 L 87.98 190.30 L 88.10 188.95 L 88.24 187.59 L 88.40 186.23 L 88.58 184.87 L 88.78 183.52 L 89.01 182.16 L 89.26 180.80 L 89.53 179.44 L 89.82 178.08 L 90.14 176.73 L 90.48 175.37 L 90.84 174.01 L 91.22 172.65 L 91.63 171.30 L 92.05 169.94 L 92.50 168.58 L 92.96 167.22 L 93.43 165.87 L 93.93 164.51 L 94.43 163.15 L 94.94 161.79 L 95.47 160.44 L 96.00 159.08 L 96.54 157.72 L 97.09 156.36 L 97.64 155.01 L 98.20 153.65 L 98.75 152.29 L 99.31 150.93 L 99.87 149.58 L 100.43 148.22 L 100.99 146.86 L 101.55 145.50 L 102.10 144.15 L 102.66 142.79 L 103.21 141.43 L 103.76 140.07 L 104.31 138.72 L 104.85 137.36 L 105.40 136.00 L 131.27 136.00 L 131.81 137.36 L 132.36 138.72 L 132.90 140.07 L 133.45 141.43 L 134.01 142.79 L 134.56 144.15 L 135.12 145.50 L 135.68 146.86 L 136.24 148.22 L 136.80 149.58 L 137.36 150.93 L 137.91 152.29 L 138.47 153.65 L 139.03 155.01 L 139.58 156.36 L 140.12 157.72 L 140.66 159.08 L 141.20 160.44 L 141.72 161.79 L 142.24 163.15 L 142.74 164.51 L 143.23 165.87 L 143.71 167.22 L 144.17 168.58 L 144.61 169.94 L 145.04 171.30 L 145.44 172.65 L 145.83 174.01 L 146.19 175.37 L 146.53 176.73 L 146.85 178.08 L 147.14 179.44 L 147.41 180.80 L 147.66 182.16 L 147.88 183.52 L 148.08 184.87 L 148.26 186.23 L 148.42 187.59 L 148.56 188.95 L 148.68 190.30 L 148.79 191.66 L 148.88 193.02 L 148.95 194.38 L 149.02 195.73 L 149.07 197.09 L 149.11 198.45 L 149.15 199.81 L 149.18 201.16 L 149.21 202.52 L 149.23 203.88 L 149.25 205.24 L 149.26 206.59 L 149.28 207.95 L 149.30 209.31 L 149.31 210.67 L 149.32 212.02 L 149.33 213.38 L 149.34 214.74 L 149.35 216.10 L 149.35 217.45 L 149.35 218.81 L 149.35 220.17 L 149.33 221.53 L 149.31 222.88 L 149.27 224.24 L 149.23 225.60 L 149.17 226.96 L 149.10 228.32 L 149.01 229.67 L 148.90 231.03 L 148.78 232.39 L 148.63 233.75 L 148.46 235.10 L 148.27 236.46 L 148.06 237.82 L 147.82 239.18 L 147.55 240.53 L 147.26 241.89 L 146.95 243.25 L 146.61 244.61 L 146.24 245.96 L 145.85 247.32 L 145.43 248.68 L 144.98 250.04 L 144.51 251.39 L 144.01 252.75 L 143.49 254.11 L 142.95 255.47 L 142.38 256.82 L 141.79 258.18 L 141.18 259.54 L 140.56 260.90 L 139.91 262.25 L 139.25 263.61 L 138.57 264.97 L 137.89 266.33 L 137.19 267.68 L 136.48 269.04 L 135.76 270.40 Z" fill="#4285f4" stroke="#333" stroke-width="1.00" opacity="0.60"/>
<text x="118.33" y="300.00" text-anchor="middle" font-family="sans-serif" font-size="12.00px">Group A</text>
<path d="M 255.72 232.00 L 255.08 230.79 L 254.45 229.58 L 253.84 228.36 L 253.25 227.15 L 252.68 225.94 L 252.12 224.73 L 251.59 223.52 L 251.08 222.30 L 250.59 221.09 L 250.13 219.88 L 249.68 218.67 L 249.25 217.45 L 248.85 216.24 L 248.47 215.03 L 248.10 213.82 L 247.76 212.61 L 247.43 211.39 L 247.12 210.18 L 246.82 208.97 L 246.55 207.76 L 246.28 206.55 L 246.04 205.33 L 245.80 204.12 L 245.58 202.91 L 245.37 201.70 L 245.18 200.48 L 245.00 199.27 L 244.83 198.06 L 244.67 196.85 L 244.53 195.64 L 244.39 194.42 L 244.27 193.21 L 244.16 192.00 L 244.06 190.79 L 243.98 189.58 L 243.90 188.36 L 243.84 187.15 L 243.78 185.94 L 243.74 184.73 L 243.71 183.52 L 243.69 182.30 L 243.67 181.09 L 243.67 179.88 L 243.67 178.67 L 243.68 177.45 L 243.69 176.24 L 243.71 175.03 L 243.74 173.82 L 243.77 172.61 L 243.80 171.39 L 243.83 170.18 L 243.86 168.97 L 243.89 167.76 L 243.92 166.55 L 243.95 165.33 L 243.98 164.12 L 244.01 162.91 L 244.03 161.70 L 244.05 160.48 L 244.07 159.27 L 244.09 158.06 L 244.11 156.85 L 244.12 155.64 L 244.14 154.42 L 244.16 153.21 L 244.18 152.00 L 244.21 150.79 L 244.25 149.58 L 244.29 148.36 L 244.34 147.15 L 244.41 145.94 L 244.49 144.73 L 244.58 143.52 L 244.69 142.30 L 244.82 141.09 L 244.97 139.88 L 245.15 138.67 L 245.35 137.45 L 245.57 136.24 L 245.83 135.03 L 246.11 133.82 L 246.42 132.61 L 246.75 131.39 L 247.12 130.18 L 247.52 128.97 L 247.95 127.76 L 248.42 126.55 L 248.91 125.33 L 249.43 124.12 L 249.98 122.91 L 250.55 121.70 L 251.15 120.48 L 251.78 119.27 L 252.43 118.06 L 253.10 116.85 L 253.78 115.64 L 254.49 114.42 L 255.20 113.21 L 255.93 112.00 L 294.07 112.00 L 294.80 113.21 L 295.51 114.42 L 296.22 115.64 L 296.90 116.85 L 297.57 118.06 L 298.22 119.27 L 298.85 120.48 L 299.45 121.70 L 300.02 122.91 L 300.57 124.12 L 301.09 125.33 L 301.58 126.55 L 302.05 127.76 L 302.48 128.97 L 302.88 130.18 L 303.25 131.39 L 303.58 132.61 L 303.89 133.82 L 304.17 135.03 L 304.43 136.24 L 304.65 137.45 L 304.85 138.67 L 305.03 139.88 L 305.18 141.09 L 305.31 142.30 L 305.42 143.52 L 305.51 144.73 L 305.59 145.94 L 305.66 147.15 L 305.71 148.36 L 305.75 149.58 L 305.79 150.79 L 305.82 152.00 L 305.84 153.21 L 305.86 154.42 L 305.88 155.64 L 305.89 156.85 L 305.91 158.06 L 305.93 159.27 L 305.95 160.48 L 305.97 161.70 L 305.99 162.91 L 306.02 164.12 L 306.05 165.33 L 306.08 166.55 L 306.11 167.76 L 306.14 168.97 L 306.17 170.18 L 306.20 171.39 L 306.23 172.61 L 306.26 173.82 L 306.29 175.03 L 306.31 176.24 L 306.32 177.45 L 306.33 178.67 L 306.33 179.88 L 306.33 181.09 L 306.31 182.30 L 306.29 183.52 L 306.26 184.73 L 306.22 185.94 L 306.16 187.15 L 306.10 188.36 L 306.02 189.58 L 305.94 190.79 L 305.84 192.00 L 305.73 193.21 L 305.61 194.42 L 305.47 195.64 L 305.33 196.85 L 305.17 198.06 L 305.00 199.27 L 304.82 200.48 L 304.63 201.70 L 304.42 202.91 L 304.20 204.12 L 303.96 205.33 L 303.72 206.55 L 303.45 207.76 L 303.18 208.97 L 302.88 210.18 L 302.57 211.39 L 302.24 212.61 L 301.90 213.82 L 301.53 215.03 L 301.15 216.24 L 300.75 217.45 L 300.32 218.67 L 299.87 219.88 L 299.41 221.09 L 298.92 222.30 L 298.41 223.52 L 297.88 224.73 L 297.32 225.94 L 296.75 227.15 L 296.16 228.36 L 295.55 229.58 L 294.92 230.79 L 294.28 232.00 Z" fill="#4285f4" stroke="#333" stroke-width="1.00" opacity="0.60"/>
<text x="275.00" y="300.00" text-anchor="middle" font-family="sans-serif" font-size="12.00px">Group B</text>
<path d="M 419.91 280.00 L 419.48 277.58 L 419.06 275.15 L 418.66 272.73 L 418.26 270.30 L 417.87 267.88 L 417.50 265.45 L 417.14 263.03 L 416.80 260.61 L 416.47 258.18 L 416.16 255.76 L 415.87 253.33 L 415.59 250.91 L 415.33 248.48 L 415.09 246.06 L 414.86 243.64 L 414.65 241.21 L 414.45 238.79 L 414.27 236.36 L 414.11 233.94 L 413.96 231.52 L 413.83 229.09 L 413.71 226.67 L 413.61 224.24 L 413.52 221.82 L 413.45 219.39 L 413.38 216.97 L 413.33 214.55 L 413.30 212.12 L 413.27 209.70 L 413.26 207.27 L 413.25 204.85 L 413.26 202.42 L 413.28 200.00 L 413.31 197.58 L 413.35 195.15 L 413.41 192.73 L 413.47 190.30 L 413.55 187.88 L 413.63 185.45 L 413.73 183.03 L 413.83 180.61 L 413.95 178.18 L 414.08 175.76 L 414.22 173.33 L 414.36 170.91 L 414.52 168.48 L 414.69 166.06 L 414.86 163.64 L 415.05 161.21 L 415.24 158.79 L 415.44 156.36 L 415.65 153.94 L 415.87 151.52 L 416.09 149.09 L 416.31 146.67 L 416.54 144.24 L 416.78 141.82 L 417.01 139.39 L 417.25 136.97 L 417.49 134.55 L 417.73 132.12 L 417.97 129.70 L 418.20 127.27 L 418.43 124.85 L 418.67 122.42 L 418.89 120.00 L 419.11 117.58 L 419.33 115.15 L 419.54 112.73 L 419.75 110.30 L 419.95 107.88 L 420.14 105.45 L 420.33 103.03 L 420.51 100.61 L 420.69 98.18 L 420.86 95.76 L 421.03 93.33 L 421.19 90.91 L 421.35 88.48 L 421.50 86.06 L 421.65 83.64 L 421.80 81.21 L 421.94 78.79 L 422.09 76.36 L 422.24 73.94 L 422.38 71.52 L 422.53 69.09 L 422.68 66.67 L 422.83 64.24 L 422.99 61.82 L 423.15 59.39 L 423.31 56.97 L 423.48 54.55 L 423.66 52.12 L 423.84 49.70 L 424.02 47.27 L 424.21 44.85 L 424.41 42.42 L 424.62 40.00 L 438.72 40.00 L 438.92 42.42 L 439.12 44.85 L 439.31 47.27 L 439.50 49.70 L 439.68 52.12 L 439.85 54.55 L 440.02 56.97 L 440.19 59.39 L 440.35 61.82 L 440.50 64.24 L 440.66 66.67 L 440.80 69.09 L 440.95 71.52 L 441.10 73.94 L 441.24 76.36 L 441.39 78.79 L 441.54 81.21 L 441.68 83.64 L 441.83 86.06 L 441.99 88.48 L 442.14 90.91 L 442.31 93.33 L 442.47 95.76 L 442.64 98.18 L 442.82 100.61 L 443.00 103.03 L 443.19 105.45 L 443.38 107.88 L 443.58 110.30 L 443.79 112.73 L 444.00 115.15 L 444.22 117.58 L 444.44 120.00 L 444.67 122.42 L 444.90 124.85 L 445.13 127.27 L 445.37 129.70 L 445.61 132.12 L 445.84 134.55 L 446.08 136.97 L 446.32 139.39 L 446.56 141.82 L 446.79 144.24 L 447.02 146.67 L 447.24 149.09 L 447.47 151.52 L 447.68 153.94 L 447.89 156.36 L 448.09 158.79 L 448.28 161.21 L 448.47 163.64 L 448.64 166.06 L 448.81 168.48 L 448.97 170.91 L 449.12 173.33 L 449.26 175.76 L 449.38 178.18 L 449.50 180.61 L 449.61 183.03 L 449.70 185.45 L 449.79 187.88 L 449.86 190.30 L 449.93 192.73 L 449.98 195.15 L 450.02 197.58 L 450.05 200.00 L 450.07 202.42 L 450.08 204.85 L 450.08 207.27 L 450.06 209.70 L 450.04 212.12 L 450.00 214.55 L 449.95 216.97 L 449.89 219.39 L 449.81 221.82 L 449.72 224.24 L 449.62 226.67 L 449.50 229.09 L 449.37 231.52 L 449.22 233.94 L 449.06 236.36 L 448.88 238.79 L 448.69 241.21 L 448.48 243.64 L 448.25 246.06 L 448.00 248.48 L 447.74 250.91 L 447.46 253.33 L 447.17 255.76 L 446.86 258.18 L 446.53 260.61 L 446.19 263.03 L 445.83 265.45 L 445.46 267.88 L 445.08 270.30 L 444.68 272.73 L 444.27 275.15 L 443.85 277.58 L 443.42 280.00 Z" fill="#4285f4" stroke="#333" stroke-width="1.00" opacity="0.60"/>
<text x="431.67" y="300.00" text-anchor="middle" font-family="sans-serif" font-size="12.00px">Group C</text>
</g></g>
<g transform="translate(625, 60)"><text x="300.00" y="0.00" fill="#666" text-anchor="middle" font-family="sans-serif" font-size="14.00px" font-weight="bold">Violin + Box Plot</text><g transform="translate(0, 30)"><path d="M 100.91 270.40 L 100.19 269.04 L 99.48 267.68 L 98.78 266.33 L 98.09 264.97 L 97.42 263.61 L 96.75 262.25 L 96.11 260.90 L 95.48 259.54 L 94.87 258.18 L 94.29 256.82 L 93.72 255.47 L 93.18 254.11 L 92.65 252.75 L 92.16 251.39 L 91.69 250.04 L 91.24 248.68 L 90.82 247.32 L 90.43 245.96 L 90.06 244.61 L 89.72 243.25 L 89.40 241.89 L 89.11 240.53 L 88.85 239.18 L 88.61 237.82 L 88.40 236.46 L 88.21 235.10 L 88.04 233.75 L 87.89 232.39 L 87.76 231.03 L 87.66 229.67 L 87.57 228.32 L 87.50 226.96 L 87.44 225.60 L 87.39 224.24 L 87.36 222.88 L 87.34 221.53 L 87.32 220.17 L 87.31 218.81 L 87.31 217.45 L 87.32 216.10 L 87.32 214.74 L 87.33 213.38 L 87.34 212.02 L 87.36 210.67 L 87.37 209.31 L 87.39 207.95 L 87.40 206.59 L 87.42 205.24 L 87.44 203.88 L 87.46 202.52 L 87.49 201.16 L 87.52 199.81 L 87.55 198.45 L 87.60 197.09 L 87.65 195.73 L 87.71 194.38 L 87.79 193.02 L 87.88 191.66 L 87.98 190.30 L 88.10 188.95 L 88.24 187.59 L 88.40 186.23 L 88.58 184.87 L 88.78 183.52 L 89.01 182.16 L 89.26 180.80 L 89.53 179.44 L 89.82 178.08 L 90.14 176.73 L 90.48 175.37 L 90.84 174.01 L 91.22 172.65 L 91.63 171.30 L 92.05 169.94 L 92.50 168.58 L 92.96 167.22 L 93.43 165.87 L 93.93 164.51 L 94.43 163.15 L 94.94 161.79 L 95.47 160.44 L 96.00 159.08 L 96.54 157.72 L 97.09 156.36 L 97.64 155.01 L 98.20 153.65 L 98.75 152.29 L 99.31 150.93 L 99.87 149.58 L 100.43 148.22 L 100.99 146.86 L 101.55 145.50 L 102.10 144.15 L 102.66 142.79 L 103.21 141.43 L 103.76 140.07 L 104.31 138.72 L 104.85 137.36 L 105.40 136.00 L 131.27 136.00 L 131.81 137.36 L 132.36 138.72 L 132.90 140.07 L 133.45 141.43 L 134.01 142.79 L 134.56 144.15 L 135.12 145.50 L 135.68 146.86 L 136.24 148.22 L 136.80 149.58 L 137.36 150.93 L 137.91 152.29 L 138.47 153.65 L 139.03 155.01 L 139.58 156.36 L 140.12 157.72 L 140.66 159.08 L 141.20 160.44 L 141.72 161.79 L 142.24 163.15 L 142.74 164.51 L 143.23 165.87 L 143.71 167.22 L 144.17 168.58 L 144.61 169.94 L 145.04 171.30 L 145.44 172.65 L 145.83 174.01 L 146.19 175.37 L 146.53 176.73 L 146.85 178.08 L 147.14 179.44 L 147.41 180.80 L 147.66 182.16 L 147.88 183.52 L 148.08 184.87 L 148.26 186.23 L 148.42 187.59 L 148.56 188.95 L 148.68 190.30 L 148.79 191.66 L 148.88 193.02 L 148.95 194.38 L 149.02 195.73 L 149.07 197.09 L 149.11 198.45 L 149.15 199.81 L 149.18 201.16 L 149.21 202.52 L 149.23 203.88 L 149.25 205.24 L 149.26 206.59 L 149.28 207.95 L 149.30 209.31 L 149.31 210.67 L 149.32 212.02 L 149.33 213.38 L 149.34 214.74 L 149.35 216.10 L 149.35 217.45 L 149.35 218.81 L 149.35 220.17 L 149.33 221.53 L 149.31 222.88 L 149.27 224.24 L 149.23 225.60 L 149.17 226.96 L 149.10 228.32 L 149.01 229.67 L 148.90 231.03 L 148.78 232.39 L 148.63 233.75 L 148.46 235.10 L 148.27 236.46 L 148.06 237.82 L 147.82 239.18 L 147.55 240.53 L 147.26 241.89 L 146.95 243.25 L 146.61 244.61 L 146.24 245.96 L 145.85 247.32 L 145.43 248.68 L 144.98 250.04 L 144.51 251.39 L 144.01 252.75 L 143.49 254.11 L 142.95 255.47 L 142.38 256.82 L 141.79 258.18 L 141.18 259.54 L 140.56 260.90 L 139.91 262.25 L 139.25 263.61 L 138.57 264.97 L 137.89 266.33 L 137.19 267.68 L 136.48 269.04 L 135.76 270.40 Z" fill="#4285f4" stroke="#333" stroke-width="1.00" opacity="0.60"/>
<rect x="113.63" y="179.20" width="9.40" height="57.60" fill="#fff" stroke="#333" stroke-width="1.50" opacity="0.80"/>
<line x1="113.63" y1="208.00" x2="123.03" y2="208.00" stroke="#333" stroke-width="2.00"/>
<circle cx="118.33" cy="207.13" r="3.00" fill="#333" stroke="#333"/>
<text x="118.33" y="300.00" text-anchor="middle" font-family="sans-serif" font-size="12.00px">Group A</text>
<path d="M 255.72 232.00 L 255.08 230.79 L 254.45 229.58 L 253.84 228.36 L 253.25 227.15 L 252.68 225.94 L 252.12 224.73 L 251.59 223.52 L 251.08 222.30 L 250.59 221.09 L 250.13 219.88 L 249.68 218.67 L 249.25 217.45 L 248.85 216.24 L 248.47 215.03 L 248.10 213.82 L 247.76 212.61 L 247.43 211.39 L 247.12 210.18 L 246.82 208.97 L 246.55 207.76 L 246.28 206.55 L 246.04 205.33 L 245.80 204.12 L 245.58 202.91 L 245.37 201.70 L 245.18 200.48 L 245.00 199.27 L 244.83 198.06 L 244.67 196.85 L 244.53 195.64 L 244.39 194.42 L 244.27 193.21 L 244.16 192.00 L 244.06 190.79 L 243.98 189.58 L 243.90 188.36 L 243.84 187.15 L 243.78 185.94 L 243.74 184.73 L 243.71 183.52 L 243.69 182.30 L 243.67 181.09 L 243.67 179.88 L 243.67 178.67 L 243.68 177.45 L 243.69 176.24 L 243.71 175.03 L 243.74 173.82 L 243.77 172.61 L 243.80 171.39 L 243.83 170.18 L 243.86 168.97 L 243.89 167.76 L 243.92 166.55 L 243.95 165.33 L 243.98 164.12 L 244.01 162.91 L 244.03 161.70 L 244.05 160.48 L 244.07 159.27 L 244.09 158.06 L 244.11 156.85 L 244.12 155.64 L 244.14 154.42 L 244.16 153.21 L 244.18 152.00 L 244.21 150.79 L 244.25 149.58 L 244.29 148.36 L 244.34 147.15 L 244.41 145.94 L 244.49 144.73 L 244.58 143.52 L 244.69 142.30 L 244.82 141.09 L 244.97 139.88 L 245.15 138.67 L 245.35 137.45 L 245.57 136.24 L 245.83 135.03 L 246.11 133.82 L 246.42 132.61 L 246.75 131.39 L 247.12 130.18 L 247.52 128.97 L 247.95 127.76 L 248.42 126.55 L 248.91 125.33 L 249.43 124.12 L 249.98 122.91 L 250.55 121.70 L 251.15 120.48 L 251.78 119.27 L 252.43 118.06 L 253.10 116.85 L 253.78 115.64 L 254.49 114.42 L 255.20 113.21 L 255.93 112.00 L 294.07 112.00 L 294.80 113.21 L 295.51 114.42 L 296.22 115.64 L 296.90 116.85 L 297.57 118.06 L 298.22 119.27 L 298.85 120.48 L 299.45 121.70 L 300.02 122.91 L 300.57 124.12 L 301.09 125.33 L 301.58 126.55 L 302.05 127.76 L 302.48 128.97 L 302.88 130.18 L 303.25 131.39 L 303.58 132.61 L 303.89 133.82 L 304.17 135.03 L 304.43 136.24 L 304.65 137.45 L 304.85 138.67 L 305.03 139.88 L 305.18 141.09 L 305.31 142.30 L 305.42 143.52 L 305.51 144.73 L 305.59 145.94 L 305.66 147.15 L 305.71 148.36 L 305.75 149.58 L 305.79 150.79 L 305.82 152.00 L 305.84 153.21 L 305.86 154.42 L 305.88 155.64 L 305.89 156.85 L 305.91 158.06 L 305.93 159.27 L 305.95 160.48 L 305.97 161.70 L 305.99 162.91 L 306.02 164.12 L 306.05 165.33 L 306.08 166.55 L 306.11 167.76 L 306.14 168.97 L 306.17 170.18 L 306.20 171.39 L 306.23 172.61 L 306.26 173.82 L 306.29 175.03 L 306.31 176.24 L 306.32 177.45 L 306.33 178.67 L 306.33 179.88 L 306.33 181.09 L 306.31 182.30 L 306.29 183.52 L 306.26 184.73 L 306.22 185.94 L 306.16 187.15 L 306.10 188.36 L 306.02 189.58 L 305.94 190.79 L 305.84 192.00 L 305.73 193.21 L 305.61 194.42 L 305.47 195.64 L 305.33 196.85 L 305.17 198.06 L 305.00 199.27 L 304.82 200.48 L 304.63 201.70 L 304.42 202.91 L 304.20 204.12 L 303.96 205.33 L 303.72 206.55 L 303.45 207.76 L 303.18 208.97 L 302.88 210.18 L 302.57 211.39 L 302.24 212.61 L 301.90 213.82 L 301.53 215.03 L 301.15 216.24 L 300.75 217.45 L 300.32 218.67 L 299.87 219.88 L 299.41 221.09 L 298.92 222.30 L 298.41 223.52 L 297.88 224.73 L 297.32 225.94 L 296.75 227.15 L 296.16 228.36 L 295.55 229.58 L 294.92 230.79 L 294.28 232.00 Z" fill="#4285f4" stroke="#333" stroke-width="1.00" opacity="0.60"/>
<rect x="270.30" y="140.80" width="9.40" height="60.00" fill="#fff" stroke="#333" stroke-width="1.50" opacity="0.80"/>
<line x1="270.30" y1="174.40" x2="279.70" y2="174.40" stroke="#333" stroke-width="2.00"/>
<circle cx="275.00" cy="172.22" r="3.00" fill="#333" stroke="#333"/>
<text x="275.00" y="300.00" text-anchor="middle" font-family="sans-serif" font-size="12.00px">Group B</text>
<path d="M 419.91 280.00 L 419.48 277.58 L 419.06 275.15 L 418.66 272.73 L 418.26 270.30 L 417.87 267.88 L 417.50 265.45 L 417.14 263.03 L 416.80 260.61 L 416.47 258.18 L 416.16 255.76 L 415.87 253.33 L 415.59 250.91 L 415.33 248.48 L 415.09 246.06 L 414.86 243.64 L 414.65 241.21 L 414.45 238.79 L 414.27 236.36 L 414.11 233.94 L 413.96 231.52 L 413.83 229.09 L 413.71 226.67 L 413.61 224.24 L 413.52 221.82 L 413.45 219.39 L 413.38 216.97 L 413.33 214.55 L 413.30 212.12 L 413.27 209.70 L 413.26 207.27 L 413.25 204.85 L 413.26 202.42 L 413.28 200.00 L 413.31 197.58 L 413.35 195.15 L 413.41 192.73 L 413.47 190.30 L 413.55 187.88 L 413.63 185.45 L 413.73 183.03 L 413.83 180.61 L 413.95 178.18 L 414.08 175.76 L 414.22 173.33 L 414.36 170.91 L 414.52 168.48 L 414.69 166.06 L 414.86 163.64 L 415.05 161.21 L 415.24 158.79 L 415.44 156.36 L 415.65 153.94 L 415.87 151.52 L 416.09 149.09 L 416.31 146.67 L 416.54 144.24 L 416.78 141.82 L 417.01 139.39 L 417.25 136.97 L 417.49 134.55 L 417.73 132.12 L 417.97 129.70 L 418.20 127.27 L 418.43 124.85 L 418.67 122.42 L 418.89 120.00 L 419.11 117.58 L 419.33 115.15 L 419.54 112.73 L 419.75 110.30 L 419.95 107.88 L 420.14 105.45 L 420.33 103.03 L 420.51 100.61 L 420.69 98.18 L 420.86 95.76 L 421.03 93.33 L 421.19 90.91 L 421.35 88.48 L 421.50 86.06 L 421.65 83.64 L 421.80 81.21 L 421.94 78.79 L 422.09 76.36 L 422.24 73.94 L 422.38 71.52 L 422.53 69.09 L 422.68 66.67 L 422.83 64.24 L 422.99 61.82 L 423.15 59.39 L 423.31 56.97 L 423.48 54.55 L 423.66 52.12 L 423.84 49.70 L 424.02 47.27 L 424.21 44.85 L 424.41 42.42 L 424.62 40.00 L 438.72 40.00 L 438.92 42.42 L 439.12 44.85 L 439.31 47.27 L 439.50 49.70 L 439.68 52.12 L 439.85 54.55 L 440.02 56.97 L 440.19 59.39 L 440.35 61.82 L 440.50 64.24 L 440.66 66.67 L 440.80 69.09 L 440.95 71.52 L 441.10 73.94 L 441.24 76.36 L 441.39 78.79 L 441.54 81.21 L 441.68 83.64 L 441.83 86.06 L 441.99 88.48 L 442.14 90.91 L 442.31 93.33 L 442.47 95.76 L 442.64 98.18 L 442.82 100.61 L 443.00 103.03 L 443.19 105.45 L 443.38 107.88 L 443.58 110.30 L 443.79 112.73 L 444.00 115.15 L 444.22 117.58 L 444.44 120.00 L 444.67 122.42 L 444.90 124.85 L 445.13 127.27 L 445.37 129.70 L 445.61 132.12 L 445.84 134.55 L 446.08 136.97 L 446.32 139.39 L 446.56 141.82 L 446.79 144.24 L 447.02 146.67 L 447.24 149.09 L 447.47 151.52 L 447.68 153.94 L 447.89 156.36 L 448.09 158.79 L 448.28 161.21 L 448.47 163.64 L 448.64 166.06 L 448.81 168.48 L 448.97 170.91 L 449.12 173.33 L 449.26 175.76 L 449.38 178.18 L 449.50 180.61 L 449.61 183.03 L 449.70 185.45 L 449.79 187.88 L 449.86 190.30 L 449.93 192.73 L 449.98 195.15 L 450.02 197.58 L 450.05 200.00 L 450.07 202.42 L 450.08 204.85 L 450.08 207.27 L 450.06 209.70 L 450.04 212.12 L 450.00 214.55 L 449.95 216.97 L 449.89 219.39 L 449.81 221.82 L 449.72 224.24 L 449.62 226.67 L 449.50 229.09 L 449.37 231.52 L 449.22 233.94 L 449.06 236.36 L 448.88 238.79 L 448.69 241.21 L 448.48 243.64 L 448.25 246.06 L 448.00 248.48 L 447.74 250.91 L 447.46 253.33 L 447.17 255.76 L 446.86 258.18 L 446.53 260.61 L 446.19 263.03 L 445.83 265.45 L 445.46 267.88 L 445.08 270.30 L 444.68 272.73 L 444.27 275.15 L 443.85 277.58 L 443.42 280.00 Z" fill="#4285f4" stroke="#333" stroke-width="1.00" opacity="0.60"/>
<rect x="426.97" y="136.00" width="9.40" height="96.00" fill="#fff" stroke="#333" stroke-width="1.50" opacity="0.80"/>
<line x1="426.97" y1="184.00" x2="436.37" y2="184.00" stroke="#333" stroke-width="2.00"/>
<circle cx="431.67" cy="176.00" r="3.00" fill="#333" stroke="#333"/>
<text x="431.67" y="300.00" text-anchor="middle" font-family="sans-serif" font-size="12.00px">Group C</text>
</g></g>
</svg>