<svg xmlns="http://www.w3.org/2000/svg" width="1200" height="480" viewBox="0 0 1200 480"><rect x="0.00" y="0.00" width="1200.00" height="480.00" fill="#ffffff"/>
<text x="600.00" y="30.00" fill="#000000" text-anchor="middle" font-family="sans-serif" font-size="20.00px" font-weight="bold">Violin Plot Gallery</text>
<g transform="translate(25.00, 60.00)"><text x="300.00" y="0.00" fill="#666" text-anchor="middle" font-family="sans-serif" font-size="14.00px" font-weight="bold">Basic Violin Plot</text><g transform="translate(0, 30.00)"><path d="M 94.43 246.40 L 93.79 245.18 L 93.15 243.97 L 92.53 242.75 L 91.91 241.54 L 91.31 240.32 L 90.72 239.10 L 90.14 237.89 L 89.58 236.67 L 89.04 235.45 L 88.51 234.24 L 88.00 233.02 L 87.52 231.81 L 87.05 230.59 L 86.61 229.37 L 86.19 228.16 L 85.79 226.94 L 85.42 225.73 L 85.06 224.51 L 84.73 223.29 L 84.43 222.08 L 84.15 220.86 L 83.89 219.64 L 83.65 218.43 L 83.44 217.21 L 83.25 216.00 L 83.08 214.78 L 82.93 213.56 L 82.80 212.35 L 82.68 211.13 L 82.59 209.92 L 82.51 208.70 L 82.44 207.48 L 82.39 206.27 L 82.35 205.05 L 82.32 203.83 L 82.30 202.62 L 82.29 201.40 L 82.28 200.19 L 82.28 198.97 L 82.28 197.75 L 82.29 196.54 L 82.30 195.32 L 82.31 194.11 L 82.32 192.89 L 82.33 191.67 L 82.35 190.46 L 82.36 189.24 L 82.38 188.02 L 82.39 186.81 L 82.41 185.59 L 82.43 184.38 L 82.46 183.16 L 82.49 181.94 L 82.53 180.73 L 82.58 179.51 L 82.64 178.29 L 82.70 177.08 L 82.78 175.86 L 82.88 174.65 L 82.99 173.43 L 83.11 172.21 L 83.25 171.00 L 83.41 169.78 L 83.59 168.57 L 83.80 167.35 L 84.02 166.13 L 84.26 164.92 L 84.52 163.70 L 84.80 162.48 L 85.11 161.27 L 85.43 160.05 L 85.77 158.84 L 86.14 157.62 L 86.52 156.40 L 86.91 155.19 L 87.32 153.97 L 87.75 152.76 L 88.19 151.54 L 88.64 150.32 L 89.10 149.11 L 89.57 147.89 L 90.05 146.67 L 90.53 145.46 L 91.02 144.24 L 91.51 143.03 L 92.00 141.81 L 92.50 140.59 L 93.00 139.38 L 93.50 138.16 L 94.00 136.95 L 94.50 135.73 L 95.00 134.51 L 95.50 133.30 L 95.99 132.08 L 96.49 130.86 L 96.98 129.65 L 97.47 128.43 L 97.96 127.22 L 98.44 126.00 L 121.56 126.00 L 122.04 127.22 L 122.53 128.43 L 123.02 129.65 L 123.51 130.86 L 124.01 132.08 L 124.50 133.30 L 125.00 134.51 L 125.50 135.73 L 126.00 136.95 L 126.50 138.16 L 127.00 139.38 L 127.50 140.59 L 128.00 141.81 L 128.49 143.03 L 128.98 144.24 L 129.47 145.46 L 129.95 146.67 L 130.43 147.89 L 130.90 149.11 L 131.36 150.32 L 131.81 151.54 L 132.25 152.76 L 132.68 153.97 L 133.09 155.19 L 133.48 156.40 L 133.86 157.62 L 134.23 158.84 L 134.57 160.05 L 134.89 161.27 L 135.20 162.48 L 135.48 163.70 L 135.74 164.92 L 135.98 166.13 L 136.20 167.35 L 136.41 168.57 L 136.59 169.78 L 136.75 171.00 L 136.89 172.21 L 137.01 173.43 L 137.12 174.65 L 137.22 175.86 L 137.30 177.08 L 137.36 178.29 L 137.42 179.51 L 137.47 180.73 L 137.51 181.94 L 137.54 183.16 L 137.57 184.38 L 137.59 185.59 L 137.61 186.81 L 137.62 188.02 L 137.64 189.24 L 137.65 190.46 L 137.67 191.67 L 137.68 192.89 L 137.69 194.11 L 137.70 195.32 L 137.71 196.54 L 137.72 197.75 L 137.72 198.97 L 137.72 200.19 L 137.71 201.40 L 137.70 202.62 L 137.68 203.83 L 137.65 205.05 L 137.61 206.27 L 137.56 207.48 L 137.49 208.70 L 137.41 209.92 L 137.32 211.13 L 137.20 212.35 L 137.07 213.56 L 136.92 214.78 L 136.75 216.00 L 136.56 217.21 L 136.35 218.43 L 136.11 219.64 L 135.85 220.86 L 135.57 222.08 L 135.27 223.29 L 134.94 224.51 L 134.58 225.73 L 134.21 226.94 L 133.81 228.16 L 133.39 229.37 L 132.95 230.59 L 132.48 231.81 L 132.00 233.02 L 131.49 234.24 L 130.96 235.45 L 130.42 236.67 L 129.86 237.89 L 129.28 239.10 L 128.69 240.32 L 128.09 241.54 L 127.47 242.75 L 126.85 243.97 L 126.21 245.18 L 125.57 246.40 Z" fill="#4285f4" stroke="#333" stroke-width="1.00" opacity="0.60"/>
<text x="110.00" y="275.00" text-anchor="middle" font-family="sans-serif" font-size="12.00px">Group A</text>
<path d="M 232.77 212.00 L 232.20 210.91 L 231.64 209.83 L 231.09 208.74 L 230.56 207.66 L 230.05 206.57 L 229.56 205.48 L 229.08 204.40 L 228.63 203.31 L 228.19 202.23 L 227.77 201.14 L 227.37 200.06 L 226.99 198.97 L 226.63 197.88 L 226.29 196.80 L 225.96 195.71 L 225.65 194.63 L 225.36 193.54 L 225.08 192.45 L 224.82 191.37 L 224.57 190.28 L 224.34 189.20 L 224.12 188.11 L 223.91 187.03 L 223.71 185.94 L 223.53 184.85 L 223.35 183.77 L 223.19 182.68 L 223.04 181.60 L 222.90 180.51 L 222.77 179.42 L 222.65 178.34 L 222.54 177.25 L 222.44 176.17 L 222.35 175.08 L 222.28 173.99 L 222.21 172.91 L 222.15 171.82 L 222.10 170.74 L 222.07 169.65 L 222.04 168.57 L 222.02 167.48 L 222.00 166.39 L 222.00 165.31 L 222.00 164.22 L 222.01 163.14 L 222.02 162.05 L 222.04 160.96 L 222.06 159.88 L 222.09 158.79 L 222.12 157.71 L 222.14 156.62 L 222.17 155.54 L 222.20 154.45 L 222.23 153.36 L 222.26 152.28 L 222.28 151.19 L 222.30 150.11 L 222.32 149.02 L 222.34 147.93 L 222.36 146.85 L 222.38 145.76 L 222.39 144.68 L 222.41 143.59 L 222.42 142.51 L 222.44 141.42 L 222.46 140.33 L 222.49 139.25 L 222.52 138.16 L 222.56 137.08 L 222.61 135.99 L 222.66 134.90 L 222.73 133.82 L 222.82 132.73 L 222.92 131.65 L 223.03 130.56 L 223.17 129.47 L 223.32 128.39 L 223.50 127.30 L 223.70 126.22 L 223.93 125.13 L 224.18 124.05 L 224.46 122.96 L 224.76 121.87 L 225.09 120.79 L 225.45 119.70 L 225.83 118.62 L 226.24 117.53 L 226.68 116.44 L 227.15 115.36 L 227.64 114.27 L 228.15 113.19 L 228.69 112.10 L 229.25 111.02 L 229.83 109.93 L 230.43 108.84 L 231.04 107.76 L 231.67 106.67 L 232.31 105.59 L 232.96 104.50 L 267.04 104.50 L 267.69 105.59 L 268.33 106.67 L 268.96 107.76 L 269.57 108.84 L 270.17 109.93 L 270.75 111.02 L 271.31 112.10 L 271.85 113.19 L 272.36 114.27 L 272.85 115.36 L 273.32 116.44 L 273.76 117.53 L 274.17 118.62 L 274.55 119.70 L 274.91 120.79 L 275.24 121.87 L 275.54 122.96 L 275.82 124.05 L 276.07 125.13 L 276.30 126.22 L 276.50 127.30 L 276.68 128.39 L 276.83 129.47 L 276.97 130.56 L 277.08 131.65 L 277.18 132.73 L 277.27 133.82 L 277.34 134.90 L 277.39 135.99 L 277.44 137.08 L 277.48 138.16 L 277.51 139.25 L 277.54 140.33 L 277.56 141.42 L 277.58 142.51 L 277.59 143.59 L 277.61 144.68 L 277.62 145.76 L 277.64 146.85 L 277.66 147.93 L 277.68 149.02 L 277.70 150.11 L 277.72 151.19 L 277.74 152.28 L 277.77 153.36 L 277.80 154.45 L 277.83 155.54 L 277.86 156.62 L 277.88 157.71 L 277.91 158.79 L 277.94 159.88 L 277.96 160.96 L 277.98 162.05 L 277.99 163.14 L 278.00 164.22 L 278.00 165.31 L 278.00 166.39 L 277.98 167.48 L 277.96 168.57 L 277.93 169.65 L 277.90 170.74 L 277.85 171.82 L 277.79 172.91 L 277.72 173.99 L 277.65 175.08 L 277.56 176.17 L 277.46 177.25 L 277.35 178.34 L 277.23 179.42 L 277.10 180.51 L 276.96 181.60 L 276.81 182.68 L 276.65 183.77 L 276.47 184.85 L 276.29 185.94 L 276.09 187.03 L 275.88 188.11 L 275.66 189.20 L 275.43 190.28 L 275.18 191.37 L 274.92 192.45 L 274.64 193.54 L 274.35 194.63 L 274.04 195.71 L 273.71 196.80 L 273.37 197.88 L 273.01 198.97 L 272.63 200.06 L 272.23 201.14 L 271.81 202.23 L 271.37 203.31 L 270.92 204.40 L 270.44 205.48 L 269.95 206.57 L 269.44 207.66 L 268.91 208.74 L 268.36 209.83 L 267.80 210.91 L 267.23 212.00 Z" fill="#4285f4" stroke="#333" stroke-width="1.00" opacity="0.60"/>
<text x="250.00" y="275.00" text-anchor="middle" font-family="sans-serif" font-size="12.00px">Group B</text>
<path d="M 379.49 255.00 L 379.11 252.83 L 378.74 250.66 L 378.37 248.48 L 378.02 246.31 L 377.67 244.14 L 377.34 241.97 L 377.02 239.80 L 376.72 237.63 L 376.42 235.45 L 376.15 233.28 L 375.88 231.11 L 375.63 228.94 L 375.40 226.77 L 375.18 224.60 L 374.98 222.42 L 374.79 220.25 L 374.62 218.08 L 374.46 215.91 L 374.31 213.74 L 374.18 211.57 L 374.06 209.39 L 373.96 207.22 L 373.87 205.05 L 373.79 202.88 L 373.72 200.71 L 373.66 198.54 L 373.62 196.36 L 373.58 194.19 L 373.56 192.02 L 373.55 189.85 L 373.54 187.68 L 373.55 185.51 L 373.57 183.33 L 373.60 181.16 L 373.64 178.99 L 373.68 176.82 L 373.74 174.65 L 373.81 172.47 L 373.88 170.30 L 373.97 168.13 L 374.06 165.96 L 374.17 163.79 L 374.28 161.62 L 374.41 159.44 L 374.54 157.27 L 374.68 155.10 L 374.83 152.93 L 374.99 150.76 L 375.15 148.59 L 375.32 146.41 L 375.50 144.24 L 375.69 142.07 L 375.88 139.90 L 376.08 137.73 L 376.28 135.56 L 376.49 133.38 L 376.69 131.21 L 376.91 129.04 L 377.12 126.87 L 377.33 124.70 L 377.54 122.53 L 377.76 120.35 L 377.97 118.18 L 378.18 116.01 L 378.38 113.84 L 378.58 111.67 L 378.78 109.49 L 378.98 107.32 L 379.17 105.15 L 379.35 102.98 L 379.53 100.81 L 379.70 98.64 L 379.87 96.46 L 380.03 94.29 L 380.19 92.12 L 380.35 89.95 L 380.49 87.78 L 380.64 85.61 L 380.78 83.43 L 380.91 81.26 L 381.05 79.09 L 381.18 76.92 L 381.31 74.75 L 381.44 72.58 L 381.57 70.40 L 381.70 68.23 L 381.83 66.06 L 381.97 63.89 L 382.10 61.72 L 382.24 59.55 L 382.39 57.37 L 382.53 55.20 L 382.68 53.03 L 382.84 50.86 L 383.00 48.69 L 383.17 46.52 L 383.34 44.34 L 383.52 42.17 L 383.70 40.00 L 396.30 40.00 L 396.48 42.17 L 396.66 44.34 L 396.83 46.52 L 397.00 48.69 L 397.16 50.86 L 397.32 53.03 L 397.47 55.20 L 397.61 57.37 L 397.76 59.55 L 397.90 61.72 L 398.03 63.89 L 398.17 66.06 L 398.30 68.23 L 398.43 70.40 L 398.56 72.58 L 398.69 74.75 L 398.82 76.92 L 398.95 79.09 L 399.09 81.26 L 399.22 83.43 L 399.36 85.61 L 399.51 87.78 L 399.65 89.95 L 399.81 92.12 L 399.97 94.29 L 400.13 96.46 L 400.30 98.64 L 400.47 100.81 L 400.65 102.98 L 400.83 105.15 L 401.02 107.32 L 401.22 109.49 L 401.42 111.67 L 401.62 113.84 L 401.82 116.01 L 402.03 118.18 L 402.24 120.35 L 402.46 122.53 L 402.67 124.70 L 402.88 126.87 L 403.09 129.04 L 403.31 131.21 L 403.51 133.38 L 403.72 135.56 L 403.92 137.73 L 404.12 139.90 L 404.31 142.07 L 404.50 144.24 L 404.68 146.41 L 404.85 148.59 L 405.01 150.76 L 405.17 152.93 L 405.32 155.10 L 405.46 157.27 L 405.59 159.44 L 405.72 161.62 L 405.83 163.79 L 405.94 165.96 L 406.03 168.13 L 406.12 170.30 L 406.19 172.47 L 406.26 174.65 L 406.32 176.82 L 406.36 178.99 L 406.40 181.16 L 406.43 183.33 L 406.45 185.51 L 406.46 187.68 L 406.45 189.85 L 406.44 192.02 L 406.42 194.19 L 406.38 196.36 L 406.34 198.54 L 406.28 200.71 L 406.21 202.88 L 406.13 205.05 L 406.04 207.22 L 405.94 209.39 L 405.82 211.57 L 405.69 213.74 L 405.54 215.91 L 405.38 218.08 L 405.21 220.25 L 405.02 222.42 L 404.82 224.60 L 404.60 226.77 L 404.37 228.94 L 404.12 231.11 L 403.85 233.28 L 403.58 235.45 L 403.28 237.63 L 402.98 239.80 L 402.66 241.97 L 402.33 244.14 L 401.98 246.31 L 401.63 248.48 L 401.26 250.66 L 400.89 252.83 L 400.51 255.00 Z" fill="#4285f4" stroke="#333" stroke-width="1.00" opacity="0.60"/>
<text x="390.00" y="275.00" text-anchor="middle" font-family="sans-serif" font-size="12.00px">Group C</text>
</g></g>
<g transform="translate(625.00, 60.00)"><text x="300.00" y="0.00" fill="#666" text-anchor="middle" font-family="sans-serif" font-size="14.00px" font-weight="bold">Violin + Box Plot</text><g transform="translate(0, 30.00)"><path d="M 94.43 246.40 L 93.79 245.18 L 93.15 243.97 L 92.53 242.75 L 91.91 241.54 L 91.31 240.32 L 90.72 239.10 L 90.14 237.89 L 89.58 236.67 L 89.04 235.45 L 88.51 234.24 L 88.00 233.02 L 87.52 231.81 L 87.05 230.59 L 86.61 229.37 L 86.19 228.16 L 85.79 226.94 L 85.42 225.73 L 85.06 224.51 L 84.73 223.29 L 84.43 222.08 L 84.15 220.86 L 83.89 219.64 L 83.65 218.43 L 83.44 217.21 L 83.25 216.00 L 83.08 214.78 L 82.93 213.56 L 82.80 212.35 L 82.68 211.13 L 82.59 209.92 L 82.51 208.70 L 82.44 207.48 L 82.39 206.27 L 82.35 205.05 L 82.32 203.83 L 82.30 202.62 L 82.29 201.40 L 82.28 200.19 L 82.28 198.97 L 82.28 197.75 L 82.29 196.54 L 82.30 195.32 L 82.31 194.11 L 82.32 192.89 L 82.33 191.67 L 82.35 190.46 L 82.36 189.24 L 82.38 188.02 L 82.39 186.81 L 82.41 185.59 L 82.43 184.38 L 82.46 183.16 L 82.49 181.94 L 82.53 180.73 L 82.58 179.51 L 82.64 178.29 L 82.70 177.08 L 82.78 175.86 L 82.88 174.65 L 82.99 173.43 L 83.11 172.21 L 83.25 171.00 L 83.41 169.78 L 83.59 168.57 L 83.80 167.35 L 84.02 166.13 L 84.26 164.92 L 84.52 163.70 L 84.80 162.48 L 85.11 161.27 L 85.43 160.05 L 85.77 158.84 L 86.14 157.62 L 86.52 156.40 L 86.91 155.19 L 87.32 153.97 L 87.75 152.76 L 88.19 151.54 L 88.64 150.32 L 89.10 149.11 L 89.57 147.89 L 90.05 146.67 L 90.53 145.46 L 91.02 144.24 L 91.51 143.03 L 92.00 141.81 L 92.50 140.59 L 93.00 139.38 L 93.50 138.16 L 94.00 136.95 L 94.50 135.73 L 95.00 134.51 L 95.50 133.30 L 95.99 132.08 L 96.49 130.86 L 96.98 129.65 L 97.47 128.43 L 97.96 127.22 L 98.44 126.00 L 121.56 126.00 L 122.04 127.22 L 122.53 128.43 L 123.02 129.65 L 123.51 130.86 L 124.01 132.08 L 124.50 133.30 L 125.00 134.51 L 125.50 135.73 L 126.00 136.95 L 126.50 138.16 L 127.00 139.38 L 127.50 140.59 L 128.00 141.81 L 128.49 143.03 L 128.98 144.24 L 129.47 145.46 L 129.95 146.67 L 130.43 147.89 L 130.90 149.11 L 131.36 150.32 L 131.81 151.54 L 132.25 152.76 L 132.68 153.97 L 133.09 155.19 L 133.48 156.40 L 133.86 157.62 L 134.23 158.84 L 134.57 160.05 L 134.89 161.27 L 135.20 162.48 L 135.48 163.70 L 135.74 164.92 L 135.98 166.13 L 136.20 167.35 L 136.41 168.57 L 136.59 169.78 L 136.75 171.00 L 136.89 172.21 L 137.01 173.43 L 137.12 174.65 L 137.22 175.86 L 137.30 177.08 L 137.36 178.29 L 137.42 179.51 L 137.47 180.73 L 137.51 181.94 L 137.54 183.16 L 137.57 184.38 L 137.59 185.59 L 137.61 186.81 L 137.62 188.02 L 137.64 189.24 L 137.65 190.46 L 137.67 191.67 L 137.68 192.89 L 137.69 194.11 L 137.70 195.32 L 137.71 196.54 L 137.72 197.75 L 137.72 198.97 L 137.72 200.19 L 137.71 201.40 L 137.70 202.62 L 137.68 203.83 L 137.65 205.05 L 137.61 206.27 L 137.56 207.48 L 137.49 208.70 L 137.41 209.92 L 137.32 211.13 L 137.20 212.35 L 137.07 213.56 L 136.92 214.78 L 136.75 216.00 L 136.56 217.21 L 136.35 218.43 L 136.11 219.64 L 135.85 220.86 L 135.57 222.08 L 135.27 223.29 L 134.94 224.51 L 134.58 225.73 L 134.21 226.94 L 133.81 228.16 L 133.39 229.37 L 132.95 230.59 L 132.48 231.81 L 132.00 233.02 L 131.49 234.24 L 130.96 235.45 L 130.42 236.67 L 129.86 237.89 L 129.28 239.10 L 128.69 240.32 L 128.09 241.54 L 127.47 242.75 L 126.85 243.97 L 126.21 245.18 L 125.57 246.40 Z" fill="#4285f4" stroke="#333" stroke-width="1.00" opacity="0.60"/>
<rect x="105.80" y="164.70" width="8.40" height="51.60" fill="#fff" stroke="#333" stroke-width="1.50" opacity="0.80"/>
<line x1="105.80" y1="190.50" x2="114.20" y2="190.50" stroke="#333" stroke-width="2.00"/>
<circle cx="110.00" cy="189.72" r="3.00" fill="#333" stroke="#333"/>
<text x="110.00" y="275.00" text-anchor="middle" font-family="sans-serif" font-size="12.00px">Group A</text>
<path d="M 232.77 212.00 L 232.20 210.91 L 231.64 209.83 L 231.09 208.74 L 230.56 207.66 L 230.05 206.57 L 229.56 205.48 L 229.08 204.40 L 228.63 203.31 L 228.19 202.23 L 227.77 201.14 L 227.37 200.06 L 226.99 198.97 L 226.63 197.88 L 226.29 196.80 L 225.96 195.71 L 225.65 194.63 L 225.36 193.54 L 225.08 192.45 L 224.82 191.37 L 224.57 190.28 L 224.34 189.20 L 224.12 188.11 L 223.91 187.03 L 223.71 185.94 L 223.53 184.85 L 223.35 183.77 L 223.19 182.68 L 223.04 181.60 L 222.90 180.51 L 222.77 179.42 L 222.65 178.34 L 222.54 177.25 L 222.44 176.17 L 222.35 175.08 L 222.28 173.99 L 222.21 172.91 L 222.15 171.82 L 222.10 170.74 L 222.07 169.65 L 222.04 168.57 L 222.02 167.48 L 222.00 166.39 L 222.00 165.31 L 222.00 164.22 L 222.01 163.14 L 222.02 162.05 L 222.04 160.96 L 222.06 159.88 L 222.09 158.79 L 222.12 157.71 L 222.14 156.62 L 222.17 155.54 L 222.20 154.45 L 222.23 153.36 L 222.26 152.28 L 222.28 151.19 L 222.30 150.11 L 222.32 149.02 L 222.34 147.93 L 222.36 146.85 L 222.38 145.76 L 222.39 144.68 L 222.41 143.59 L 222.42 142.51 L 222.44 141.42 L 222.46 140.33 L 222.49 139.25 L 222.52 138.16 L 222.56 137.08 L 222.61 135.99 L 222.66 134.90 L 222.73 133.82 L 222.82 132.73 L 222.92 131.65 L 223.03 130.56 L 223.17 129.47 L 223.32 128.39 L 223.50 127.30 L 223.70 126.22 L 223.93 125.13 L 224.18 124.05 L 224.46 122.96 L 224.76 121.87 L 225.09 120.79 L 225.45 119.70 L 225.83 118.62 L 226.24 117.53 L 226.68 116.44 L 227.15 115.36 L 227.64 114.27 L 228.15 113.19 L 228.69 112.10 L 229.25 111.02 L 229.83 109.93 L 230.43 108.84 L 231.04 107.76 L 231.67 106.67 L 232.31 105.59 L 232.96 104.50 L 267.04 104.50 L 267.69 105.59 L 268.33 106.67 L 268.96 107.76 L 269.57 108.84 L 270.17 109.93 L 270.75 111.02 L 271.31 112.10 L 271.85 113.19 L 272.36 114.27 L 272.85 115.36 L 273.32 116.44 L 273.76 117.53 L 274.17 118.62 L 274.55 119.70 L 274.91 120.79 L 275.24 121.87 L 275.54 122.96 L 275.82 124.05 L 276.07 125.13 L 276.30 126.22 L 276.50 127.30 L 276.68 128.39 L 276.83 129.47 L 276.97 130.56 L 277.08 131.65 L 277.18 132.73 L 277.27 133.82 L 277.34 134.90 L 277.39 135.99 L 277.44 137.08 L 277.48 138.16 L 277.51 139.25 L 277.54 140.33 L 277.56 141.42 L 277.58 142.51 L 277.59 143.59 L 277.61 144.68 L 277.62 145.76 L 277.64 146.85 L 277.66 147.93 L 277.68 149.02 L 277.70 150.11 L 277.72 151.19 L 277.74 152.28 L 277.77 153.36 L 277.80 154.45 L 277.83 155.54 L 277.86 156.62 L 277.88 157.71 L 277.91 158.79 L 277.94 159.88 L 277.96 160.96 L 277.98 162.05 L 277.99 163.14 L 278.00 164.22 L 278.00 165.31 L 278.00 166.39 L 277.98 167.48 L 277.96 168.57 L 277.93 169.65 L 277.90 170.74 L 277.85 171.82 L 277.79 172.91 L 277.72 173.99 L 277.65 175.08 L 277.56 176.17 L 277.46 177.25 L 277.35 178.34 L 277.23 179.42 L 277.10 180.51 L 276.96 181.60 L 276.81 182.68 L 276.65 183.77 L 276.47 184.85 L 276.29 185.94 L 276.09 187.03 L 275.88 188.11 L 275.66 189.20 L 275.43 190.28 L 275.18 191.37 L 274.92 192.45 L 274.64 193.54 L 274.35 194.63 L 274.04 195.71 L 273.71 196.80 L 273.37 197.88 L 273.01 198.97 L 272.63 200.06 L 272.23 201.14 L 271.81 202.23 L 271.37 203.31 L 270.92 204.40 L 270.44 205.48 L 269.95 206.57 L 269.44 207.66 L 268.91 208.74 L 268.36 209.83 L 267.80 210.91 L 267.23 212.00 Z" fill="#4285f4" stroke="#333" stroke-width="1.00" opacity="0.60"/>
<rect x="245.80" y="130.30" width="8.40" height="53.75" fill="#fff" stroke="#333" stroke-width="1.50" opacity="0.80"/>
<line x1="245.80" y1="160.40" x2="254.20" y2="160.40" stroke="#333" stroke-width="2.00"/>
<circle cx="250.00" cy="158.45" r="3.00" fill="#333" stroke="#333"/>
<text x="250.00" y="275.00" text-anchor="middle" font-family="sans-serif" font-size="12.00px">Group B</text>
<path d="M 379.49 255.00 L 379.11 252.83 L 378.74 250.66 L 378.37 248.48 L 378.02 246.31 L 377.67 244.14 L 377.34 241.97 L 377.02 239.80 L 376.72 237.63 L 376.42 235.45 L 376.15 233.28 L 375.88 231.11 L 375.63 228.94 L 375.40 226.77 L 375.18 224.60 L 374.98 222.42 L 374.79 220.25 L 374.62 218.08 L 374.46 215.91 L 374.31 213.74 L 374.18 211.57 L 374.06 209.39 L 373.96 207.22 L 373.87 205.05 L 373.79 202.88 L 373.72 200.71 L 373.66 198.54 L 373.62 196.36 L 373.58 194.19 L 373.56 192.02 L 373.55 189.85 L 373.54 187.68 L 373.55 185.51 L 373.57 183.33 L 373.60 181.16 L 373.64 178.99 L 373.68 176.82 L 373.74 174.65 L 373.81 172.47 L 373.88 170.30 L 373.97 168.13 L 374.06 165.96 L 374.17 163.79 L 374.28 161.62 L 374.41 159.44 L 374.54 157.27 L 374.68 155.10 L 374.83 152.93 L 374.99 150.76 L 375.15 148.59 L 375.32 146.41 L 375.50 144.24 L 375.69 142.07 L 375.88 139.90 L 376.08 137.73 L 376.28 135.56 L 376.49 133.38 L 376.69 131.21 L 376.91 129.04 L 377.12 126.87 L 377.33 124.70 L 377.54 122.53 L 377.76 120.35 L 377.97 118.18 L 378.18 116.01 L 378.38 113.84 L 378.58 111.67 L 378.78 109.49 L 378.98 107.32 L 379.17 105.15 L 379.35 102.98 L 379.53 100.81 L 379.70 98.64 L 379.87 96.46 L 380.03 94.29 L 380.19 92.12 L 380.35 89.95 L 380.49 87.78 L 380.64 85.61 L 380.78 83.43 L 380.91 81.26 L 381.05 79.09 L 381.18 76.92 L 381.31 74.75 L 381.44 72.58 L 381.57 70.40 L 381.70 68.23 L 381.83 66.06 L 381.97 63.89 L 382.10 61.72 L 382.24 59.55 L 382.39 57.37 L 382.53 55.20 L 382.68 53.03 L 382.84 50.86 L 383.00 48.69 L 383.17 46.52 L 383.34 44.34 L 383.52 42.17 L 383.70 40.00 L 396.30 40.00 L 396.48 42.17 L 396.66 44.34 L 396.83 46.52 L 397.00 48.69 L 397.16 50.86 L 397.32 53.03 L 397.47 55.20 L 397.61 57.37 L 397.76 59.55 L 397.90 61.72 L 398.03 63.89 L 398.17 66.06 L 398.30 68.23 L 398.43 70.40 L 398.56 72.58 L 398.69 74.75 L 398.82 76.92 L 398.95 79.09 L 399.09 81.26 L 399.22 83.43 L 399.36 85.61 L 399.51 87.78 L 399.65 89.95 L 399.81 92.12 L 399.97 94.29 L 400.13 96.46 L 400.30 98.64 L 400.47 100.81 L 400.65 102.98 L 400.83 105.15 L 401.02 107.32 L 401.22 109.49 L 401.42 111.67 L 401.62 113.84 L 401.82 116.01 L 402.03 118.18 L 402.24 120.35 L 402.46 122.53 L 402.67 124.70 L 402.88 126.87 L 403.09 129.04 L 403.31 131.21 L 403.51 133.38 L 403.72 135.56 L 403.92 137.73 L 404.12 139.90 L 404.31 142.07 L 404.50 144.24 L 404.68 146.41 L 404.85 148.59 L 405.01 150.76 L 405.17 152.93 L 405.32 155.10 L 405.46 157.27 L 405.59 159.44 L 405.72 161.62 L 405.83 163.79 L 405.94 165.96 L 406.03 168.13 L 406.12 170.30 L 406.19 172.47 L 406.26 174.65 L 406.32 176.82 L 406.36 178.99 L 406.40 181.16 L 406.43 183.33 L 406.45 185.51 L 406.46 187.68 L 406.45 189.85 L 406.44 192.02 L 406.42 194.19 L 406.38 196.36 L 406.34 198.54 L 406.28 200.71 L 406.21 202.88 L 406.13 205.05 L 406.04 207.22 L 405.94 209.39 L 405.82 211.57 L 405.69 213.74 L 405.54 215.91 L 405.38 218.08 L 405.21 220.25 L 405.02 222.42 L 404.82 224.60 L 404.60 226.77 L 404.37 228.94 L 404.12 231.11 L 403.85 233.28 L 403.58 235.45 L 403.28 237.63 L 402.98 239.80 L 402.66 241.97 L 402.33 244.14 L 401.98 246.31 L 401.63 248.48 L 401.26 250.66 L 400.89 252.83 L 400.51 255.00 Z" fill="#4285f4" stroke="#333" stroke-width="1.00" opacity="0.60"/>
<rect x="385.80" y="126.00" width="8.40" height="86.00" fill="#fff" stroke="#333" stroke-width="1.50" opacity="0.80"/>
<line x1="385.80" y1="169.00" x2="394.20" y2="169.00" stroke="#333" stroke-width="2.00"/>
<circle cx="390.00" cy="161.83" r="3.00" fill="#333" stroke="#333"/>
<text x="390.00" y="275.00" text-anchor="middle" font-family="sans-serif" font-size="12.00px">Group C</text>
</g></g>
</svg>