Reading from stdin...
<svg xmlns="http://www.w3.org/2000/svg" width="800" height="600" viewBox="0 0 800 600">
<path d="M 60.00 402.50 L 286.67 191.00 L 513.33 214.50 L 740.00 125.20" fill="none" stroke="#3b82f6" stroke-width="1.50" opacity="0.60"/>
<path d="M 60.00 285.00 L 286.67 144.00 L 513.33 167.50 L 740.00 97.00" fill="none" stroke="#10b981" stroke-width="1.50" opacity="0.60"/>
<path d="M 60.00 167.50 L 286.67 238.00 L 513.33 261.50 L 740.00 162.80" fill="none" stroke="#f59e0b" stroke-width="1.50" opacity="0.60"/>
<path d="M 60.00 332.00 L 286.67 97.00 L 513.33 144.00 L 740.00 78.20" fill="none" stroke="#ef4444" stroke-width="1.50" opacity="0.60"/>
<path d="M 60.00 238.00 L 286.67 167.50 L 513.33 191.00 L 740.00 115.80" fill="none" stroke="#8b5cf6" stroke-width="1.50" opacity="0.60"/>
<line x1="60.00" y1="50.00" x2="60.00" y2="520.00" stroke="#374151" stroke-width="2.00"/>
<line x1="286.67" y1="50.00" x2="286.67" y2="520.00" stroke="#374151" stroke-width="2.00"/>
<line x1="513.33" y1="50.00" x2="513.33" y2="520.00" stroke="#374151" stroke-width="2.00"/>
<line x1="740.00" y1="50.00" x2="740.00" y2="520.00" stroke="#374151" stroke-width="2.00"/>
<text x="60.00" y="40.00" text-anchor="middle" dominant-baseline="text-bottom" font-family="sans-serif" font-size="12.00px" font-weight="bold">Price</text>
<line x1="55.00" y1="520.00" x2="65.00" y2="520.00" stroke="#9ca3af" stroke-width="1.00"/>
<text x="60.00" y="530.00" text-anchor="middle" dominant-baseline="hanging" font-family="sans-serif" font-size="9.00px">0.0</text>
<line x1="55.00" y1="426.00" x2="65.00" y2="426.00" stroke="#9ca3af" stroke-width="1.00"/>
<text x="60.00" y="530.00" text-anchor="middle" dominant-baseline="hanging" font-family="sans-serif" font-size="9.00px">20.0</text>
<line x1="55.00" y1="332.00" x2="65.00" y2="332.00" stroke="#9ca3af" stroke-width="1.00"/>
<text x="60.00" y="530.00" text-anchor="middle" dominant-baseline="hanging" font-family="sans-serif" font-size="9.00px">40.0</text>
<line x1="55.00" y1="238.00" x2="65.00" y2="238.00" stroke="#9ca3af" stroke-width="1.00"/>
<text x="60.00" y="530.00" text-anchor="middle" dominant-baseline="hanging" font-family="sans-serif" font-size="9.00px">60.0</text>
<line x1="55.00" y1="144.00" x2="65.00" y2="144.00" stroke="#9ca3af" stroke-width="1.00"/>
<text x="60.00" y="530.00" text-anchor="middle" dominant-baseline="hanging" font-family="sans-serif" font-size="9.00px">80.0</text>
<line x1="55.00" y1="50.00" x2="65.00" y2="50.00" stroke="#9ca3af" stroke-width="1.00"/>
<text x="60.00" y="530.00" text-anchor="middle" dominant-baseline="hanging" font-family="sans-serif" font-size="9.00px">100.0</text>
<text x="70.00" y="50.00" fill="#6b7280" text-anchor="start" dominant-baseline="middle" font-family="sans-serif" font-size="9.00px">100.0</text>
<text x="70.00" y="520.00" fill="#6b7280" text-anchor="start" dominant-baseline="middle" font-family="sans-serif" font-size="9.00px">0.0</text>
<text x="286.67" y="40.00" text-anchor="middle" dominant-baseline="text-bottom" font-family="sans-serif" font-size="12.00px" font-weight="bold">Quality</text>
<line x1="281.67" y1="520.00" x2="291.67" y2="520.00" stroke="#9ca3af" stroke-width="1.00"/>
<text x="286.67" y="530.00" text-anchor="middle" dominant-baseline="hanging" font-family="sans-serif" font-size="9.00px">0.0</text>
<line x1="281.67" y1="426.00" x2="291.67" y2="426.00" stroke="#9ca3af" stroke-width="1.00"/>
<text x="286.67" y="530.00" text-anchor="middle" dominant-baseline="hanging" font-family="sans-serif" font-size="9.00px">2.0</text>
<line x1="281.67" y1="332.00" x2="291.67" y2="332.00" stroke="#9ca3af" stroke-width="1.00"/>
<text x="286.67" y="530.00" text-anchor="middle" dominant-baseline="hanging" font-family="sans-serif" font-size="9.00px">4.0</text>
<line x1="281.67" y1="238.00" x2="291.67" y2="238.00" stroke="#9ca3af" stroke-width="1.00"/>
<text x="286.67" y="530.00" text-anchor="middle" dominant-baseline="hanging" font-family="sans-serif" font-size="9.00px">6.0</text>
<line x1="281.67" y1="144.00" x2="291.67" y2="144.00" stroke="#9ca3af" stroke-width="1.00"/>
<text x="286.67" y="530.00" text-anchor="middle" dominant-baseline="hanging" font-family="sans-serif" font-size="9.00px">8.0</text>
<line x1="281.67" y1="50.00" x2="291.67" y2="50.00" stroke="#9ca3af" stroke-width="1.00"/>
<text x="286.67" y="530.00" text-anchor="middle" dominant-baseline="hanging" font-family="sans-serif" font-size="9.00px">10.0</text>
<text x="296.67" y="50.00" fill="#6b7280" text-anchor="start" dominant-baseline="middle" font-family="sans-serif" font-size="9.00px">10.0</text>
<text x="296.67" y="520.00" fill="#6b7280" text-anchor="start" dominant-baseline="middle" font-family="sans-serif" font-size="9.00px">0.0</text>
<text x="513.33" y="40.00" text-anchor="middle" dominant-baseline="text-bottom" font-family="sans-serif" font-size="12.00px" font-weight="bold">Popularity</text>
<line x1="508.33" y1="520.00" x2="518.33" y2="520.00" stroke="#9ca3af" stroke-width="1.00"/>
<text x="513.33" y="530.00" text-anchor="middle" dominant-baseline="hanging" font-family="sans-serif" font-size="9.00px">0.0</text>
<line x1="508.33" y1="426.00" x2="518.33" y2="426.00" stroke="#9ca3af" stroke-width="1.00"/>
<text x="513.33" y="530.00" text-anchor="middle" dominant-baseline="hanging" font-family="sans-serif" font-size="9.00px">20.0</text>
<line x1="508.33" y1="332.00" x2="518.33" y2="332.00" stroke="#9ca3af" stroke-width="1.00"/>
<text x="513.33" y="530.00" text-anchor="middle" dominant-baseline="hanging" font-family="sans-serif" font-size="9.00px">40.0</text>
<line x1="508.33" y1="238.00" x2="518.33" y2="238.00" stroke="#9ca3af" stroke-width="1.00"/>
<text x="513.33" y="530.00" text-anchor="middle" dominant-baseline="hanging" font-family="sans-serif" font-size="9.00px">60.0</text>
<line x1="508.33" y1="144.00" x2="518.33" y2="144.00" stroke="#9ca3af" stroke-width="1.00"/>
<text x="513.33" y="530.00" text-anchor="middle" dominant-baseline="hanging" font-family="sans-serif" font-size="9.00px">80.0</text>
<line x1="508.33" y1="50.00" x2="518.33" y2="50.00" stroke="#9ca3af" stroke-width="1.00"/>
<text x="513.33" y="530.00" text-anchor="middle" dominant-baseline="hanging" font-family="sans-serif" font-size="9.00px">100.0</text>
<text x="523.33" y="50.00" fill="#6b7280" text-anchor="start" dominant-baseline="middle" font-family="sans-serif" font-size="9.00px">100.0</text>
<text x="523.33" y="520.00" fill="#6b7280" text-anchor="start" dominant-baseline="middle" font-family="sans-serif" font-size="9.00px">0.0</text>
<text x="740.00" y="40.00" text-anchor="middle" dominant-baseline="text-bottom" font-family="sans-serif" font-size="12.00px" font-weight="bold">Rating</text>
<line x1="735.00" y1="520.00" x2="745.00" y2="520.00" stroke="#9ca3af" stroke-width="1.00"/>
<text x="740.00" y="530.00" text-anchor="middle" dominant-baseline="hanging" font-family="sans-serif" font-size="9.00px">0.0</text>
<line x1="735.00" y1="426.00" x2="745.00" y2="426.00" stroke="#9ca3af" stroke-width="1.00"/>
<text x="740.00" y="530.00" text-anchor="middle" dominant-baseline="hanging" font-family="sans-serif" font-size="9.00px">1.0</text>
<line x1="735.00" y1="332.00" x2="745.00" y2="332.00" stroke="#9ca3af" stroke-width="1.00"/>
<text x="740.00" y="530.00" text-anchor="middle" dominant-baseline="hanging" font-family="sans-serif" font-size="9.00px">2.0</text>
<line x1="735.00" y1="238.00" x2="745.00" y2="238.00" stroke="#9ca3af" stroke-width="1.00"/>
<text x="740.00" y="530.00" text-anchor="middle" dominant-baseline="hanging" font-family="sans-serif" font-size="9.00px">3.0</text>
<line x1="735.00" y1="144.00" x2="745.00" y2="144.00" stroke="#9ca3af" stroke-width="1.00"/>
<text x="740.00" y="530.00" text-anchor="middle" dominant-baseline="hanging" font-family="sans-serif" font-size="9.00px">4.0</text>
<line x1="735.00" y1="50.00" x2="745.00" y2="50.00" stroke="#9ca3af" stroke-width="1.00"/>
<text x="740.00" y="530.00" text-anchor="middle" dominant-baseline="hanging" font-family="sans-serif" font-size="9.00px">5.0</text>
<text x="750.00" y="50.00" fill="#6b7280" text-anchor="start" dominant-baseline="middle" font-family="sans-serif" font-size="9.00px">5.0</text>
<text x="750.00" y="520.00" fill="#6b7280" text-anchor="start" dominant-baseline="middle" font-family="sans-serif" font-size="9.00px">0.0</text>

</svg>