Reading from stdin...
<svg xmlns="http://www.w3.org/2000/svg" width="800" height="600" viewBox="0 0 800 600">
<path d="M 237.50 151.04 C 315.00 151.04 315.00 151.04 392.50 151.04 L 392.50 182.29 C 315.00 182.29 315.00 182.29 237.50 182.29 Z" fill="#3b82f6" stroke="none" fill-opacity="0.40"/>
<path d="M 237.50 327.96 C 315.00 327.96 315.00 508.62 392.50 508.62 L 392.50 527.38 C 315.00 527.38 315.00 346.71 237.50 346.71 Z" fill="#3b82f6" stroke="none" fill-opacity="0.40"/>
<path d="M 237.50 480.00 C 315.00 480.00 315.00 342.00 392.50 342.00 L 392.50 375.33 C 315.00 375.33 315.00 513.33 237.50 513.33 Z" fill="#3b82f6" stroke="none" fill-opacity="0.40"/>
<path d="M 237.50 616.33 C 315.00 616.33 315.00 616.33 392.50 616.33 L 392.50 633.00 C 315.00 633.00 315.00 633.00 237.50 633.00 Z" fill="#3b82f6" stroke="none" fill-opacity="0.40"/>
<path d="M 407.50 171.33 C 485.00 171.33 485.00 171.33 562.50 171.33 L 562.50 204.67 C 485.00 204.67 485.00 204.67 407.50 204.67 Z" fill="#3b82f6" stroke="none" fill-opacity="0.40"/>
<path d="M 407.50 371.67 C 485.00 371.67 485.00 488.33 562.50 488.33 L 562.50 505.00 C 485.00 505.00 485.00 388.33 407.50 388.33 Z" fill="#3b82f6" stroke="none" fill-opacity="0.40"/>
<path d="M 407.50 494.83 C 485.00 494.83 485.00 356.83 562.50 356.83 L 562.50 381.83 C 485.00 381.83 485.00 519.83 407.50 519.83 Z" fill="#3b82f6" stroke="none" fill-opacity="0.40"/>
<path d="M 407.50 601.50 C 485.00 601.50 485.00 601.50 562.50 601.50 L 562.50 626.50 C 485.00 626.50 485.00 626.50 407.50 626.50 Z" fill="#3b82f6" stroke="none" fill-opacity="0.40"/>
<rect x="222.50" y="60.00" width="15.00" height="341.33" fill="#3b82f6" stroke="#ffffff" stroke-width="1.00"/>
<text x="242.50" y="230.67" text-anchor="start" dominant-baseline="middle" font-family="sans-serif" font-size="11.00px">Source A</text>
<rect x="222.50" y="411.33" width="15.00" height="256.00" fill="#3b82f6" stroke="#ffffff" stroke-width="1.00"/>
<text x="242.50" y="539.33" text-anchor="start" dominant-baseline="middle" font-family="sans-serif" font-size="11.00px">Source B</text>
<rect x="392.50" y="60.00" width="15.00" height="384.00" fill="#3b82f6" stroke="#ffffff" stroke-width="1.00"/>
<text x="412.50" y="252.00" text-anchor="start" dominant-baseline="middle" font-family="sans-serif" font-size="11.00px">Middle C</text>
<rect x="392.50" y="454.00" width="15.00" height="213.33" fill="#3b82f6" stroke="#ffffff" stroke-width="1.00"/>
<text x="412.50" y="560.67" text-anchor="start" dominant-baseline="middle" font-family="sans-serif" font-size="11.00px">Middle D</text>
<rect x="562.50" y="60.00" width="15.00" height="362.67" fill="#3b82f6" stroke="#ffffff" stroke-width="1.00"/>
<text x="557.50" y="241.33" text-anchor="end" dominant-baseline="middle" font-family="sans-serif" font-size="11.00px">Target E</text>
<rect x="562.50" y="432.67" width="15.00" height="234.67" fill="#3b82f6" stroke="#ffffff" stroke-width="1.00"/>
<text x="557.50" y="550.00" text-anchor="end" dominant-baseline="middle" font-family="sans-serif" font-size="11.00px">Target F</text>

</svg>