<svg xmlns="http://www.w3.org/2000/svg" width="800" height="600" viewBox="0 0 800 600">
<line x1="60.00" y1="60.00" x2="740.00" y2="60.00" stroke="#e5e7eb" stroke-width="1.00"/>
<line x1="60.00" y1="156.00" x2="740.00" y2="156.00" stroke="#e5e7eb" stroke-width="1.00"/>
<line x1="60.00" y1="252.00" x2="740.00" y2="252.00" stroke="#e5e7eb" stroke-width="1.00"/>
<line x1="60.00" y1="348.00" x2="740.00" y2="348.00" stroke="#e5e7eb" stroke-width="1.00"/>
<line x1="60.00" y1="444.00" x2="740.00" y2="444.00" stroke="#e5e7eb" stroke-width="1.00"/>
<line x1="60.00" y1="540.00" x2="740.00" y2="540.00" stroke="#e5e7eb" stroke-width="1.00"/>
<line x1="60.00" y1="518.18" x2="740.00" y2="518.18" stroke="#d1d5db" stroke-width="1.50"/>
<line x1="60.00" y1="60.00" x2="60.00" y2="540.00" stroke="#374151" stroke-width="2.00"/>
<line x1="60.00" y1="540.00" x2="740.00" y2="540.00" stroke="#374151" stroke-width="2.00"/>
<line x1="116.67" y1="518.18" x2="116.67" y2="405.41" stroke="#3b82f6" stroke-width="2.00" opacity="0.60"/>
<circle cx="116.67" cy="405.41" r="6.00" fill="#3b82f6" stroke="#ffffff" stroke-width="2.00"/>
<text x="116.67" y="550.00" text-anchor="middle" dominant-baseline="hanging" font-family="sans-serif" font-size="11.00px">Product A</text>
<text x="116.67" y="394.41" text-anchor="middle" dominant-baseline="text-bottom" font-family="sans-serif" font-size="10.00px">23.0</text>
<line x1="230.00" y1="518.18" x2="230.00" y2="297.55" stroke="#3b82f6" stroke-width="2.00" opacity="0.60"/>
<circle cx="230.00" cy="297.55" r="6.00" fill="#3b82f6" stroke="#ffffff" stroke-width="2.00"/>
<text x="230.00" y="550.00" text-anchor="middle" dominant-baseline="hanging" font-family="sans-serif" font-size="11.00px">Product B</text>
<text x="230.00" y="286.55" text-anchor="middle" dominant-baseline="text-bottom" font-family="sans-serif" font-size="10.00px">45.0</text>
<line x1="343.33" y1="518.18" x2="343.33" y2="189.68" stroke="#3b82f6" stroke-width="2.00" opacity="0.60"/>
<circle cx="343.33" cy="189.68" r="6.00" fill="#3b82f6" stroke="#ffffff" stroke-width="2.00"/>
<text x="343.33" y="550.00" text-anchor="middle" dominant-baseline="hanging" font-family="sans-serif" font-size="11.00px">Product C</text>
<text x="343.33" y="178.68" text-anchor="middle" dominant-baseline="text-bottom" font-family="sans-serif" font-size="10.00px">67.0</text>
<line x1="456.67" y1="518.18" x2="456.67" y2="81.82" stroke="#3b82f6" stroke-width="2.00" opacity="0.60"/>
<circle cx="456.67" cy="81.82" r="6.00" fill="#3b82f6" stroke="#ffffff" stroke-width="2.00"/>
<text x="456.67" y="550.00" text-anchor="middle" dominant-baseline="hanging" font-family="sans-serif" font-size="11.00px">Product D</text>
<text x="456.67" y="70.82" text-anchor="middle" dominant-baseline="text-bottom" font-family="sans-serif" font-size="10.00px">89.0</text>
<line x1="570.00" y1="518.18" x2="570.00" y2="243.62" stroke="#3b82f6" stroke-width="2.00" opacity="0.60"/>
<circle cx="570.00" cy="243.62" r="6.00" fill="#3b82f6" stroke="#ffffff" stroke-width="2.00"/>
<text x="570.00" y="550.00" text-anchor="middle" dominant-baseline="hanging" font-family="sans-serif" font-size="11.00px">Product E</text>
<text x="570.00" y="232.62" text-anchor="middle" dominant-baseline="text-bottom" font-family="sans-serif" font-size="10.00px">56.0</text>
<line x1="683.33" y1="518.18" x2="683.33" y2="351.48" stroke="#3b82f6" stroke-width="2.00" opacity="0.60"/>
<circle cx="683.33" cy="351.48" r="6.00" fill="#3b82f6" stroke="#ffffff" stroke-width="2.00"/>
<text x="683.33" y="550.00" text-anchor="middle" dominant-baseline="hanging" font-family="sans-serif" font-size="11.00px">Product F</text>
<text x="683.33" y="340.48" text-anchor="middle" dominant-baseline="text-bottom" font-family="sans-serif" font-size="10.00px">34.0</text>
<text x="50.00" y="540.00" text-anchor="end" dominant-baseline="middle" font-family="sans-serif" font-size="10.00px">-4.5</text>
<text x="50.00" y="444.00" text-anchor="end" dominant-baseline="middle" font-family="sans-serif" font-size="10.00px">15.1</text>
<text x="50.00" y="348.00" text-anchor="end" dominant-baseline="middle" font-family="sans-serif" font-size="10.00px">34.7</text>
<text x="50.00" y="252.00" text-anchor="end" dominant-baseline="middle" font-family="sans-serif" font-size="10.00px">54.3</text>
<text x="50.00" y="156.00" text-anchor="end" dominant-baseline="middle" font-family="sans-serif" font-size="10.00px">73.9</text>
<text x="50.00" y="60.00" text-anchor="end" dominant-baseline="middle" font-family="sans-serif" font-size="10.00px">93.5</text>

</svg>