<svg xmlns="http://www.w3.org/2000/svg" width="800" height="600" viewBox="0 0 800 600">
<circle cx="400.00" cy="300.00" r="55.22" fill="none" stroke="#e5e7eb" stroke-width="1.00" opacity="0.50"/>
<circle cx="400.00" cy="300.00" r="110.15" fill="none" stroke="#e5e7eb" stroke-width="1.00" opacity="0.50"/>
<circle cx="400.00" cy="300.00" r="165.07" fill="none" stroke="#e5e7eb" stroke-width="1.00" opacity="0.50"/>
<circle cx="400.00" cy="300.00" r="220.00" fill="none" stroke="#e5e7eb" stroke-width="1.00" opacity="0.50"/>
<path d="M 399.94 299.71 L 388.26 244.79 A 56.45 56.45 0 0 1 411.74 244.79 L 400.06 299.71 A 0.30 0.30 0 0 0 399.94 299.71 Z" fill="#3b82f6" stroke="#ffffff" stroke-width="1.00"/>
<text x="400.00" y="65.00" text-anchor="middle" dominant-baseline="middle" font-family="sans-serif" font-size="10.00px">Jan</text>
<path d="M 400.09 299.71 L 434.04 195.24 A 110.15 110.15 0 0 1 473.70 218.14 L 400.20 299.78 A 0.30 0.30 0 0 0 400.09 299.71 Z" fill="#3b82f6" stroke="#ffffff" stroke-width="1.00"/>
<text x="517.50" y="96.48" text-anchor="start" dominant-baseline="middle" font-family="sans-serif" font-size="10.00px">Feb</text>
<path d="M 400.22 299.80 L 521.77 190.36 A 163.85 163.85 0 0 1 555.83 249.37 L 400.29 299.91 A 0.30 0.30 0 0 0 400.22 299.80 Z" fill="#3b82f6" stroke="#ffffff" stroke-width="1.00"/>
<text x="603.52" y="182.50" text-anchor="start" dominant-baseline="middle" font-family="sans-serif" font-size="10.00px">Mar</text>
<path d="M 400.29 299.94 L 612.80 254.77 A 217.56 217.56 0 0 1 612.80 345.23 L 400.29 300.06 A 0.30 0.30 0 0 0 400.29 299.94 Z" fill="#3b82f6" stroke="#ffffff" stroke-width="1.00"/>
<text x="635.00" y="300.00" text-anchor="start" dominant-baseline="middle" font-family="sans-serif" font-size="10.00px">Apr</text>
<path d="M 400.29 300.09 L 530.30 342.34 A 137.00 137.00 0 0 1 501.81 391.67 L 400.22 300.20 A 0.30 0.30 0 0 0 400.29 300.09 Z" fill="#3b82f6" stroke="#ffffff" stroke-width="1.00"/>
<text x="603.52" y="417.50" text-anchor="start" dominant-baseline="middle" font-family="sans-serif" font-size="10.00px">May</text>
<path d="M 400.20 300.22 L 527.61 441.72 A 190.71 190.71 0 0 1 458.93 481.37 L 400.09 300.29 A 0.30 0.30 0 0 0 400.20 300.22 Z" fill="#3b82f6" stroke="#ffffff" stroke-width="1.00"/>
<text x="517.50" y="503.52" text-anchor="start" dominant-baseline="middle" font-family="sans-serif" font-size="10.00px">Jun</text>
<path d="M 400.06 300.29 L 445.74 515.19 A 220.00 220.00 0 0 1 354.26 515.19 L 399.94 300.29 A 0.30 0.30 0 0 0 400.06 300.29 Z" fill="#3b82f6" stroke="#ffffff" stroke-width="1.00"/>
<text x="400.00" y="535.00" text-anchor="middle" dominant-baseline="middle" font-family="sans-serif" font-size="10.00px">Jul</text>
<path d="M 399.91 300.29 L 350.87 451.19 A 158.97 158.97 0 0 1 293.63 418.14 L 399.80 300.22 A 0.30 0.30 0 0 0 399.91 300.29 Z" fill="#3b82f6" stroke="#ffffff" stroke-width="1.00"/>
<text x="282.50" y="503.52" text-anchor="end" dominant-baseline="middle" font-family="sans-serif" font-size="10.00px">Aug</text>
<path d="M 399.78 300.20 L 321.77 370.44 A 105.27 105.27 0 0 1 299.88 332.53 L 399.71 300.09 A 0.30 0.30 0 0 0 399.78 300.20 Z" fill="#3b82f6" stroke="#ffffff" stroke-width="1.00"/>
<text x="196.48" y="417.50" text-anchor="end" dominant-baseline="middle" font-family="sans-serif" font-size="10.00px">Sep</text>
<path d="M 399.71 300.06 L 191.97 344.22 A 212.68 212.68 0 0 1 191.97 255.78 L 399.71 299.94 A 0.30 0.30 0 0 0 399.71 300.06 Z" fill="#3b82f6" stroke="#ffffff" stroke-width="1.00"/>
<text x="165.00" y="300.00" text-anchor="end" dominant-baseline="middle" font-family="sans-serif" font-size="10.00px">Oct</text>
<path d="M 399.71 299.91 L 274.35 259.17 A 132.12 132.12 0 0 1 301.82 211.59 L 399.78 299.80 A 0.30 0.30 0 0 0 399.71 299.91 Z" fill="#3b82f6" stroke="#ffffff" stroke-width="1.00"/>
<text x="196.48" y="182.50" text-anchor="end" dominant-baseline="middle" font-family="sans-serif" font-size="10.00px">Nov</text>
<path d="M 399.80 299.78 L 275.66 161.91 A 185.82 185.82 0 0 1 342.58 123.27 L 399.91 299.71 A 0.30 0.30 0 0 0 399.80 299.78 Z" fill="#3b82f6" stroke="#ffffff" stroke-width="1.00"/>
<text x="282.50" y="96.48" text-anchor="end" dominant-baseline="middle" font-family="sans-serif" font-size="10.00px">Dec</text>
<circle cx="400.00" cy="300.00" r="0.30" fill="#ffffff" stroke="#d1d5db" stroke-width="1.00"/>

</svg>