<svg xmlns="http://www.w3.org/2000/svg" width="800" height="600" viewBox="0 0 800 600">
<path d="M 60.00 389.48 L 196.00 413.99 L 332.00 439.12 L 468.00 429.93 L 604.00 444.64 L 740.00 379.67 L 740.00 471.60 L 604.00 518.18 L 468.00 496.12 L 332.00 483.25 L 196.00 469.15 L 60.00 426.25 Z" fill="#3b82f6" stroke="#3b82f6" stroke-width="0.50" fill-opacity="0.80"/>
<path d="M 60.00 315.93 L 196.00 322.06 L 332.00 336.16 L 468.00 349.03 L 604.00 334.32 L 740.00 250.97 L 740.00 379.67 L 604.00 444.64 L 468.00 429.93 L 332.00 439.12 L 196.00 413.99 L 60.00 389.48 Z" fill="#10b981" stroke="#10b981" stroke-width="0.50" fill-opacity="0.80"/>
<path d="M 60.00 260.78 L 196.00 255.87 L 332.00 262.61 L 468.00 268.13 L 604.00 242.39 L 740.00 148.01 L 740.00 250.97 L 604.00 334.32 L 468.00 349.03 L 332.00 336.16 L 196.00 322.06 L 60.00 315.93 Z" fill="#f59e0b" stroke="#f59e0b" stroke-width="0.50" fill-opacity="0.80"/>
<path d="M 60.00 231.36 L 196.00 211.75 L 332.00 225.84 L 468.00 216.65 L 604.00 183.55 L 740.00 81.82 L 740.00 148.01 L 604.00 242.39 L 468.00 268.13 L 332.00 262.61 L 196.00 255.87 L 60.00 260.78 Z" fill="#ef4444" stroke="#ef4444" stroke-width="0.50" fill-opacity="0.80"/>
<rect x="80.00" y="72.00" width="20.00" height="16.00" fill="#3b82f6" stroke="#3b82f6" stroke-width="1.00" fill-opacity="0.80"/>
<text x="105.00" y="80.00" dominant-baseline="middle" font-family="sans-serif" font-size="12.00px">Layer 1</text>
<rect x="80.00" y="97.00" width="20.00" height="16.00" fill="#10b981" stroke="#10b981" stroke-width="1.00" fill-opacity="0.80"/>
<text x="105.00" y="105.00" dominant-baseline="middle" font-family="sans-serif" font-size="12.00px">Layer 2</text>
<rect x="80.00" y="122.00" width="20.00" height="16.00" fill="#f59e0b" stroke="#f59e0b" stroke-width="1.00" fill-opacity="0.80"/>
<text x="105.00" y="130.00" dominant-baseline="middle" font-family="sans-serif" font-size="12.00px">Layer 3</text>
<rect x="80.00" y="147.00" width="20.00" height="16.00" fill="#ef4444" stroke="#ef4444" stroke-width="1.00" fill-opacity="0.80"/>
<text x="105.00" y="155.00" dominant-baseline="middle" font-family="sans-serif" font-size="12.00px">Layer 4</text>

</svg>