Reading from stdin...
<svg xmlns="http://www.w3.org/2000/svg" width="800" height="600" viewBox="0 0 800 600">
<path d="M 131.74 537.87 L 130.57 534.74 L 129.43 531.61 L 128.30 528.48 L 127.21 525.36 L 126.15 522.23 L 125.12 519.10 L 124.13 515.97 L 123.18 512.84 L 122.28 509.71 L 121.41 506.58 L 120.60 503.45 L 119.83 500.32 L 119.10 497.19 L 118.42 494.06 L 117.79 490.93 L 117.20 487.81 L 116.66 484.68 L 116.16 481.55 L 115.70 478.42 L 115.27 475.29 L 114.89 472.16 L 114.54 469.03 L 114.23 465.90 L 113.95 462.77 L 113.69 459.64 L 113.47 456.51 L 113.26 453.38 L 113.09 450.26 L 112.93 447.13 L 112.79 444.00 L 112.67 440.87 L 112.56 437.74 L 112.47 434.61 L 112.39 431.48 L 112.32 428.35 L 112.27 425.22 L 112.22 422.09 L 112.17 418.96 L 112.14 415.83 L 112.11 412.71 L 112.08 409.58 L 112.06 406.45 L 112.04 403.32 L 112.03 400.19 L 112.02 397.06 L 112.01 393.93 L 112.01 390.80 L 112.00 387.67 L 112.00 384.54 L 112.00 381.41 L 112.00 378.28 L 112.01 375.16 L 112.01 372.03 L 112.02 368.90 L 112.03 365.77 L 112.04 362.64 L 112.06 359.51 L 112.08 356.38 L 112.11 353.25 L 112.14 350.12 L 112.17 346.99 L 112.22 343.86 L 112.27 340.74 L 112.32 337.61 L 112.39 334.48 L 112.47 331.35 L 112.56 328.22 L 112.67 325.09 L 112.79 321.96 L 112.93 318.83 L 113.09 315.70 L 113.26 312.57 L 113.47 309.44 L 113.69 306.31 L 113.95 303.19 L 114.23 300.06 L 114.54 296.93 L 114.89 293.80 L 115.27 290.67 L 115.70 287.54 L 116.16 284.41 L 116.66 281.28 L 117.20 278.15 L 117.79 275.02 L 118.42 271.89 L 119.10 268.76 L 119.83 265.64 L 120.60 262.51 L 121.41 259.38 L 122.28 256.25 L 123.18 253.12 L 124.13 249.99 L 125.12 246.86 L 126.15 243.73 L 127.21 240.60 L 128.30 237.47 L 129.43 234.34 L 130.57 231.21 L 131.74 228.09 L 188.26 228.09 L 189.43 231.21 L 190.57 234.34 L 191.70 237.47 L 192.79 240.60 L 193.85 243.73 L 194.88 246.86 L 195.87 249.99 L 196.82 253.12 L 197.72 256.25 L 198.59 259.38 L 199.40 262.51 L 200.17 265.64 L 200.90 268.76 L 201.58 271.89 L 202.21 275.02 L 202.80 278.15 L 203.34 281.28 L 203.84 284.41 L 204.30 287.54 L 204.73 290.67 L 205.11 293.80 L 205.46 296.93 L 205.77 300.06 L 206.05 303.19 L 206.31 306.31 L 206.53 309.44 L 206.74 312.57 L 206.91 315.70 L 207.07 318.83 L 207.21 321.96 L 207.33 325.09 L 207.44 328.22 L 207.53 331.35 L 207.61 334.48 L 207.68 337.61 L 207.73 340.74 L 207.78 343.86 L 207.83 346.99 L 207.86 350.12 L 207.89 353.25 L 207.92 356.38 L 207.94 359.51 L 207.96 362.64 L 207.97 365.77 L 207.98 368.90 L 207.99 372.03 L 207.99 375.16 L 208.00 378.28 L 208.00 381.41 L 208.00 384.54 L 208.00 387.67 L 207.99 390.80 L 207.99 393.93 L 207.98 397.06 L 207.97 400.19 L 207.96 403.32 L 207.94 406.45 L 207.92 409.58 L 207.89 412.71 L 207.86 415.83 L 207.83 418.96 L 207.78 422.09 L 207.73 425.22 L 207.68 428.35 L 207.61 431.48 L 207.53 434.61 L 207.44 437.74 L 207.33 440.87 L 207.21 444.00 L 207.07 447.13 L 206.91 450.26 L 206.74 453.38 L 206.53 456.51 L 206.31 459.64 L 206.05 462.77 L 205.77 465.90 L 205.46 469.03 L 205.11 472.16 L 204.73 475.29 L 204.30 478.42 L 203.84 481.55 L 203.34 484.68 L 202.80 487.81 L 202.21 490.93 L 201.58 494.06 L 200.90 497.19 L 200.17 500.32 L 199.40 503.45 L 198.59 506.58 L 197.72 509.71 L 196.82 512.84 L 195.87 515.97 L 194.88 519.10 L 193.85 522.23 L 192.79 525.36 L 191.70 528.48 L 190.57 531.61 L 189.43 534.74 L 188.26 537.87 Z" fill="#3B82F6" stroke="#333" stroke-width="1.00" opacity="0.60"/>
<rect x="152.80" y="305.53" width="14.40" height="154.89" fill="#fff" stroke="#333" stroke-width="1.50" opacity="0.80"/>
<line x1="152.80" y1="382.98" x2="167.20" y2="382.98" stroke="#333" stroke-width="2.00"/>
<text x="160.00" y="580.00" text-anchor="middle" font-family="sans-serif" font-size="12.00px">Treatment A</text>
<path d="M 381.16 504.68 L 380.38 499.99 L 379.62 495.29 L 378.87 490.60 L 378.14 485.91 L 377.43 481.21 L 376.75 476.52 L 376.09 471.82 L 375.45 467.13 L 374.85 462.44 L 374.28 457.74 L 373.73 453.05 L 373.22 448.36 L 372.73 443.66 L 372.28 438.97 L 371.86 434.27 L 371.47 429.58 L 371.11 424.89 L 370.77 420.19 L 370.46 415.50 L 370.18 410.81 L 369.93 406.11 L 369.70 401.42 L 369.49 396.72 L 369.30 392.03 L 369.13 387.34 L 368.98 382.64 L 368.84 377.95 L 368.72 373.26 L 368.62 368.56 L 368.53 363.87 L 368.45 359.17 L 368.38 354.48 L 368.31 349.79 L 368.26 345.09 L 368.22 340.40 L 368.18 335.71 L 368.14 331.01 L 368.12 326.32 L 368.09 321.62 L 368.07 316.93 L 368.06 312.24 L 368.04 307.54 L 368.03 302.85 L 368.02 298.16 L 368.01 293.46 L 368.01 288.77 L 368.00 284.07 L 368.00 279.38 L 368.00 274.69 L 368.00 269.99 L 368.00 265.30 L 368.00 260.61 L 368.01 255.91 L 368.01 251.22 L 368.02 246.52 L 368.03 241.83 L 368.04 237.14 L 368.06 232.44 L 368.07 227.75 L 368.09 223.06 L 368.12 218.36 L 368.14 213.67 L 368.18 208.97 L 368.22 204.28 L 368.26 199.59 L 368.31 194.89 L 368.38 190.20 L 368.45 185.51 L 368.53 180.81 L 368.62 176.12 L 368.72 171.42 L 368.84 166.73 L 368.98 162.04 L 369.13 157.34 L 369.30 152.65 L 369.49 147.96 L 369.70 143.26 L 369.93 138.57 L 370.18 133.87 L 370.46 129.18 L 370.77 124.49 L 371.11 119.79 L 371.47 115.10 L 371.86 110.41 L 372.28 105.71 L 372.73 101.02 L 373.22 96.32 L 373.73 91.63 L 374.28 86.94 L 374.85 82.24 L 375.45 77.55 L 376.09 72.86 L 376.75 68.16 L 377.43 63.47 L 378.14 58.77 L 378.87 54.08 L 379.62 49.39 L 380.38 44.69 L 381.16 40.00 L 418.84 40.00 L 419.62 44.69 L 420.38 49.39 L 421.13 54.08 L 421.86 58.77 L 422.57 63.47 L 423.25 68.16 L 423.91 72.86 L 424.55 77.55 L 425.15 82.24 L 425.72 86.94 L 426.27 91.63 L 426.78 96.32 L 427.27 101.02 L 427.72 105.71 L 428.14 110.41 L 428.53 115.10 L 428.89 119.79 L 429.23 124.49 L 429.54 129.18 L 429.82 133.87 L 430.07 138.57 L 430.30 143.26 L 430.51 147.96 L 430.70 152.65 L 430.87 157.34 L 431.02 162.04 L 431.16 166.73 L 431.28 171.42 L 431.38 176.12 L 431.47 180.81 L 431.55 185.51 L 431.62 190.20 L 431.69 194.89 L 431.74 199.59 L 431.78 204.28 L 431.82 208.97 L 431.86 213.67 L 431.88 218.36 L 431.91 223.06 L 431.93 227.75 L 431.94 232.44 L 431.96 237.14 L 431.97 241.83 L 431.98 246.52 L 431.99 251.22 L 431.99 255.91 L 432.00 260.61 L 432.00 265.30 L 432.00 269.99 L 432.00 274.69 L 432.00 279.38 L 432.00 284.07 L 431.99 288.77 L 431.99 293.46 L 431.98 298.16 L 431.97 302.85 L 431.96 307.54 L 431.94 312.24 L 431.93 316.93 L 431.91 321.62 L 431.88 326.32 L 431.86 331.01 L 431.82 335.71 L 431.78 340.40 L 431.74 345.09 L 431.69 349.79 L 431.62 354.48 L 431.55 359.17 L 431.47 363.87 L 431.38 368.56 L 431.28 373.26 L 431.16 377.95 L 431.02 382.64 L 430.87 387.34 L 430.70 392.03 L 430.51 396.72 L 430.30 401.42 L 430.07 406.11 L 429.82 410.81 L 429.54 415.50 L 429.23 420.19 L 428.89 424.89 L 428.53 429.58 L 428.14 434.27 L 427.72 438.97 L 427.27 443.66 L 426.78 448.36 L 426.27 453.05 L 425.72 457.74 L 425.15 462.44 L 424.55 467.13 L 423.91 471.82 L 423.25 476.52 L 422.57 481.21 L 421.86 485.91 L 421.13 490.60 L 420.38 495.29 L 419.62 499.99 L 418.84 504.68 Z" fill="#3B82F6" stroke="#333" stroke-width="1.00" opacity="0.60"/>
<rect x="392.80" y="156.17" width="14.40" height="232.34" fill="#fff" stroke="#333" stroke-width="1.50" opacity="0.80"/>
<line x1="392.80" y1="272.34" x2="407.20" y2="272.34" stroke="#333" stroke-width="2.00"/>
<text x="400.00" y="580.00" text-anchor="middle" font-family="sans-serif" font-size="12.00px">Treatment B</text>
<path d="M 611.74 560.00 L 610.57 556.87 L 609.43 553.74 L 608.30 550.61 L 607.21 547.48 L 606.15 544.35 L 605.12 541.23 L 604.13 538.10 L 603.18 534.97 L 602.28 531.84 L 601.41 528.71 L 600.60 525.58 L 599.83 522.45 L 599.10 519.32 L 598.42 516.19 L 597.79 513.06 L 597.20 509.93 L 596.66 506.80 L 596.16 503.68 L 595.70 500.55 L 595.27 497.42 L 594.89 494.29 L 594.54 491.16 L 594.23 488.03 L 593.95 484.90 L 593.69 481.77 L 593.47 478.64 L 593.26 475.51 L 593.09 472.38 L 592.93 469.25 L 592.79 466.13 L 592.67 463.00 L 592.56 459.87 L 592.47 456.74 L 592.39 453.61 L 592.32 450.48 L 592.27 447.35 L 592.22 444.22 L 592.17 441.09 L 592.14 437.96 L 592.11 434.83 L 592.08 431.70 L 592.06 428.58 L 592.04 425.45 L 592.03 422.32 L 592.02 419.19 L 592.01 416.06 L 592.01 412.93 L 592.00 409.80 L 592.00 406.67 L 592.00 403.54 L 592.00 400.41 L 592.01 397.28 L 592.01 394.15 L 592.02 391.03 L 592.03 387.90 L 592.04 384.77 L 592.06 381.64 L 592.08 378.51 L 592.11 375.38 L 592.14 372.25 L 592.17 369.12 L 592.22 365.99 L 592.27 362.86 L 592.32 359.73 L 592.39 356.60 L 592.47 353.48 L 592.56 350.35 L 592.67 347.22 L 592.79 344.09 L 592.93 340.96 L 593.09 337.83 L 593.26 334.70 L 593.47 331.57 L 593.69 328.44 L 593.95 325.31 L 594.23 322.18 L 594.54 319.05 L 594.89 315.93 L 595.27 312.80 L 595.70 309.67 L 596.16 306.54 L 596.66 303.41 L 597.20 300.28 L 597.79 297.15 L 598.42 294.02 L 599.10 290.89 L 599.83 287.76 L 600.60 284.63 L 601.41 281.50 L 602.28 278.38 L 603.18 275.25 L 604.13 272.12 L 605.12 268.99 L 606.15 265.86 L 607.21 262.73 L 608.30 259.60 L 609.43 256.47 L 610.57 253.34 L 611.74 250.21 L 668.26 250.21 L 669.43 253.34 L 670.57 256.47 L 671.70 259.60 L 672.79 262.73 L 673.85 265.86 L 674.88 268.99 L 675.87 272.12 L 676.82 275.25 L 677.72 278.38 L 678.59 281.50 L 679.40 284.63 L 680.17 287.76 L 680.90 290.89 L 681.58 294.02 L 682.21 297.15 L 682.80 300.28 L 683.34 303.41 L 683.84 306.54 L 684.30 309.67 L 684.73 312.80 L 685.11 315.93 L 685.46 319.05 L 685.77 322.18 L 686.05 325.31 L 686.31 328.44 L 686.53 331.57 L 686.74 334.70 L 686.91 337.83 L 687.07 340.96 L 687.21 344.09 L 687.33 347.22 L 687.44 350.35 L 687.53 353.48 L 687.61 356.60 L 687.68 359.73 L 687.73 362.86 L 687.78 365.99 L 687.83 369.12 L 687.86 372.25 L 687.89 375.38 L 687.92 378.51 L 687.94 381.64 L 687.96 384.77 L 687.97 387.90 L 687.98 391.03 L 687.99 394.15 L 687.99 397.28 L 688.00 400.41 L 688.00 403.54 L 688.00 406.67 L 688.00 409.80 L 687.99 412.93 L 687.99 416.06 L 687.98 419.19 L 687.97 422.32 L 687.96 425.45 L 687.94 428.58 L 687.92 431.70 L 687.89 434.83 L 687.86 437.96 L 687.83 441.09 L 687.78 444.22 L 687.73 447.35 L 687.68 450.48 L 687.61 453.61 L 687.53 456.74 L 687.44 459.87 L 687.33 463.00 L 687.21 466.13 L 687.07 469.25 L 686.91 472.38 L 686.74 475.51 L 686.53 478.64 L 686.31 481.77 L 686.05 484.90 L 685.77 488.03 L 685.46 491.16 L 685.11 494.29 L 684.73 497.42 L 684.30 500.55 L 683.84 503.68 L 683.34 506.80 L 682.80 509.93 L 682.21 513.06 L 681.58 516.19 L 680.90 519.32 L 680.17 522.45 L 679.40 525.58 L 678.59 528.71 L 677.72 531.84 L 676.82 534.97 L 675.87 538.10 L 674.88 541.23 L 673.85 544.35 L 672.79 547.48 L 671.70 550.61 L 670.57 553.74 L 669.43 556.87 L 668.26 560.00 Z" fill="#3B82F6" stroke="#333" stroke-width="1.00" opacity="0.60"/>
<rect x="632.80" y="327.66" width="14.40" height="154.89" fill="#fff" stroke="#333" stroke-width="1.50" opacity="0.80"/>
<line x1="632.80" y1="405.11" x2="647.20" y2="405.11" stroke="#333" stroke-width="2.00"/>
<text x="640.00" y="580.00" text-anchor="middle" font-family="sans-serif" font-size="12.00px">Control</text>

</svg>