Reading from stdin...
<svg xmlns="http://www.w3.org/2000/svg" width="800" height="600" viewBox="0 0 800 600">
<line x1="60.00" y1="60.00" x2="60.00" y2="540.00" stroke="#374151" stroke-width="2.00"/>
<line x1="60.00" y1="540.00" x2="740.00" y2="540.00" stroke="#374151" stroke-width="2.00"/>
<path d="M 60.00 540.00  60.00 300.40 L 65.75 289.62 L 71.50 278.94 L 77.25 268.42 L 83.00 258.08 L 88.75 247.96 L 94.50 238.10 L 100.25 228.53 L 106.00 219.26 L 111.75 210.34 L 117.51 201.79 L 123.26 193.61 L 129.01 185.83 L 134.76 178.46 L 140.51 171.51 L 146.26 164.99 L 152.01 158.89 L 157.76 153.22 L 163.51 147.96 L 169.26 143.12 L 175.01 138.68 L 180.76 134.62 L 186.51 130.94 L 192.26 127.61 L 198.01 124.62 L 203.76 121.94 L 209.51 119.55 L 215.26 117.43 L 221.01 115.56 L 226.77 113.92 L 232.52 112.48 L 238.27 111.21 L 244.02 110.12 L 249.77 109.16 L 255.52 108.32 L 261.27 107.60 L 267.02 106.97 L 272.77 106.42 L 278.52 105.94 L 284.27 105.52 L 290.02 105.15 L 295.77 104.83 L 301.52 104.56 L 307.27 104.32 L 313.02 104.13 L 318.77 103.96 L 324.52 103.83 L 330.27 103.73 L 336.03 103.67 L 341.78 103.64 L 347.53 103.64 L 353.28 103.67 L 359.03 103.73 L 364.78 103.83 L 370.53 103.96 L 376.28 104.13 L 382.03 104.32 L 387.78 104.56 L 393.53 104.83 L 399.28 105.15 L 405.03 105.52 L 410.78 105.94 L 416.53 106.42 L 422.28 106.97 L 428.03 107.60 L 433.78 108.32 L 439.53 109.16 L 445.29 110.12 L 451.04 111.21 L 456.79 112.48 L 462.54 113.92 L 468.29 115.56 L 474.04 117.43 L 479.79 119.55 L 485.54 121.94 L 491.29 124.62 L 497.04 127.61 L 502.79 130.94 L 508.54 134.62 L 514.29 138.68 L 520.04 143.12 L 525.79 147.96 L 531.54 153.22 L 537.29 158.89 L 543.04 164.99 L 548.79 171.51 L 554.55 178.46 L 560.30 185.83 L 566.05 193.61 L 571.80 201.79 L 577.55 210.34 L 583.30 219.26 L 589.05 228.53 L 594.80 238.10 L 600.55 247.96 L 606.30 258.08 L 612.05 268.42 L 617.80 278.94 L 623.55 289.62 L 629.30 300.40 L 629.30 540.00 Z" fill="#3b82f6" stroke="none" opacity="0.30"/>
<path d="M 60.00 300.40 L 65.75 289.62 L 71.50 278.94 L 77.25 268.42 L 83.00 258.08 L 88.75 247.96 L 94.50 238.10 L 100.25 228.53 L 106.00 219.26 L 111.75 210.34 L 117.51 201.79 L 123.26 193.61 L 129.01 185.83 L 134.76 178.46 L 140.51 171.51 L 146.26 164.99 L 152.01 158.89 L 157.76 153.22 L 163.51 147.96 L 169.26 143.12 L 175.01 138.68 L 180.76 134.62 L 186.51 130.94 L 192.26 127.61 L 198.01 124.62 L 203.76 121.94 L 209.51 119.55 L 215.26 117.43 L 221.01 115.56 L 226.77 113.92 L 232.52 112.48 L 238.27 111.21 L 244.02 110.12 L 249.77 109.16 L 255.52 108.32 L 261.27 107.60 L 267.02 106.97 L 272.77 106.42 L 278.52 105.94 L 284.27 105.52 L 290.02 105.15 L 295.77 104.83 L 301.52 104.56 L 307.27 104.32 L 313.02 104.13 L 318.77 103.96 L 324.52 103.83 L 330.27 103.73 L 336.03 103.67 L 341.78 103.64 L 347.53 103.64 L 353.28 103.67 L 359.03 103.73 L 364.78 103.83 L 370.53 103.96 L 376.28 104.13 L 382.03 104.32 L 387.78 104.56 L 393.53 104.83 L 399.28 105.15 L 405.03 105.52 L 410.78 105.94 L 416.53 106.42 L 422.28 106.97 L 428.03 107.60 L 433.78 108.32 L 439.53 109.16 L 445.29 110.12 L 451.04 111.21 L 456.79 112.48 L 462.54 113.92 L 468.29 115.56 L 474.04 117.43 L 479.79 119.55 L 485.54 121.94 L 491.29 124.62 L 497.04 127.61 L 502.79 130.94 L 508.54 134.62 L 514.29 138.68 L 520.04 143.12 L 525.79 147.96 L 531.54 153.22 L 537.29 158.89 L 543.04 164.99 L 548.79 171.51 L 554.55 178.46 L 560.30 185.83 L 566.05 193.61 L 571.80 201.79 L 577.55 210.34 L 583.30 219.26 L 589.05 228.53 L 594.80 238.10 L 600.55 247.96 L 606.30 258.08 L 612.05 268.42 L 617.80 278.94 L 623.55 289.62 L 629.30 300.40" fill="none" stroke="#3b82f6" stroke-width="2.50"/>
<path d="M 186.51 540.00  186.51 283.13 L 192.10 272.86 L 197.69 262.78 L 203.28 252.92 L 208.87 243.32 L 214.47 233.99 L 220.06 224.96 L 225.65 216.24 L 231.24 207.87 L 236.83 199.85 L 242.42 192.19 L 248.01 184.90 L 253.60 177.98 L 259.19 171.44 L 264.78 165.29 L 270.37 159.50 L 275.96 154.09 L 281.56 149.05 L 287.15 144.37 L 292.74 140.04 L 298.33 136.04 L 303.92 132.38 L 309.51 129.03 L 315.10 125.98 L 320.69 123.22 L 326.28 120.74 L 331.87 118.51 L 337.46 116.52 L 343.05 114.76 L 348.64 113.21 L 354.24 111.84 L 359.83 110.66 L 365.42 109.63 L 371.01 108.74 L 376.60 107.98 L 382.19 107.33 L 387.78 106.78 L 393.37 106.31 L 398.96 105.91 L 404.55 105.57 L 410.14 105.28 L 415.73 105.03 L 421.32 104.81 L 426.92 104.62 L 432.51 104.45 L 438.10 104.30 L 443.69 104.17 L 449.28 104.05 L 454.87 103.95 L 460.46 103.86 L 466.05 103.79 L 471.64 103.73 L 477.23 103.70 L 482.82 103.70 L 488.41 103.72 L 494.01 103.77 L 499.60 103.86 L 505.19 103.99 L 510.78 104.16 L 516.37 104.37 L 521.96 104.64 L 527.55 104.97 L 533.14 105.35 L 538.73 105.81 L 544.32 106.33 L 549.91 106.94 L 555.50 107.64 L 561.09 108.44 L 566.69 109.35 L 572.28 110.38 L 577.87 111.56 L 583.46 112.89 L 589.05 114.40 L 594.64 116.09 L 600.23 118.01 L 605.82 120.16 L 611.41 122.56 L 617.00 125.25 L 622.59 128.25 L 628.18 131.58 L 633.77 135.25 L 639.37 139.30 L 644.96 143.75 L 650.55 148.60 L 656.14 153.89 L 661.73 159.61 L 667.32 165.78 L 672.91 172.40 L 678.50 179.48 L 684.09 187.02 L 689.68 194.99 L 695.27 203.40 L 700.86 212.22 L 706.46 221.44 L 712.05 231.03 L 717.64 240.96 L 723.23 251.20 L 728.82 261.71 L 734.41 272.44 L 740.00 283.37 L 740.00 540.00 Z" fill="#ef4444" stroke="none" opacity="0.30"/>
<path d="M 186.51 283.13 L 192.10 272.86 L 197.69 262.78 L 203.28 252.92 L 208.87 243.32 L 214.47 233.99 L 220.06 224.96 L 225.65 216.24 L 231.24 207.87 L 236.83 199.85 L 242.42 192.19 L 248.01 184.90 L 253.60 177.98 L 259.19 171.44 L 264.78 165.29 L 270.37 159.50 L 275.96 154.09 L 281.56 149.05 L 287.15 144.37 L 292.74 140.04 L 298.33 136.04 L 303.92 132.38 L 309.51 129.03 L 315.10 125.98 L 320.69 123.22 L 326.28 120.74 L 331.87 118.51 L 337.46 116.52 L 343.05 114.76 L 348.64 113.21 L 354.24 111.84 L 359.83 110.66 L 365.42 109.63 L 371.01 108.74 L 376.60 107.98 L 382.19 107.33 L 387.78 106.78 L 393.37 106.31 L 398.96 105.91 L 404.55 105.57 L 410.14 105.28 L 415.73 105.03 L 421.32 104.81 L 426.92 104.62 L 432.51 104.45 L 438.10 104.30 L 443.69 104.17 L 449.28 104.05 L 454.87 103.95 L 460.46 103.86 L 466.05 103.79 L 471.64 103.73 L 477.23 103.70 L 482.82 103.70 L 488.41 103.72 L 494.01 103.77 L 499.60 103.86 L 505.19 103.99 L 510.78 104.16 L 516.37 104.37 L 521.96 104.64 L 527.55 104.97 L 533.14 105.35 L 538.73 105.81 L 544.32 106.33 L 549.91 106.94 L 555.50 107.64 L 561.09 108.44 L 566.69 109.35 L 572.28 110.38 L 577.87 111.56 L 583.46 112.89 L 589.05 114.40 L 594.64 116.09 L 600.23 118.01 L 605.82 120.16 L 611.41 122.56 L 617.00 125.25 L 622.59 128.25 L 628.18 131.58 L 633.77 135.25 L 639.37 139.30 L 644.96 143.75 L 650.55 148.60 L 656.14 153.89 L 661.73 159.61 L 667.32 165.78 L 672.91 172.40 L 678.50 179.48 L 684.09 187.02 L 689.68 194.99 L 695.27 203.40 L 700.86 212.22 L 706.46 221.44 L 712.05 231.03 L 717.64 240.96 L 723.23 251.20 L 728.82 261.71 L 734.41 272.44 L 740.00 283.37" fill="none" stroke="#ef4444" stroke-width="2.50"/>
<text x="60.00" y="550.00" text-anchor="middle" dominant-baseline="hanging" font-family="sans-serif" font-size="10.00px">12.00</text>
<text x="196.00" y="550.00" text-anchor="middle" dominant-baseline="hanging" font-family="sans-serif" font-size="10.00px">20.60</text>
<text x="332.00" y="550.00" text-anchor="middle" dominant-baseline="hanging" font-family="sans-serif" font-size="10.00px">29.20</text>
<text x="468.00" y="550.00" text-anchor="middle" dominant-baseline="hanging" font-family="sans-serif" font-size="10.00px">37.80</text>
<text x="604.00" y="550.00" text-anchor="middle" dominant-baseline="hanging" font-family="sans-serif" font-size="10.00px">46.40</text>
<text x="740.00" y="550.00" text-anchor="middle" dominant-baseline="hanging" font-family="sans-serif" font-size="10.00px">55.00</text>
<text x="50.00" y="540.00" text-anchor="end" dominant-baseline="middle" font-family="sans-serif" font-size="10.00px">0.000</text>
<text x="50.00" y="444.00" text-anchor="end" dominant-baseline="middle" font-family="sans-serif" font-size="10.00px">0.006</text>
<text x="50.00" y="348.00" text-anchor="end" dominant-baseline="middle" font-family="sans-serif" font-size="10.00px">0.012</text>
<text x="50.00" y="252.00" text-anchor="end" dominant-baseline="middle" font-family="sans-serif" font-size="10.00px">0.018</text>
<text x="50.00" y="156.00" text-anchor="end" dominant-baseline="middle" font-family="sans-serif" font-size="10.00px">0.023</text>
<text x="50.00" y="60.00" text-anchor="end" dominant-baseline="middle" font-family="sans-serif" font-size="10.00px">0.029</text>
<line x1="80.00" y1="80.00" x2="110.00" y2="80.00" stroke="#3b82f6" stroke-width="3.00"/>
<text x="115.00" y="80.00" dominant-baseline="middle" font-family="sans-serif" font-size="12.00px">Group A</text>
<line x1="80.00" y1="105.00" x2="110.00" y2="105.00" stroke="#ef4444" stroke-width="3.00"/>
<text x="115.00" y="105.00" dominant-baseline="middle" font-family="sans-serif" font-size="12.00px">Group B</text>

</svg>